<svg width="419" height="420" viewBox="0 0 419 420" fill="none" xmlns="http://www.w3.org/2000/svg">
<g clip-path="url(#clip0_806_11225)">
<path d="M213.041 277.7L304.666 245.59C304.666 245.59 277.458 237.168 260.686 223.934C260.686 223.934 172.191 231.763 155.87 215.37L213.041 277.7Z" fill="#F89520"/>
<path d="M216.325 304.43C166.984 343.865 95.1583 335.658 55.8917 286.1C16.6251 236.541 24.7981 164.397 74.1411 124.961" fill="#F37423"/>
<path d="M71.403 273.706C103.85 314.666 163.209 321.445 203.984 288.859L86.4851 140.533C45.7088 173.124 38.9581 232.746 71.403 273.703" fill="#F89520"/>
<path fill-rule="evenodd" clip-rule="evenodd" d="M56.6272 285.407C17.749 236.33 25.8183 164.89 74.7162 125.809L98.2538 155.258C65.599 181.357 60.1668 229.162 86.1784 261.998C112.15 294.783 159.612 300.187 192.218 274.13L215.753 303.581C166.807 342.696 95.5456 334.536 56.6272 285.407Z" fill="white"/>
<path d="M146.226 213.866C146.413 217.902 146.519 221.927 146.598 225.95C146.645 227.962 146.663 229.975 146.695 231.981L146.747 238.008L146.76 244.03L146.752 247.039L146.726 250.046L146.681 253.051L146.619 256.054L146.465 262.056C146.407 264.057 146.423 266.066 146.478 268.078C146.532 270.091 146.621 272.103 146.644 274.116C146.677 276.116 146.593 278.117 146.392 280.107C146.178 282.095 145.84 284.067 145.379 286.012C144.921 287.967 144.385 289.912 143.774 291.848C143.161 293.785 142.473 295.713 141.681 297.63C141.287 298.588 140.87 299.544 140.422 300.496C139.974 301.448 139.505 302.398 139.003 303.337C138.502 304.276 137.959 305.231 137.38 306.162C136.79 307.126 136.149 308.058 135.46 308.953L133.853 308.77C133.382 307.742 132.965 306.69 132.606 305.617C132.251 304.573 131.937 303.534 131.66 302.498C131.384 301.462 131.133 300.431 130.911 299.402C130.688 298.373 130.495 297.348 130.326 296.324C129.983 294.279 129.743 292.244 129.578 290.218C129.414 288.193 129.33 286.177 129.321 284.169C129.306 282.17 129.417 280.172 129.653 278.187C129.902 276.202 130.267 274.234 130.746 272.292C131.219 270.338 131.757 268.393 132.26 266.443C132.762 264.494 133.228 262.537 133.619 260.579L134.811 254.694L135.422 251.755L136.05 248.816L136.698 245.879L137.362 242.946L138.722 237.08L140.119 231.22C140.601 229.268 141.065 227.313 141.563 225.365C142.538 221.458 143.543 217.563 144.627 213.673L146.226 213.866Z" fill="white"/>
<path d="M145.711 214.134C144.287 215.508 142.846 216.857 141.413 218.225L137.084 222.279C134.2 224.98 131.291 227.653 128.383 230.329L124.009 234.324L119.625 238.298L115.209 242.24L110.777 246.161C109.297 247.466 107.839 248.798 106.402 250.157C104.962 251.512 103.534 252.88 102.083 254.223C100.633 255.565 99.1503 256.864 97.6157 258.1C96.0811 259.336 94.5004 260.511 92.8796 261.637C89.6342 263.886 86.292 266.01 82.8149 267.966C81.081 268.946 79.3052 269.877 77.4877 270.758C76.5773 271.195 75.6611 271.624 74.7235 272.027C73.786 272.431 72.8414 272.824 71.8565 273.167L71.2891 272.45C71.8424 271.562 72.4335 270.724 73.0376 269.9C73.6418 269.076 74.2625 268.272 74.8902 267.479C76.1513 265.901 77.4518 264.372 78.7917 262.892C81.4707 259.932 84.2821 257.135 87.1929 254.463C88.6494 253.13 90.1485 251.843 91.6855 250.622C93.2224 249.4 94.8267 248.241 96.4512 247.12C98.0756 245.999 99.7272 244.911 101.365 243.805C103.002 242.699 104.624 241.576 106.224 240.422L111.023 236.964L115.839 233.531L120.686 230.126L125.545 226.744C128.792 224.497 132.046 222.26 135.309 220.034L140.213 216.709C141.858 215.612 143.493 214.504 145.147 213.42L145.711 214.134Z" fill="white"/>
<path d="M145.93 214.411C143.251 217.371 140.522 220.272 137.773 223.15C136.404 224.594 135.017 226.015 133.635 227.448L129.473 231.71L125.293 235.949L123.191 238.054L121.077 240.145L118.949 242.22L116.812 244.282L112.521 248.382C111.087 249.743 109.699 251.164 108.334 252.614C106.97 254.064 105.628 255.542 104.245 256.968C102.875 258.395 101.422 259.739 99.8931 260.993C98.3567 262.234 96.7432 263.377 95.0623 264.413C93.378 265.458 91.644 266.442 89.8604 267.366C88.0787 268.289 86.2485 269.151 84.3545 269.932C83.4087 270.327 82.4468 270.698 81.4686 271.047C80.4905 271.396 79.4943 271.725 78.4799 272.033C77.4631 272.336 76.4275 272.615 75.3646 272.862C74.276 273.118 73.1746 273.316 72.0649 273.454L71.0576 272.183C71.4405 271.127 71.8797 270.094 72.3735 269.086C72.8464 268.101 73.3469 267.147 73.875 266.223C74.403 265.3 74.9457 264.398 75.5029 263.518C76.0625 262.638 76.6391 261.78 77.2326 260.945C78.4149 259.266 79.6645 257.669 80.9591 256.131C82.2537 254.593 83.6003 253.121 84.9918 251.705C86.374 250.293 87.8445 248.971 89.3945 247.746C90.9538 246.532 92.5835 245.411 94.2749 244.389C95.9691 243.357 97.7035 242.376 99.4178 241.364C101.132 240.352 102.82 239.316 104.464 238.218L109.404 234.938L111.887 233.311L114.378 231.696L116.881 230.098L119.395 228.513L124.442 225.366L129.512 222.249C131.211 221.223 132.902 220.184 134.61 219.171C138.019 217.129 141.445 215.108 144.92 213.151L145.93 214.411Z" fill="white"/>
<path d="M145.307 214.578C141.322 214.624 137.349 214.591 133.381 214.528C131.395 214.506 129.415 214.452 127.431 214.41L121.487 214.25L115.55 214.052L112.584 213.934L109.62 213.802L106.664 213.652L103.709 213.485L97.7973 213.119C95.8276 212.992 93.8473 212.937 91.8599 212.922C89.8725 212.906 87.8816 212.922 85.9001 212.878C83.927 212.84 81.9578 212.686 80.003 212.415C78.0511 212.13 76.1193 211.72 74.2193 211.19C72.3104 210.662 70.4124 210.057 68.5255 209.375C66.6339 208.692 64.7636 207.933 62.9039 207.071C61.973 206.644 61.0469 206.19 60.1256 205.709C59.2034 205.227 58.2848 204.72 57.3709 204.18C56.457 203.64 55.549 203.066 54.6517 202.452C53.7233 201.825 52.829 201.15 51.9727 200.428L52.2091 198.821C53.2394 198.385 54.2923 198.004 55.3634 197.681C56.4061 197.361 57.443 197.08 58.4739 196.837C59.5049 196.591 60.5323 196.379 61.5478 196.192C62.5634 196.005 63.5896 195.846 64.604 195.718C66.6339 195.446 68.6485 195.277 70.6513 195.182C72.654 195.087 74.645 195.074 76.6252 195.136C78.5965 195.192 80.5622 195.373 82.5105 195.678C84.4582 195.997 86.3852 196.432 88.2812 196.98C90.1894 197.522 92.0869 198.131 93.9892 198.704C95.8914 199.277 97.8008 199.812 99.7208 200.274L105.477 201.675L108.354 202.392L111.227 203.126L114.097 203.877L116.965 204.648L122.696 206.218L128.421 207.826C130.327 208.377 132.237 208.913 134.14 209.484C137.951 210.6 141.756 211.745 145.55 212.97L145.307 214.578Z" fill="white"/>
<path d="M150.435 35.171L86.6162 115.099L97.7886 129.211" fill="#F37423"/>
<path d="M216.466 281.402L227.709 295.606L334.788 238.899" fill="#F37423"/>
<path d="M164.963 213.911C164.26 223.753 155.749 231.157 145.952 230.452C136.154 229.746 128.781 221.198 129.483 211.357C130.185 201.516 138.697 194.11 148.495 194.815C158.292 195.521 165.665 204.07 164.963 213.911Z" fill="white"/>
<path d="M299.242 239.662C292.689 237.768 286.345 235.228 280.208 232.282C274.073 229.316 268.117 225.991 262.372 222.325L261.29 221.643L260.219 220.946L259.155 220.246L258.619 219.897L258.09 219.542L255.962 218.121L253.858 216.665C253.157 216.18 252.469 215.676 251.774 215.183C251.079 214.689 250.392 214.182 249.705 213.676C248.325 212.672 246.963 211.643 245.603 210.612L243.576 209.046C242.902 208.52 242.239 207.98 241.566 207.454C240.894 206.927 240.233 206.388 239.57 205.848C238.906 205.309 238.238 204.783 237.584 204.227L235.614 202.585L233.664 200.908C233.337 200.632 233.016 200.349 232.693 200.069L231.725 199.228L230.756 198.387L229.797 197.533C219.534 188.393 209.876 178.594 200.883 168.198C199.748 166.896 198.647 165.572 197.525 164.26C196.424 162.929 195.311 161.607 194.231 160.257C193.15 158.907 192.072 157.554 190.999 156.197C189.944 154.824 188.878 153.457 187.844 152.066C186.811 150.675 185.775 149.281 184.746 147.881C183.736 146.469 182.716 145.062 181.728 143.629C180.741 142.197 179.758 140.76 178.78 139.316C177.82 137.863 176.854 136.409 175.92 134.936C174.039 131.992 172.205 129.01 170.447 125.971C170.227 125.592 170.003 125.216 169.785 124.834L169.136 123.688C168.706 122.922 168.265 122.161 167.847 121.386L166.581 119.07L165.352 116.727C163.73 113.593 162.175 110.412 160.688 107.185L159.598 104.751L159.326 104.142L159.063 103.527L158.537 102.297C158.362 101.888 158.182 101.478 158.015 101.066L157.512 99.823C157.179 98.9943 156.837 98.1657 156.52 97.3287L156.038 96.0727C155.876 95.6548 155.715 95.2357 155.565 94.8119C155.259 93.9655 154.942 93.1238 154.644 92.2726L153.769 89.7084L152.934 87.1194L152.145 84.5067C151.892 83.6291 151.645 82.7495 151.402 81.868C151.166 80.9825 150.942 80.0923 150.713 79.202L150.076 76.5112C149.245 72.862 148.6 69.1728 148.145 65.4579C147.668 61.6335 147.431 57.7828 147.436 53.9286L147.458 52.4512L147.472 51.7113L147.504 50.9679L147.575 49.4775L147.693 47.9788L147.754 47.2294C147.776 46.9784 147.807 46.7263 147.833 46.4753L148 44.9647C148.066 44.4593 148.14 43.9526 148.211 43.4471L148.321 42.6871L148.454 41.9235C149.152 37.7186 150.317 33.6046 151.926 29.658L152.574 28.1332L153.283 26.6203L153.464 26.2426L153.659 25.8674L154.053 25.1192L154.452 24.3734L154.882 23.6359L155.315 22.9007L155.534 22.5337L155.771 22.1715C156.083 21.6885 156.392 21.2055 156.716 20.7272L157.726 19.3066C157.892 19.0699 158.081 18.8426 158.255 18.6129L158.796 17.9239C160.273 16.0834 161.894 14.3635 163.643 12.7802C165.41 11.1932 167.304 9.75438 169.306 8.47822C169.805 8.15977 170.305 7.83895 170.82 7.55365L171.588 7.11446C171.845 6.96885 172.1 6.82087 172.363 6.69065L173.931 5.89157C174.459 5.64534 174.99 5.40344 175.523 5.16589C177.634 4.25781 179.804 3.49485 182.019 2.8823C184.168 2.30983 186.35 1.8659 188.551 1.55287L190.176 1.35162C190.448 1.31611 190.716 1.29361 190.984 1.27112L191.791 1.20246L192.598 1.13616C192.867 1.11485 193.131 1.10775 193.399 1.09355L194.998 1.02015L196.581 1.0012C196.845 1.0012 197.111 0.994101 197.372 1.0012L198.155 1.01896C198.676 1.03554 199.202 1.04264 199.72 1.0675L201.268 1.15866C201.787 1.18352 202.294 1.23324 202.805 1.27704C203.315 1.32084 203.826 1.36583 204.332 1.42384L205.841 1.61087L206.595 1.70913L207.339 1.82751L208.827 2.06427C209.319 2.14951 209.806 2.24303 210.297 2.333C211.28 2.50466 212.239 2.72485 213.204 2.93321C213.689 3.03502 214.163 3.15339 214.638 3.27059L216.064 3.62574C217.01 3.87671 217.942 4.13005 218.873 4.39878L220.257 4.81784C220.718 4.95753 221.182 5.09486 221.635 5.24875L223 5.69861L223.681 5.92589L224.355 6.16266C225.251 6.48347 226.152 6.79956 227.032 7.14524L228.358 7.65547C228.8 7.82594 229.233 8.01061 229.669 8.18582C233.158 9.6143 236.547 11.1769 239.837 12.8737C246.422 16.2512 252.643 20.0785 258.574 24.2076C259.311 24.7297 260.056 25.2411 260.784 25.7715C261.512 26.3018 262.247 26.8251 262.968 27.3637L265.122 28.9855L267.25 30.6346C268.658 31.7438 270.059 32.8602 271.437 33.9978C272.129 34.5649 272.809 35.1438 273.489 35.7215L274.509 36.5892L275.519 37.4664C276.868 38.6325 278.193 39.8211 279.515 41.0179L281.474 42.8268L283.407 44.6593C284.687 45.8881 285.963 47.1205 287.215 48.373L288.155 49.3129L289.083 50.26C289.698 50.8969 290.323 51.5231 290.929 52.1671L292.756 54.0885L294.563 56.0287C295.162 56.6775 295.745 57.338 296.336 57.9915C296.927 58.645 297.511 59.3091 298.095 59.9697C298.679 60.6302 299.262 61.292 299.834 61.9621C300.406 62.6321 300.989 63.2939 301.556 63.9745L303.25 66.0013L304.923 68.0457C309.363 73.5094 313.574 79.1342 317.554 84.9199C319.557 87.8001 321.474 90.7384 323.353 93.6967C325.232 96.6551 327.054 99.6454 328.814 102.672C329.034 103.05 329.257 103.427 329.475 103.805L330.123 104.948C330.553 105.71 330.989 106.468 331.408 107.236L332.673 109.535L333.912 111.847C335.547 114.939 337.123 118.06 338.641 121.209C340.159 124.358 341.604 127.538 342.976 130.749C343.67 132.35 344.331 133.967 344.992 135.581L345.956 138.015C346.278 138.826 346.582 139.644 346.896 140.458C347.209 141.271 347.509 142.091 347.809 142.911L348.259 144.138C348.409 144.548 348.548 144.967 348.694 145.372C348.979 146.2 349.274 147.015 349.551 147.842L350.378 150.328C350.907 151.986 351.442 153.651 351.924 155.328L352.296 156.58L352.651 157.84L353.005 159.098L353.182 159.728L353.348 160.361C353.568 161.205 353.796 162.046 354.009 162.892L354.63 165.434L355.214 167.985C355.314 168.409 355.401 168.837 355.491 169.265L355.758 170.546C355.943 171.398 356.091 172.26 356.257 173.116C356.422 173.972 356.563 174.836 356.711 175.695C356.784 176.126 356.862 176.555 356.929 176.986L357.124 178.282L357.317 179.577L357.486 180.879L357.653 182.181L357.794 183.484L357.932 184.786L358.05 186.088L358.168 187.39L358.254 188.701C358.28 189.136 358.314 189.572 358.334 190.009L358.388 191.32C358.402 191.758 358.431 192.193 358.433 192.632L358.455 193.945C358.462 194.383 358.471 194.82 358.462 195.258L358.455 196.572C358.455 196.791 358.455 197.009 358.447 197.228L358.426 197.886L358.384 199.199C358.371 199.637 358.334 200.075 358.31 200.513C358.287 200.951 358.261 201.388 358.228 201.825C357.963 205.33 357.443 208.812 356.673 212.242L356.35 213.524L356.188 214.163C356.131 214.377 356.07 214.587 356.005 214.799L355.635 216.068C355.502 216.489 355.361 216.906 355.223 217.325L355.016 217.953L354.787 218.574L354.322 219.813C353.974 220.626 353.655 221.448 353.258 222.242L352.975 222.841L352.834 223.14L352.68 223.434L352.062 224.607C351.852 224.995 351.617 225.373 351.398 225.755L351.062 226.327L350.707 226.885L350.347 227.442C350.228 227.628 350.11 227.815 349.978 227.993L349.206 229.073C349.082 229.255 348.935 229.422 348.8 229.597L348.389 230.117C348.249 230.289 348.117 230.466 347.973 230.634L347.535 231.132L347.098 231.63C347.023 231.712 346.952 231.797 346.877 231.877L346.646 232.114L345.72 233.061L344.749 233.961L344.505 234.185C344.423 234.259 344.336 234.327 344.252 234.399L343.745 234.822C342.395 235.954 340.95 236.966 339.426 237.847C339.237 237.957 339.052 238.077 338.858 238.18L338.278 238.487L337.697 238.795C337.601 238.845 337.505 238.899 337.405 238.947L337.109 239.084L335.918 239.637L334.705 240.128C333.085 240.763 331.42 241.277 329.724 241.667L329.092 241.819L328.455 241.943C328.029 242.024 327.606 242.115 327.179 242.18C326.323 242.298 325.471 242.453 324.611 242.525C322.899 242.708 321.178 242.802 319.456 242.81L318.168 242.789L317.524 242.779L316.881 242.747L315.597 242.682C315.169 242.659 314.744 242.612 314.317 242.578C313.89 242.543 313.462 242.51 313.038 242.459L311.763 242.304L311.126 242.226C310.914 242.201 310.704 242.163 310.492 242.132L309.225 241.938C305.856 241.382 302.524 240.624 299.247 239.667L299.242 239.662ZM299.645 238.273C302.867 239.21 306.145 239.944 309.458 240.473C312.759 241.001 316.098 241.258 319.441 241.241C321.106 241.218 322.769 241.107 324.422 240.908C325.249 240.827 326.066 240.672 326.887 240.543C327.295 240.469 327.699 240.374 328.106 240.293L328.715 240.165L329.318 240.01C329.717 239.903 330.122 239.806 330.52 239.693L331.702 239.323C332.101 239.205 332.484 239.051 332.874 238.912C333.264 238.774 333.654 238.634 334.031 238.464L335.171 237.977L336.286 237.434L336.565 237.298C336.657 237.252 336.746 237.198 336.837 237.15L337.379 236.849L337.921 236.548C338.102 236.449 338.276 236.332 338.449 236.225C339.862 235.367 341.197 234.388 342.441 233.299L342.914 232.89C342.99 232.822 343.071 232.755 343.15 232.684L343.372 232.468L344.259 231.601L345.101 230.69L345.311 230.462C345.381 230.385 345.445 230.304 345.511 230.226L345.908 229.752L346.306 229.279C346.437 229.117 346.556 228.948 346.682 228.784L347.055 228.288C347.173 228.12 347.309 227.96 347.42 227.786L348.117 226.755C348.235 226.585 348.341 226.407 348.449 226.229L348.773 225.697L349.096 225.166L349.395 224.619C349.59 224.252 349.799 223.893 349.986 223.52L350.532 222.399L350.668 222.119L350.792 221.832L351.041 221.259C351.387 220.503 351.662 219.72 351.967 218.939L352.368 217.755L352.568 217.163L352.744 216.563C352.862 216.162 352.981 215.763 353.099 215.36L353.406 214.146C353.457 213.942 353.511 213.741 353.558 213.537L353.689 212.923L353.95 211.696C354.569 208.398 354.936 205.058 355.048 201.704C355.154 198.341 355.057 194.974 354.759 191.622C354.469 188.267 354.006 184.925 353.404 181.608C352.802 178.291 352.061 174.997 351.207 171.732C350.354 168.467 349.392 165.228 348.324 162.024C347.255 158.821 346.101 155.645 344.869 152.499L343.923 150.147C343.608 149.365 343.272 148.589 342.948 147.809C342.782 147.42 342.624 147.029 342.455 146.642L341.947 145.482C341.608 144.708 341.273 143.932 340.918 143.165C340.563 142.398 340.225 141.626 339.863 140.861L338.783 138.568C338.044 137.049 337.307 135.529 336.536 134.025C335.005 131.013 333.414 128.032 331.764 125.082C330.113 122.132 328.401 119.22 326.627 116.346C324.853 113.465 323.027 110.627 321.153 107.815C319.279 105.003 317.346 102.232 315.36 99.4963C313.374 96.7605 311.359 94.0507 309.278 91.3918C300.981 80.7315 291.929 70.6826 282.191 61.3228C277.324 56.655 272.29 52.1624 267.058 47.9113C264.446 45.7804 261.79 43.7123 259.089 41.7069C256.388 39.7015 253.638 37.7655 250.84 35.8991C245.247 32.17 239.46 28.7369 233.461 25.7407C227.462 22.7444 221.261 20.1909 214.865 18.3264C211.677 17.3907 208.433 16.6608 205.151 16.1411C201.891 15.6198 198.592 15.3798 195.29 15.4237C193.648 15.4711 192.009 15.5729 190.386 15.7788C188.768 15.9925 187.164 16.3004 185.581 16.701C184.011 17.1156 182.471 17.6353 180.971 18.2566L179.857 18.7431L178.768 19.2806C178.584 19.3658 178.413 19.4664 178.231 19.5647L177.7 19.8583C177.346 20.0465 177.001 20.2643 176.656 20.4762C175.28 21.3243 173.976 22.2832 172.755 23.3434C171.536 24.4117 170.401 25.5716 169.36 26.8132L168.974 27.2868C168.846 27.4442 168.712 27.5969 168.595 27.7603L167.864 28.7369C167.628 29.0708 167.406 29.4094 167.177 29.7456L167.006 29.9977L166.844 30.2581L166.523 30.7778L166.202 31.2987L165.904 31.8338L165.605 32.3677L165.456 32.6353L165.317 32.9099L164.764 34.0049L164.255 35.1236C162.939 38.1495 161.953 41.3084 161.313 44.5457L161.185 45.153L161.079 45.7662L160.865 46.9915L160.69 48.2238C160.662 48.4298 160.629 48.6346 160.604 48.8406L160.534 49.4609L160.397 50.7004L160.295 51.9446L160.243 52.5661L160.21 53.1911L160.143 54.4389C160.021 57.7806 160.093 61.1266 160.36 64.4599C160.621 67.7995 161.054 71.1319 161.633 74.4419C162.793 81.063 164.499 87.5977 166.584 94.0093C167.627 97.2158 168.755 100.395 169.968 103.546C171.181 106.697 172.477 109.815 173.855 112.898L174.891 115.209L175.962 117.505C176.317 118.272 176.692 119.028 177.057 119.789L177.609 120.929C177.795 121.308 177.988 121.685 178.176 122.062C179.677 125.088 181.259 128.075 182.892 131.033C189.432 142.863 196.911 154.175 205.134 164.907C206.155 166.254 207.207 167.577 208.25 168.907C209.293 170.238 210.363 171.546 211.442 172.845C212.522 174.143 213.611 175.438 214.699 176.731C215.788 178.024 216.904 179.293 218.032 180.551C219.16 181.81 220.292 183.066 221.426 184.317C222.561 185.568 223.724 186.797 224.896 188.014L225.77 188.932L226.654 189.84C227.246 190.442 227.837 191.052 228.428 191.65L230.223 193.438C230.821 194.03 231.433 194.622 232.037 195.208C236.889 199.913 241.927 204.411 247.153 208.704C252.384 212.973 257.793 217.035 263.416 220.754C269.023 224.5 274.864 227.884 280.903 230.884C286.939 233.862 293.198 236.411 299.649 238.279" fill="#F37423"/>
<path d="M163.048 21.7772C148.791 25.1902 134.6 28.5416 120.542 32.2623C113.515 34.1221 106.523 36.0683 99.5938 38.1743C96.1298 39.2244 92.6847 40.3253 89.2478 41.4369C85.811 42.5485 82.3907 43.6992 78.9905 44.8901C77.2904 45.4891 75.5939 46.0953 73.9068 46.7239C72.2197 47.3525 70.5409 48.0012 68.868 48.6665C65.5316 50.0102 62.2331 51.4497 59.0303 53.0739C57.4295 53.8848 55.8524 54.7419 54.3131 55.657C52.7738 56.5721 51.2652 57.5405 49.8205 58.5881C46.9239 60.6728 44.2284 63.05 42.0175 65.8094C40.9135 67.1794 39.954 68.6599 39.1541 70.2275C38.3687 71.7836 37.7915 73.4367 37.4374 75.1439C37.0884 76.8428 36.9909 78.5839 37.1478 80.3112C37.3062 82.0441 37.6877 83.7491 38.2828 85.3839C38.5758 86.2083 38.9145 87.0157 39.2972 87.8025C39.6802 88.5909 40.0952 89.3663 40.5515 90.1192L40.7206 90.4033L40.8991 90.6815L41.2538 91.2391C41.5033 91.6037 41.7432 91.9731 42.0045 92.3306C42.5117 93.0539 43.0579 93.7512 43.616 94.4413C44.174 95.1315 44.7592 95.798 45.3633 96.4538C45.6613 96.7841 45.9698 97.1037 46.2796 97.4234C46.5894 97.743 46.9062 98.0579 47.2254 98.3704C48.4916 99.6253 49.8264 100.817 51.1907 101.97C53.9487 104.263 56.8239 106.411 59.8047 108.405C61.2944 109.408 62.7982 110.393 64.3269 111.344C65.8555 112.295 67.3901 113.238 68.9377 114.153C70.4853 115.068 72.0506 115.97 73.6242 116.853C75.1978 117.737 76.7749 118.613 78.3639 119.472C81.5379 121.196 84.7477 122.86 87.9935 124.465C94.4817 127.678 101.085 130.68 107.737 133.574C114.39 136.467 121.097 139.276 127.812 142.063C141.246 147.64 154.795 153.016 168.392 158.332L188.818 166.293C195.63 168.963 202.453 171.621 209.243 174.41L209.027 175.109C205.438 174.334 201.869 173.489 198.309 172.611C194.75 171.734 191.199 170.814 187.656 169.872C180.572 167.978 173.522 165.954 166.508 163.8C159.493 161.646 152.514 159.372 145.571 156.978C142.103 155.773 138.644 154.536 135.193 153.267C133.472 152.626 131.748 151.986 130.034 151.324C128.319 150.662 126.605 150.002 124.894 149.32C118.056 146.608 111.293 143.695 104.605 140.58C97.9178 137.465 91.3239 134.143 84.8238 130.614C78.3284 127.079 71.9111 123.351 65.7893 119.125C62.7237 117.017 59.7255 114.799 56.8278 112.439C53.915 110.085 51.1307 107.575 48.4869 104.922C45.817 102.257 43.3705 99.3777 41.1722 96.3118C40.0739 94.7604 39.0775 93.139 38.1894 91.4581C37.2891 89.7654 36.5444 87.9942 35.9643 86.1664C35.3772 84.3227 35.014 82.4148 34.8826 80.4841C34.7522 78.5456 34.8899 76.5983 35.2916 74.6976C35.6953 72.8094 36.3282 70.9779 37.1762 69.2437C38.022 67.5309 39.0224 65.8991 40.1649 64.3687C42.4372 61.3216 45.1304 58.6568 47.9939 56.2276C49.4268 55.013 50.9058 53.8599 52.4156 52.7519C53.9253 51.6438 55.4705 50.5879 57.0418 49.5757C58.613 48.5635 60.2043 47.5857 61.8193 46.6505C62.6256 46.1769 63.439 45.7247 64.2536 45.2713C65.0682 44.8179 65.8922 44.3823 66.7186 43.9514C68.3679 43.0836 70.0396 42.2656 71.7184 41.4653C73.3972 40.6651 75.0973 39.9122 76.8021 39.1877C80.2205 37.7339 83.6817 36.4081 87.186 35.21C90.6855 34.0025 94.2228 32.9241 97.7731 31.9095C104.876 29.8923 112.038 28.156 119.257 26.7007C126.477 25.2454 133.728 24.0269 141.011 23.0451C142.833 22.8083 144.655 22.5716 146.48 22.3727L149.218 22.0708L151.961 21.7997C152.874 21.7097 153.79 21.6352 154.705 21.5629C155.62 21.4907 156.536 21.4173 157.453 21.3522C159.286 21.2244 161.118 21.1155 162.962 21.0598L163.048 21.7772Z" fill="#F37423"/>
<path d="M397.458 206.909C397.458 206.909 411.208 215.002 410.383 228.639L397.458 206.909ZM354.505 194.648C353.651 194.655 351.932 195.05 351.127 194.728C360.975 198.655 369.045 206.032 375.028 214.705C377.977 218.98 380.549 223.62 382.505 228.437C384.397 233.092 385.119 239.176 389.74 242.051C393.185 244.195 397.672 244.803 401.627 244.134C405.18 243.533 408.366 241.626 410.899 239.091C418.211 231.763 416.001 218.456 409.869 211.007C404.736 204.772 396.927 201.268 389.374 199.002C380.98 196.486 372.197 195.332 363.472 194.859C360.842 194.715 358.209 194.642 355.572 194.638C355.216 194.638 354.861 194.638 354.508 194.638" fill="#F89520"/>
<path d="M346.287 190.821C342.139 208.663 325.229 214.21 325.229 214.21L346.287 190.821ZM322.834 172.457C313.648 175.712 307.845 184.966 300.134 190.215C292.617 195.33 284.324 199.426 275.433 201.442C272.161 202.184 261.351 204.726 258.261 201.867C258.734 202.304 259.21 202.738 259.689 203.169C277.158 218.753 299.828 226.972 322.877 220.571C340.156 215.772 356.325 204.5 349.457 184.355C346.673 176.186 337.979 171.343 329.558 171.343C327.27 171.332 324.996 171.711 322.835 172.463" fill="#F89520"/>
<path d="M282.471 171.985C284.022 178.699 278.421 184.819 278.421 184.819L282.471 171.985ZM277.129 165.527C275.098 165.824 273.236 166.825 271.867 168.356C269.999 170.486 270.19 173.651 269.726 176.267C269.227 179.001 268.475 181.682 267.48 184.276C265.486 189.522 262.426 194.43 258.258 197.878C258.599 197.596 259.42 197.536 259.811 197.411C261.182 196.974 262.545 196.485 263.898 195.956C267.851 194.409 271.775 192.514 275.4 189.993C278.661 187.724 281.934 184.795 283.749 180.899C285.915 176.246 285.782 169.242 281.805 166.665C280.662 165.924 279.348 165.469 277.973 165.469C277.69 165.469 277.407 165.489 277.127 165.527" fill="#F89520"/>
<path d="M359.895 133.163C359.895 133.163 374.232 126.17 385.065 134.432L359.895 133.163ZM370.18 125.074C362.167 125.903 354.929 130.476 348.861 135.527C342.122 141.137 336.285 147.839 331.046 154.864C329.254 157.268 327.534 159.726 325.887 162.235C325.414 162.946 324.791 164.603 324.078 165.099C332.799 159.053 343.387 156.408 353.89 156.227C359.068 156.139 364.338 156.566 369.416 157.609C374.318 158.615 379.759 161.389 384.707 159.127C388.394 157.44 391.39 154.036 393.032 150.354C394.508 147.052 394.699 143.328 394.005 139.809C392.152 130.408 381.563 124.961 372.415 124.961C371.669 124.96 370.923 124.998 370.18 125.074Z" fill="#F89520"/>
<path d="M371.67 171.338C371.672 170.83 371.824 170.334 372.106 169.913C372.389 169.491 372.791 169.163 373.26 168.97C373.728 168.777 374.244 168.727 374.741 168.827C375.238 168.927 375.695 169.173 376.053 169.532C376.411 169.892 376.654 170.35 376.752 170.848C376.851 171.346 376.799 171.862 376.605 172.331C376.411 172.8 376.082 173.2 375.66 173.482C375.238 173.764 374.743 173.915 374.236 173.915C373.898 173.914 373.564 173.847 373.252 173.717C372.941 173.588 372.658 173.398 372.42 173.158C372.181 172.919 371.992 172.635 371.864 172.323C371.735 172.01 371.669 171.675 371.67 171.338ZM362.685 167.33C360.973 170.308 362.685 174.515 366.498 176.729C370.31 178.942 374.796 178.323 376.508 175.346C378.22 172.369 376.508 168.16 372.695 165.946C371.262 165.098 369.631 164.64 367.966 164.619C365.707 164.619 363.71 165.556 362.686 167.33" fill="#F89520"/>
<path d="M297.927 165.099C297.929 164.591 298.081 164.095 298.364 163.674C298.647 163.253 299.048 162.925 299.517 162.731C299.986 162.538 300.501 162.489 300.999 162.589C301.496 162.689 301.952 162.934 302.31 163.294C302.668 163.653 302.911 164.111 303.01 164.609C303.108 165.107 303.057 165.623 302.862 166.092C302.668 166.561 302.339 166.962 301.917 167.244C301.496 167.526 301 167.676 300.493 167.676C300.156 167.676 299.821 167.609 299.51 167.479C299.198 167.349 298.915 167.159 298.677 166.92C298.439 166.68 298.25 166.396 298.121 166.084C297.993 165.772 297.927 165.437 297.927 165.099ZM289.584 161.461C287.872 164.438 289.584 168.647 293.397 170.861C297.21 173.074 301.695 172.455 303.407 169.478C305.119 166.501 303.407 162.292 299.594 160.078C298.161 159.23 296.53 158.772 294.865 158.751C292.606 158.751 290.609 159.688 289.585 161.461" fill="#F89520"/>
<path d="M394.923 257.483V249.936H392.116V248.926H398.868V249.936H396.05V257.483H394.923Z" fill="#F37423"/>
<path d="M399.989 257.483V248.926H401.686L403.703 254.985C403.888 255.549 404.024 255.971 404.109 256.252C404.206 255.94 404.357 255.483 404.562 254.88L406.602 248.926H408.118V257.483H407.033V250.321L404.558 257.483H403.541L401.077 250.199V257.483H399.989Z" fill="#F37423"/>
<path d="M13.4579 390.728C9.37749 390.728 6.11483 389.439 3.6699 386.86C1.22498 384.282 0.00330798 380.847 0.00488434 376.555C0.00488434 372.215 1.23366 368.767 3.69119 366.212C6.14873 363.658 9.46615 362.381 13.6435 362.383C17.7956 362.383 21.1036 363.659 23.5674 366.212C26.0313 368.765 27.2632 372.194 27.2632 376.5C27.2632 380.902 26.0313 384.374 23.5674 386.917C21.1036 389.46 17.7337 390.73 13.4579 390.728ZM13.5312 387.006C15.928 387.006 17.8256 386.059 19.2238 384.165C20.622 382.271 21.3211 379.708 21.3211 376.477C21.3211 373.34 20.6188 370.823 19.2143 368.926C17.8098 367.028 15.9517 366.081 13.64 366.084C11.303 366.084 9.43542 367.031 8.0372 368.926C6.63897 370.82 5.93986 373.355 5.93986 376.532C5.93986 379.682 6.63581 382.215 8.02773 384.129C9.41965 386.044 11.2537 387.003 13.53 387.005L13.5312 387.006Z" fill="#F37423"/>
<path d="M35.2178 390.053V363.062H45.2788C50.7385 363.062 53.4684 365.293 53.4684 369.755C53.4816 371.379 52.9967 372.968 52.0792 374.307C51.1531 375.674 49.879 376.723 48.257 377.454L57.0459 390.058H50.2361L43.5716 379.022H40.4848V390.058L35.2178 390.053ZM40.4848 375.315H41.7734C45.8294 375.315 47.8574 373.667 47.8574 370.371C47.8574 367.963 46.0473 366.76 42.4272 366.76H40.4848V375.315Z" fill="#F37423"/>
<path d="M60.9131 390.053L71.3738 363.062H76.9671L87.4265 390.053H81.6878L78.8918 382.847H67.7785L64.9824 390.053H60.9131ZM69.1582 379.254H77.5121L73.3351 368.492L69.1582 379.254Z" fill="#F37423"/>
<path d="M94.166 390.053V363.062H99.0866L111.544 381.502V363.057H116.03V390.048H111.018L98.6515 371.615V390.057L94.166 390.053Z" fill="#F37423"/>
<path d="M147.189 389.414C143.823 390.29 140.918 390.728 138.473 390.728C133.836 390.728 130.274 389.503 127.786 387.052C125.299 384.602 124.054 381.09 124.054 376.516C124.054 371.981 125.298 368.491 127.786 366.047C130.274 363.602 133.818 362.379 138.418 362.377C141.365 362.377 144.302 362.726 147.167 363.416V367.812C143.813 366.656 141.059 366.079 138.904 366.079C136.058 366.079 133.861 366.991 132.312 368.816C130.763 370.64 129.988 373.224 129.987 376.567C129.987 379.803 130.815 382.341 132.47 384.183C134.125 386.024 136.414 386.945 139.336 386.946C140.092 386.932 140.845 386.84 141.582 386.672V377.794H147.175L147.189 389.414Z" fill="#F37423"/>
<path d="M156.43 390.053V363.062H173.227V366.761H162.023V374.294H171.212V377.906H162.023V386.224H174.082V390.054L156.43 390.053Z" fill="#F37423"/>
<path d="M218.538 388.976C215.937 390.145 212.832 390.729 209.223 390.728C204.816 390.728 201.383 389.481 198.926 386.988C196.468 384.495 195.239 381.017 195.239 376.555C195.239 372.007 196.477 368.508 198.953 366.057C201.428 363.607 204.961 362.383 209.549 362.387C212.492 362.388 215.423 362.737 218.284 363.427V367.822C215.004 366.667 212.256 366.089 210.04 366.089C207.207 366.089 205.022 366.992 203.484 368.799C201.947 370.605 201.178 373.168 201.178 376.487C201.178 379.746 202.005 382.287 203.661 384.11C205.316 385.933 207.613 386.846 210.552 386.847C213.191 386.847 215.854 386.179 218.542 384.841L218.538 388.976Z" fill="#F37423"/>
<path d="M226.307 390.053V363.062H231.9V386.227H244.012V390.058L226.307 390.053Z" fill="#F37423"/>
<path d="M250.555 390.053V363.062H267.353V366.761H256.148V374.294H265.338V377.906H256.148V386.224H268.207V390.054L250.555 390.053Z" fill="#F37423"/>
<path d="M272.941 390.053L283.401 363.062H288.994L299.455 390.053H293.716L290.919 382.847H279.806L277.008 390.053H272.941ZM281.185 379.254H289.539L285.362 368.492L281.185 379.254Z" fill="#F37423"/>
<path d="M306.193 390.053V363.062H311.115L323.573 381.502V363.057H328.058V390.048H323.045L310.679 371.615V390.057L306.193 390.053Z" fill="#F37423"/>
<path d="M337.77 390.053V363.062H343.363V390.053H337.77Z" fill="#F37423"/>
<path d="M353.055 390.053V363.062H357.975L370.434 381.502V363.057H374.919V390.048H369.91L357.54 371.615V390.057L353.055 390.053Z" fill="#F37423"/>
<path d="M406.095 389.414C402.728 390.29 399.823 390.728 397.378 390.728C392.741 390.728 389.179 389.503 386.691 387.052C384.204 384.602 382.96 381.09 382.959 376.516C382.959 371.981 384.203 368.491 386.691 366.047C389.18 363.602 392.724 362.379 397.324 362.377C400.27 362.377 403.207 362.726 406.072 363.416V367.812C402.718 366.656 399.963 366.079 397.809 366.079C394.963 366.079 392.766 366.991 391.217 368.816C389.668 370.64 388.894 373.224 388.893 376.567C388.893 379.803 389.72 382.341 391.376 384.183C393.031 386.024 395.319 386.945 398.241 386.946C398.997 386.932 399.75 386.84 400.487 386.672V377.794H406.081L406.095 389.414Z" fill="#F37423"/>
<path d="M13.6482 418.157C12.239 418.566 11.2092 418.809 10.559 418.885C9.88792 418.964 9.2129 419.003 8.53729 419.004C6.60547 419.004 5.08547 418.653 3.9773 417.952C2.86912 417.252 2.02656 416.241 1.44962 414.921C0.872672 413.601 0.583796 412.128 0.583008 410.5C0.583008 408.012 1.23838 405.972 2.54911 404.382C3.85985 402.792 5.85393 401.996 8.53137 401.996C10.2512 402.01 11.9612 402.257 13.6151 402.73V404.852C11.9828 404.291 10.8596 403.961 10.2457 403.862C9.67202 403.767 9.09164 403.717 8.5101 403.715C6.57197 403.715 5.17138 404.377 4.30832 405.701C3.44527 407.025 3.01375 408.629 3.01375 410.511C3.00462 411.623 3.19029 412.729 3.56232 413.777C3.9202 414.776 4.56159 415.649 5.40784 416.289C6.27483 416.953 7.43541 417.285 8.8896 417.285C9.23848 417.286 9.58711 417.266 9.93353 417.224C10.4174 417.148 10.8942 417.033 11.3594 416.88V411.605H13.6482V418.157Z" fill="#F37423"/>
<path d="M23.9795 404.554V402.395H26.1253V404.551L23.9795 404.554ZM23.9795 418.595V406.71H26.1253V418.595H23.9795Z" fill="#F37423"/>
<path d="M39.1125 418.595L34.7109 406.71H36.8662L40.3019 415.958L43.9385 406.71H45.9353L41.2607 418.595H39.1125Z" fill="#F37423"/>
<path d="M63.2748 418.212C61.8159 418.65 60.5666 418.869 59.527 418.869C57.663 418.869 56.1962 418.247 55.1266 417.003C54.057 415.759 53.5227 414.291 53.5235 412.598C53.5207 411.496 53.763 410.408 54.2328 409.412C54.7057 408.406 55.3233 407.658 56.0854 407.169C56.8476 406.68 57.7449 406.435 58.7774 406.436C60.163 406.436 61.2665 406.929 62.0878 407.913C62.9091 408.898 63.3217 410.372 63.3256 412.335L63.315 412.991H55.7095C55.8293 414.042 56.059 414.852 56.3987 415.421C56.7261 415.977 57.1954 416.436 57.7583 416.751C58.3242 417.066 59.0442 417.224 59.9183 417.224C60.3631 417.223 60.8069 417.184 61.2448 417.106C61.6862 417.027 62.3617 416.824 63.2712 416.499L63.2748 418.212ZM55.8111 411.371H61.1834C61.1834 410.183 60.9469 409.333 60.474 408.821C60.2429 408.57 59.9606 408.372 59.6462 408.24C59.3319 408.108 58.9929 408.045 58.6521 408.055C57.808 408.055 57.1483 408.332 56.673 408.884C56.1977 409.437 55.9104 410.266 55.8111 411.371Z" fill="#F37423"/>
<path d="M89.7811 418.595V411.831L84.3994 402.395H87.0146L91.1974 409.706L95.6983 402.395H97.8335L92.0699 411.785V418.593L89.7811 418.595Z" fill="#F37423"/>
<path d="M111.179 418.869C110.053 418.869 109.073 418.637 108.24 418.172C107.407 417.708 106.747 416.978 106.261 415.982C105.764 414.942 105.514 413.8 105.53 412.646C105.52 411.539 105.747 410.443 106.196 409.431C106.639 408.443 107.285 407.696 108.131 407.191C108.978 406.686 109.993 406.434 111.179 406.436C112.307 406.436 113.288 406.666 114.124 407.126C114.959 407.586 115.619 408.316 116.103 409.316C116.595 410.356 116.844 411.495 116.829 412.646C116.84 413.762 116.609 414.866 116.153 415.883C115.702 416.873 115.056 417.618 114.216 418.118C113.376 418.618 112.364 418.869 111.179 418.869ZM111.179 417.249C112.25 417.249 113.081 416.849 113.671 416.049C114.261 415.248 114.557 414.114 114.557 412.646C114.557 411.171 114.259 410.037 113.665 409.244C113.071 408.451 112.243 408.056 111.182 408.06C110.118 408.06 109.291 408.455 108.7 409.244C108.109 410.033 107.809 411.167 107.802 412.646C107.802 414.114 108.098 415.248 108.688 416.049C109.278 416.849 110.107 417.249 111.174 417.249H111.179Z" fill="#F37423"/>
<path d="M133.847 418.595V416.364C133.351 417.111 132.701 417.744 131.94 418.219C131.266 418.64 130.488 418.865 129.694 418.87C128.7 418.87 127.888 418.55 127.259 417.912C126.63 417.274 126.315 416.385 126.313 415.247V406.711H128.46V414.546C128.46 415.371 128.533 415.915 128.678 416.178C128.819 416.436 129.031 416.648 129.289 416.79C129.548 416.936 129.841 417.011 130.138 417.009C130.662 417.009 131.231 416.845 131.844 416.516C132.457 416.188 133.124 415.488 133.843 414.415V406.711H135.989V418.596L133.847 418.595Z" fill="#F37423"/>
<path d="M159.752 418.595V402.395H162.926L167.406 414.926L172.017 402.395H174.841V418.593H172.708V405.418L168.247 417.511H166.05L161.725 405.385V418.595H159.752Z" fill="#F37423"/>
<path d="M189.954 418.869C188.827 418.869 187.846 418.636 187.014 418.172C186.182 417.708 185.522 416.978 185.035 415.982C184.538 414.941 184.288 413.8 184.304 412.646C184.295 411.539 184.522 410.443 184.97 409.431C185.364 408.499 186.041 407.716 186.905 407.191C187.754 406.689 188.77 406.437 189.954 406.436C191.082 406.436 192.063 406.666 192.898 407.126C193.734 407.586 194.394 408.316 194.879 409.316C195.371 410.356 195.619 411.496 195.603 412.646C195.615 413.762 195.384 414.866 194.927 415.883C194.477 416.873 193.832 417.618 192.992 418.118C192.152 418.618 191.139 418.869 189.954 418.869ZM189.954 417.249C191.026 417.249 191.856 416.849 192.447 416.049C193.037 415.248 193.332 414.114 193.332 412.646C193.332 411.171 193.035 410.037 192.441 409.244C191.846 408.451 191.019 408.056 189.958 408.06C188.894 408.06 188.066 408.455 187.475 409.244C186.884 410.033 186.589 411.167 186.59 412.646C186.59 414.114 186.885 415.248 187.475 416.049C188.066 416.849 188.89 417.249 189.949 417.249H189.954Z" fill="#F37423"/>
<path d="M205.152 418.595V406.71H207.298V408.932C207.658 408.19 208.205 407.554 208.884 407.087C209.508 406.661 210.247 406.434 211.003 406.436C211.233 406.437 211.462 406.455 211.689 406.491V408.503C211.375 408.388 211.044 408.325 210.709 408.317C210.037 408.316 209.383 408.529 208.84 408.924C208.27 409.331 207.758 409.939 207.303 410.749V418.594L205.152 418.595Z" fill="#F37423"/>
<path d="M229.301 418.212C227.841 418.65 226.591 418.869 225.552 418.869C223.688 418.869 222.221 418.247 221.152 417.003C220.083 415.759 219.549 414.291 219.549 412.598C219.546 411.496 219.788 410.408 220.258 409.412C220.731 408.406 221.348 407.658 222.11 407.169C222.871 406.68 223.768 406.435 224.802 406.436C226.187 406.436 227.293 406.929 228.119 407.913C228.945 408.898 229.358 410.372 229.357 412.335L229.346 412.991H221.741C221.859 414.042 222.088 414.852 222.429 415.421C222.757 415.977 223.226 416.436 223.79 416.751C224.356 417.066 225.075 417.224 225.948 417.224C226.394 417.223 226.838 417.184 227.276 417.106C227.716 417.027 228.391 416.824 229.303 416.499L229.301 418.212ZM221.838 411.371H227.211C227.211 410.183 226.975 409.333 226.502 408.821C226.271 408.571 225.988 408.372 225.674 408.24C225.36 408.108 225.021 408.045 224.68 408.055C223.834 408.055 223.174 408.332 222.7 408.884C222.225 409.437 221.938 410.266 221.838 411.371Z" fill="#F37423"/>
<path d="M252.321 418.595V402.395H261.473V404.113H254.609V409.541H260.383V411.238H254.609V418.593L252.321 418.595Z" fill="#F37423"/>
<path d="M270.553 418.595V406.71H272.7V408.932C273.06 408.19 273.606 407.554 274.285 407.087C274.909 406.661 275.648 406.434 276.404 406.436C276.634 406.437 276.863 406.455 277.091 406.491V408.503C276.776 408.388 276.445 408.325 276.111 408.317C275.439 408.316 274.784 408.528 274.241 408.924C273.672 409.331 273.159 409.939 272.704 410.749V418.594L270.553 418.595Z" fill="#F37423"/>
<path d="M294.702 418.212C293.243 418.65 291.993 418.869 290.954 418.869C289.09 418.869 287.623 418.247 286.553 417.003C285.484 415.759 284.949 414.291 284.95 412.598C284.947 411.496 285.19 410.408 285.66 409.412C286.132 408.406 286.75 407.658 287.511 407.169C288.272 406.68 289.17 406.435 290.203 406.436C291.589 406.436 292.692 406.929 293.513 407.913C294.335 408.898 294.748 410.372 294.752 412.335L294.741 412.991H287.14C287.259 414.042 287.489 414.852 287.829 415.421C288.156 415.977 288.626 416.436 289.189 416.751C289.755 417.066 290.475 417.224 291.349 417.224C291.793 417.223 292.237 417.184 292.675 417.106C293.116 417.027 293.791 416.824 294.702 416.499V418.212ZM287.238 411.371H292.61C292.61 410.183 292.374 409.333 291.901 408.821C291.669 408.571 291.387 408.372 291.072 408.24C290.758 408.108 290.419 408.045 290.078 408.055C289.234 408.055 288.574 408.332 288.099 408.884C287.623 409.437 287.336 410.266 287.238 411.371Z" fill="#F37423"/>
<path d="M313.338 418.212C311.879 418.65 310.629 418.869 309.59 418.869C307.724 418.869 306.257 418.247 305.189 417.003C304.121 415.759 303.587 414.291 303.585 412.598C303.582 411.496 303.825 410.408 304.294 409.412C304.767 408.406 305.385 407.658 306.147 407.169C306.909 406.68 307.807 406.435 308.839 406.436C310.225 406.436 311.33 406.929 312.155 407.913C312.981 408.898 313.395 410.373 313.398 412.339L313.387 412.994H305.782C305.901 414.046 306.13 414.856 306.471 415.425C306.798 415.981 307.268 416.44 307.831 416.754C308.396 417.07 309.116 417.228 309.991 417.228C310.435 417.227 310.879 417.187 311.317 417.109C311.758 417.03 312.433 416.828 313.344 416.502L313.338 418.212ZM305.874 411.371H311.246C311.246 410.183 311.01 409.333 310.537 408.821C310.306 408.57 310.023 408.372 309.709 408.24C309.395 408.108 309.056 408.045 308.715 408.055C307.87 408.055 307.21 408.332 306.736 408.884C306.261 409.437 305.974 410.266 305.874 411.371Z" fill="#F37423"/>
<path d="M340.183 418.595V404.116H334.462V402.395H348.192V404.113H342.471V418.593L340.183 418.595Z" fill="#F37423"/>
<path d="M356.736 404.554V402.395H358.883V404.551L356.736 404.554ZM356.736 418.595V406.71H358.883V418.595H356.736Z" fill="#F37423"/>
<path d="M369.392 418.595V406.71H371.537V408.93C371.974 408.237 372.542 407.637 373.21 407.164C373.898 406.676 374.723 406.421 375.565 406.436C376.027 406.426 376.486 406.512 376.913 406.687C377.302 406.858 377.656 407.098 377.957 407.397C378.272 407.704 378.551 408.214 378.794 408.929C379.219 408.226 379.782 407.618 380.449 407.14C381.122 406.662 381.93 406.411 382.755 406.423C383.582 406.418 384.385 406.697 385.032 407.213C385.706 407.738 386.044 408.646 386.045 409.935V418.589H383.898V410.274C383.898 409.485 383.732 408.948 383.401 408.663C383.098 408.388 382.703 408.236 382.294 408.235C381.731 408.25 381.183 408.413 380.705 408.709C380.153 409.025 379.514 409.659 378.788 410.611V418.584H376.65V410.269C376.65 409.473 376.483 408.932 376.149 408.647C375.837 408.371 375.433 408.219 375.016 408.22C374.461 408.232 373.921 408.396 373.453 408.694C372.925 409.009 372.288 409.649 371.54 410.613V418.586L369.392 418.595Z" fill="#F37423"/>
<path d="M405.497 418.212C404.037 418.65 402.787 418.869 401.748 418.869C399.884 418.869 398.417 418.247 397.347 417.003C396.278 415.759 395.743 414.291 395.744 412.598C395.741 411.496 395.984 410.408 396.454 409.412C396.926 408.406 397.544 407.658 398.305 407.169C399.066 406.68 399.964 406.435 400.997 406.436C402.383 406.436 403.488 406.929 404.313 407.913C405.138 408.898 405.551 410.372 405.552 412.335L405.54 412.991H397.93C398.048 414.042 398.278 414.852 398.618 415.421C398.946 415.977 399.415 416.436 399.978 416.751C400.544 417.066 401.264 417.224 402.138 417.224C402.583 417.223 403.026 417.184 403.464 417.106C403.905 417.027 404.581 416.824 405.492 416.499L405.497 418.212ZM398.033 411.371H403.404C403.404 410.183 403.168 409.333 402.695 408.821C402.463 408.571 402.181 408.372 401.866 408.24C401.552 408.108 401.213 408.045 400.872 408.055C400.028 408.055 399.368 408.332 398.893 408.884C398.417 409.437 398.13 410.266 398.032 411.371H398.033Z" fill="#F37423"/>
</g>
<defs>
<clipPath id="clip0_806_11225">
<rect width="418.208" height="420" fill="white"/>
</clipPath>
</defs>
</svg>
