<svg width="414" height="352" viewBox="0 0 414 352" fill="none" xmlns="http://www.w3.org/2000/svg">
<path d="M388.595 277.191V269.133H385.589V268.055H392.82V269.133H389.801V277.191H388.595Z" fill="#F47423"/>
<path d="M394.021 277.191V268.055H395.838L397.997 274.524C398.197 275.126 398.341 275.577 398.433 275.877C398.536 275.544 398.698 275.055 398.918 274.411L401.103 268.054H402.727V277.19H401.563V269.546L398.912 277.19H397.823L395.185 269.412V277.19L394.021 277.191Z" fill="#F47423"/>
<path d="M128.481 36.5492L59.9146 122.169L71.9173 137.289" fill="#F47423"/>
<path d="M199.431 300.332L211.507 315.547L326.557 254.805" fill="#F47423"/>
<path d="M288.364 255.621C281.327 253.6 274.51 250.867 267.913 247.715C264.62 246.134 261.375 244.452 258.179 242.668L255.795 241.317L253.432 239.925C253.035 239.694 252.648 239.454 252.261 239.223L251.09 238.511C250.306 238.04 249.532 237.548 248.759 237.056L247.598 236.323L246.448 235.579L245.298 234.825L244.723 234.448L244.158 234.061L241.879 232.532L239.621 230.972C238.868 230.449 238.126 229.915 237.383 229.391C237.007 229.129 236.631 228.867 236.265 228.595L235.156 227.779C234.414 227.234 233.672 226.7 232.95 226.145C232.229 225.59 231.487 225.046 230.755 224.491C224.931 220.04 219.271 215.374 213.775 210.491C208.276 205.622 202.937 200.565 197.758 195.319C195.165 192.701 192.614 190.038 190.104 187.329C188.839 185.979 187.616 184.607 186.372 183.235C185.149 181.853 183.904 180.481 182.702 179.078C181.479 177.686 180.297 176.262 179.095 174.858C177.913 173.434 176.722 172.01 175.561 170.565C174.4 169.12 173.24 167.665 172.09 166.22C170.95 164.754 169.811 163.288 168.692 161.801C167.573 160.314 166.465 158.817 165.367 157.32C164.28 155.801 163.182 154.294 162.126 152.765C161.049 151.236 160.014 149.686 158.958 148.147L157.411 145.812L157.024 145.226L156.647 144.639L155.884 143.456C153.866 140.304 151.89 137.111 150.008 133.854C149.768 133.446 149.527 133.048 149.297 132.64L148.597 131.415C148.137 130.598 147.656 129.781 147.217 128.954L145.857 126.472L144.53 123.97C142.784 120.609 141.1 117.206 139.511 113.75L138.34 111.143L138.047 110.494L137.765 109.834L137.2 108.515L136.636 107.195L136.092 105.866C135.737 104.976 135.371 104.096 135.026 103.196L134.503 101.855C134.325 101.405 134.158 100.955 133.991 100.505C133.667 99.5935 133.322 98.693 132.997 97.7821L132.056 95.0387L131.157 92.2639L130.31 89.4682C130.039 88.5258 129.777 87.5834 129.516 86.641C129.254 85.6986 129.024 84.7353 128.773 83.7825C128.543 82.8191 128.313 81.8558 128.083 80.903C127.192 76.9934 126.501 73.0407 126.013 69.0603L125.836 67.5421C125.804 67.2908 125.783 67.0395 125.752 66.7777L125.679 66.0133C125.626 65.5002 125.585 64.9976 125.543 64.4846L125.438 62.9453C125.365 61.9192 125.334 60.8826 125.292 59.8459C125.271 59.3329 125.271 58.7989 125.26 58.2753C125.25 57.7518 125.25 57.2282 125.25 56.7047L125.281 55.1236L125.292 54.3278L125.323 53.532L125.396 51.9404L125.522 50.3383L125.585 49.5321C125.605 49.2598 125.637 48.9981 125.668 48.7258L125.846 47.1028C125.919 46.5583 125.992 46.0139 126.076 45.4798L126.191 44.6631L126.337 43.8464C126.431 43.3019 126.526 42.7574 126.63 42.2129L126.975 40.569C127.08 40.0245 127.226 39.4695 127.362 38.925L127.571 38.0978C127.602 37.9617 127.644 37.8256 127.676 37.6895L127.791 37.2811L128.272 35.6372C128.449 35.0927 128.627 34.5377 128.815 33.9933C128.909 33.721 128.993 33.4488 129.098 33.166L129.411 32.3493C129.62 31.8048 129.819 31.2499 130.059 30.7158L130.76 29.0824L131.534 27.4594L131.732 27.051L131.941 26.6531L132.37 25.8469L132.799 25.0511L133.259 24.2658L133.719 23.4804L133.949 23.0826L134.2 22.6951C134.534 22.1821 134.869 21.6585 135.214 21.1454C135.559 20.6324 135.935 20.1298 136.301 19.6271C136.479 19.3758 136.678 19.135 136.866 18.8837L137.451 18.1508C139.042 16.1823 140.782 14.3408 142.658 12.6431C143.139 12.2242 143.62 11.8054 144.111 11.397C144.603 10.9886 145.115 10.6012 145.617 10.2138L145.993 9.92061L146.38 9.6379L147.164 9.08294C147.426 8.90493 147.687 8.71646 147.949 8.53846L148.754 8.02538L149.559 7.5123L149.757 7.38666L149.966 7.27147L150.374 7.03064L151.2 6.55945C151.472 6.40239 151.754 6.24532 152.037 6.1092C152.601 5.81601 153.155 5.5333 153.72 5.25059C154.284 4.98881 154.859 4.72704 155.435 4.47574C157.705 3.50254 160.038 2.68394 162.419 2.02554C164.731 1.41248 167.077 0.936965 169.445 0.601497L171.191 0.381611C171.337 0.360669 171.483 0.339727 171.63 0.329256L172.058 0.28737L172.926 0.214072L173.794 0.140781C174.087 0.119839 174.369 0.109365 174.651 0.0988945L176.366 0.0255969L178.07 0.00465374C178.353 0.00465374 178.635 -0.00581718 178.917 0.00465374L179.754 0.0255969C180.318 0.0465387 180.883 0.0465387 181.437 0.0779514L183.099 0.172192C183.653 0.203605 184.197 0.255954 184.751 0.297838C185.305 0.339722 185.849 0.392076 186.393 0.454902L188.013 0.653852L188.818 0.758561L189.613 0.884207L191.213 1.13551C191.746 1.22975 192.269 1.324 192.791 1.41823C193.847 1.60671 194.882 1.83707 195.918 2.05696C196.44 2.16167 196.942 2.28732 197.455 2.41297L198.991 2.78992C199.504 2.91557 199.995 3.06217 200.507 3.19829C201.02 3.33441 201.522 3.47053 202.013 3.61713L203.498 4.06737C203.989 4.21396 204.491 4.36056 204.982 4.52809L206.446 5.00975C206.687 5.09352 206.937 5.16682 207.178 5.25059L207.899 5.50189C208.861 5.84743 209.834 6.1825 210.775 6.55945L212.197 7.10393L213.608 7.66937C217.361 9.19812 221 10.8839 224.534 12.6954C231.612 16.3183 238.293 20.4125 244.671 24.8417C251.049 29.2709 257.092 34.0351 262.884 39.0402C268.676 44.0453 274.176 49.3227 279.445 54.7885C289.9 65.7013 299.466 77.4348 308.051 89.8765C316.603 102.225 324.179 115.224 330.708 128.755C332.339 132.127 333.893 135.533 335.371 138.975L335.925 140.263L336.197 140.912L336.469 141.561L337.535 144.158L338.57 146.765C338.748 147.194 338.915 147.634 339.082 148.074L339.584 149.383C339.919 150.252 340.243 151.131 340.567 152.011L341.048 153.33L341.518 154.65C341.822 155.529 342.135 156.409 342.439 157.299L343.327 159.958C343.892 161.738 344.467 163.518 344.99 165.309L345.387 166.649C345.523 167.1 345.638 167.55 345.774 168L346.15 169.351L346.338 170.021L346.516 170.702C346.757 171.602 346.997 172.503 347.227 173.413L347.896 176.136L348.524 178.869C348.628 179.319 348.722 179.78 348.816 180.241L349.099 181.612L349.245 182.303C349.287 182.534 349.329 182.764 349.381 182.994L349.642 184.377C349.726 184.837 349.82 185.298 349.893 185.759L350.134 187.141C350.207 187.602 350.301 188.062 350.364 188.523L350.573 189.916L350.782 191.298L350.96 192.69L351.137 194.083L351.284 195.476L351.43 196.868L351.556 198.271L351.681 199.675L351.775 201.078C351.807 201.549 351.838 202.01 351.859 202.481L351.922 203.884C352.071 207.636 352.012 211.394 351.744 215.14C351.463 218.897 350.904 222.628 350.071 226.302L349.726 227.674L349.548 228.354C349.485 228.585 349.423 228.805 349.35 229.035L348.952 230.396L348.513 231.747L348.294 232.417L348.043 233.087L347.541 234.417L346.987 235.726L346.851 236.051L346.778 236.218L346.704 236.375L346.401 237.014L346.098 237.653L345.941 237.977C345.889 238.082 345.826 238.187 345.774 238.291L345.115 239.548C345.011 239.757 344.885 239.956 344.76 240.166L344.404 240.783L344.049 241.391L343.662 241.988L343.275 242.584C343.15 242.783 343.024 242.982 342.878 243.171L342.052 244.323L341.947 244.469L341.832 244.605L341.613 244.888L341.173 245.443C341.027 245.631 340.881 245.82 340.724 245.998L340.253 246.532L339.783 247.066C339.699 247.15 339.626 247.244 339.542 247.328L339.292 247.579L338.298 248.595L337.253 249.558L336.991 249.799C336.906 249.881 336.815 249.958 336.719 250.029L336.176 250.479L335.632 250.93C335.444 251.076 335.256 251.212 335.068 251.359L334.503 251.788C334.315 251.924 334.127 252.071 333.928 252.207L332.746 252.992L332.6 253.087L332.443 253.181L332.14 253.359L331.534 253.715C331.335 253.83 331.136 253.966 330.927 254.071L330.3 254.406L329.673 254.731C329.568 254.783 329.463 254.846 329.359 254.888L329.035 255.034L327.759 255.621L326.452 256.144C326.024 256.333 325.574 256.469 325.135 256.626L324.476 256.856C324.361 256.898 324.257 256.94 324.142 256.971L323.807 257.066L322.458 257.464C322.009 257.579 321.549 257.683 321.099 257.799C320.869 257.851 320.65 257.914 320.42 257.956L319.73 258.092C319.27 258.176 318.82 258.28 318.36 258.354C317.44 258.49 316.53 258.647 315.6 258.72C313.76 258.929 311.909 258.992 310.058 259.024L308.678 259.003L307.988 258.992L307.298 258.961L305.918 258.888C305.688 258.877 305.458 258.856 305.228 258.835L304.538 258.772L303.848 258.71C303.618 258.689 303.388 258.678 303.158 258.647L301.788 258.479L301.109 258.395C300.879 258.364 300.659 258.333 300.429 258.291L299.07 258.081C298.61 258.018 298.16 257.935 297.711 257.851L296.362 257.6C296.132 257.558 295.912 257.516 295.693 257.464L295.024 257.317L293.675 257.024C292.786 256.814 291.897 256.594 291.009 256.375L288.364 255.621ZM288.792 254.123C292.253 255.126 295.773 255.913 299.331 256.479C302.878 257.047 306.466 257.324 310.058 257.306C311.848 257.282 313.635 257.163 315.412 256.95C316.3 256.867 317.178 256.699 318.057 256.563C318.496 256.479 318.935 256.385 319.364 256.291L320.022 256.155C320.242 256.102 320.451 256.039 320.671 255.987C321.099 255.872 321.538 255.767 321.967 255.652L323.243 255.254L323.556 255.16C323.661 255.129 323.765 255.087 323.87 255.045L324.497 254.814C324.915 254.657 325.334 254.521 325.741 254.333L326.965 253.809L328.167 253.223L328.47 253.076C328.575 253.024 328.669 252.972 328.763 252.919L329.348 252.595L329.934 252.27C330.133 252.165 330.31 252.04 330.499 251.924L331.063 251.568L331.345 251.39L331.481 251.307L331.617 251.212L332.705 250.448C332.893 250.322 333.06 250.186 333.238 250.05L333.761 249.642C333.938 249.506 334.116 249.37 334.283 249.233L334.785 248.794L335.287 248.354L335.538 248.134L335.779 247.904L336.73 246.972L337.629 245.998L337.859 245.757L338.079 245.506L338.507 244.993L338.936 244.48C339.072 244.312 339.208 244.124 339.344 243.946L339.741 243.412L339.94 243.15L340.044 243.014L340.138 242.878L340.891 241.778C341.017 241.6 341.132 241.401 341.247 241.213L341.592 240.647L341.937 240.082L342.261 239.495L342.585 238.909C342.689 238.71 342.804 238.522 342.899 238.323L343.484 237.119C343.536 237.014 343.578 236.92 343.63 236.815L343.766 236.511L344.038 235.893L344.31 235.276L344.373 235.119L344.435 234.962L344.561 234.647L345.042 233.401L345.471 232.134L345.68 231.496L345.868 230.857L346.244 229.569L346.579 228.271C346.631 228.051 346.694 227.841 346.746 227.621L346.882 226.962L347.164 225.642C347.824 222.11 348.219 218.533 348.346 214.941C348.461 211.34 348.356 207.734 348.032 204.146C347.719 200.554 347.227 196.973 346.579 193.413C345.931 189.853 345.136 186.335 344.216 182.827C343.296 179.319 342.261 175.864 341.121 172.429C339.982 168.995 338.737 165.592 337.41 162.231L336.395 159.707C336.061 158.869 335.695 158.042 335.35 157.205C335.172 156.786 335.005 156.367 334.817 155.958L334.273 154.712C333.907 153.885 333.552 153.058 333.165 152.231L332.6 150.995C332.412 150.587 332.224 150.168 332.036 149.76L330.875 147.299L329.683 144.859L329.38 144.252L329.077 143.645L328.46 142.43C326.818 139.205 325.114 136.001 323.337 132.849C321.559 129.697 319.719 126.577 317.816 123.488C315.913 120.399 313.948 117.363 311.93 114.347C311.418 113.593 310.926 112.839 310.403 112.096L308.856 109.855C307.811 108.379 306.775 106.892 305.699 105.426C303.566 102.494 301.401 99.5935 299.164 96.7454C290.245 85.3243 280.517 74.5604 270.056 64.5369C264.829 59.5318 259.413 54.7257 253.798 50.1708C250.996 47.8882 248.142 45.6718 245.235 43.5218L243.05 41.9197L240.844 40.3491L238.617 38.8099C238.251 38.5481 237.875 38.2968 237.498 38.0455L236.369 37.2916C230.357 33.3022 224.147 29.6164 217.706 26.4123C211.266 23.2082 204.595 20.4648 197.726 18.4649C194.301 17.4655 190.816 16.6822 187.292 16.1194C183.79 15.5574 180.247 15.3017 176.701 15.355L175.383 15.4074C175.164 15.4178 174.944 15.4178 174.725 15.4388L174.066 15.4911L173.407 15.5435L173.073 15.5644L172.749 15.5958L171.442 15.7424C169.702 15.9694 167.978 16.2981 166.277 16.7267C164.591 17.1743 162.935 17.7305 161.321 18.3916L160.129 18.9151L158.958 19.491C158.759 19.5853 158.571 19.69 158.383 19.7947L157.808 20.1088L157.526 20.2659L157.379 20.3392L157.243 20.4229L156.689 20.7685C155.21 21.6744 153.808 22.7005 152.497 23.8365C151.187 24.9803 149.967 26.223 148.848 27.5536L148.429 28.0562C148.294 28.2238 148.147 28.3913 148.022 28.5693L147.238 29.6164C146.987 29.9724 146.746 30.3389 146.495 30.6949L146.307 30.9672L146.129 31.2499L145.784 31.8048L145.439 32.3598L145.115 32.9357L144.791 33.5116L144.634 33.7943L144.488 34.0875L143.892 35.2602L143.348 36.4539C143.16 36.8518 143.003 37.2602 142.836 37.6685L142.585 38.2759C142.501 38.4748 142.428 38.6842 142.355 38.8936C142.209 39.3125 142.052 39.7208 141.905 40.1397L141.498 41.3962L141.393 41.7103L141.299 42.0244L141.121 42.6632C141.006 43.0925 140.87 43.5113 140.776 43.9406L140.463 45.2285C140.368 45.6578 140.274 46.0976 140.191 46.5269L140.055 47.1761L139.94 47.8358L139.71 49.1447L139.522 50.464L139.427 51.1237L139.354 51.7833L139.208 53.1131L139.103 54.4429L139.051 55.1131L139.02 55.7832L138.946 57.1235C138.814 60.7025 138.891 64.2862 139.176 67.8562C139.459 71.4372 139.919 75.0078 140.546 78.547C141.79 85.6358 143.63 92.6408 145.868 99.5098C146.987 102.944 148.21 106.347 149.506 109.729C150.824 113.101 152.214 116.441 153.678 119.75L154.797 122.221L155.947 124.682C156.323 125.509 156.731 126.315 157.128 127.132L157.724 128.357C157.923 128.766 158.132 129.163 158.331 129.572C159.941 132.818 161.645 136.011 163.402 139.184C170.427 151.854 178.468 163.979 187.302 175.476C188.4 176.921 189.529 178.335 190.648 179.759C191.788 181.172 192.917 182.586 194.077 183.979C195.238 185.371 196.409 186.753 197.58 188.146C198.772 189.518 199.953 190.889 201.156 192.24C202.358 193.591 203.581 194.931 204.805 196.272L206.655 198.261L207.115 198.753L207.586 199.245L208.527 200.23L209.468 201.214C209.781 201.538 210.105 201.863 210.419 202.188C211.057 202.837 211.684 203.486 212.322 204.125L214.256 206.041C214.894 206.68 215.553 207.308 216.201 207.936C221.418 212.973 226.83 217.789 232.438 222.386C235.251 224.669 238.108 226.895 241.011 229.066C243.918 231.234 246.887 233.297 249.909 235.297C250.662 235.799 251.414 236.302 252.188 236.783L253.338 237.516C253.725 237.757 254.101 238.009 254.488 238.239L256.799 239.653L259.141 241.035C262.278 242.846 265.456 244.563 268.708 246.155C275.133 249.392 281.86 252.123 288.792 254.123Z" fill="#F47423"/>
<path d="M142.031 22.1925C134.367 24.0249 126.735 25.8259 119.113 27.6793C111.491 29.5326 103.911 31.4279 96.3622 33.4174C88.8134 35.4068 81.296 37.4905 73.8518 39.7523C71.9908 40.3072 70.1402 40.8936 68.2792 41.48L65.5085 42.3595L62.7378 43.2495C59.0471 44.4432 55.3738 45.6753 51.7179 46.9458C48.069 48.2232 44.4305 49.553 40.8444 50.9875C37.2582 52.4221 33.7138 53.9718 30.274 55.7099C26.8342 57.4481 23.4885 59.3747 20.3728 61.6155C17.2571 63.8563 14.361 66.4007 11.9876 69.3535C11.3917 70.097 10.8376 70.8614 10.3252 71.6467C9.80473 72.4298 9.33333 73.2447 8.91377 74.0864C8.07069 75.7529 7.45192 77.5239 7.07363 79.3533C6.70135 81.1711 6.59918 83.0341 6.77043 84.8819C6.94365 86.7384 7.35478 88.5649 7.99369 90.3163C8.30843 91.1978 8.67143 92.0612 9.08105 92.9026C9.48881 93.7508 9.93839 94.578 10.4298 95.3842L10.6075 95.6879L10.7957 95.9916C10.9212 96.1905 11.0467 96.3894 11.1826 96.5884C11.4544 96.9758 11.7053 97.3737 11.9876 97.7611C12.5313 98.536 13.1273 99.2794 13.7232 100.023C14.941 101.49 16.2321 102.895 17.5917 104.232C18.9509 105.572 20.3833 106.85 21.847 108.085C24.785 110.546 27.9111 112.818 31.1 114.975C32.6996 116.054 34.3202 117.111 35.9617 118.127C37.6032 119.143 39.2551 120.158 40.9175 121.132C42.5799 122.106 44.2632 123.08 45.9466 124.022C46.783 124.504 47.6403 124.965 48.4872 125.436C49.3341 125.907 50.181 126.368 51.0383 126.828C54.4467 128.671 57.897 130.455 61.3891 132.179C68.3628 135.624 75.462 138.828 82.603 141.938C89.7439 145.048 96.9581 148.042 104.172 151.037C118.611 157.006 133.165 162.775 147.771 168.461L169.717 176.995L175.206 179.141L180.695 181.298C184.354 182.743 188.014 184.188 191.663 185.696L191.432 186.45C189.509 186.031 187.585 185.598 185.661 185.151C183.737 184.705 181.821 184.244 179.911 183.769C176.084 182.837 172.268 181.843 168.462 180.837C160.851 178.806 153.277 176.639 145.743 174.335C138.208 172.031 130.711 169.595 123.253 167.026C119.531 165.738 115.816 164.412 112.108 163.047L109.337 162.011C108.407 161.665 107.487 161.309 106.567 160.964C104.716 160.266 102.876 159.55 101.046 158.817C86.3095 153 71.9323 146.307 57.9911 138.776C54.499 136.891 51.0383 134.933 47.609 132.902C47.1803 132.65 46.7516 132.388 46.3334 132.137L45.0578 131.362L43.7928 130.577C43.3745 130.315 42.9459 130.053 42.5277 129.781C40.8444 128.713 39.1785 127.614 37.53 126.483L36.2963 125.635L35.073 124.766C34.6652 124.483 34.2575 124.179 33.8602 123.886C33.4629 123.593 33.0551 123.3 32.6474 122.996C31.0373 121.802 29.455 120.574 27.9006 119.31C24.77 116.791 21.7788 114.103 18.9404 111.258C16.0966 108.4 13.4305 105.342 11.078 102.033C10.503 101.196 9.92793 100.358 9.39471 99.4888C9.12287 99.0595 8.87195 98.6198 8.61056 98.18C8.4851 97.9601 8.35964 97.7297 8.23417 97.5098L8.04597 97.1748L7.86824 96.8397C6.90175 95.0274 6.10041 93.1314 5.47396 91.1749C4.84186 89.2018 4.45215 87.1589 4.31342 85.0913C4.17152 83.0147 4.31932 80.9283 4.75254 78.8925C5.18869 76.8695 5.86984 74.9074 6.78088 73.0498C7.68682 71.2135 8.75991 69.4648 9.98649 67.8258C11.2085 66.2045 12.5357 64.6655 13.9595 63.2186C14.315 62.8521 14.6705 62.5066 15.0364 62.1506C15.4024 61.7946 15.7683 61.449 16.1342 61.114C16.5002 60.7789 16.8766 60.4334 17.2529 60.0983C17.6293 59.7632 18.0162 59.4386 18.403 59.114C21.4877 56.5334 24.7356 54.155 28.1265 51.9938C29.8098 50.9048 31.521 49.8612 33.2601 48.863C34.1278 48.3604 34.9956 47.8683 35.8739 47.3866C36.7521 46.9049 37.6304 46.4338 38.5191 45.973C42.0634 44.1197 45.6914 42.4234 49.3613 40.8737C53.0311 39.324 56.7532 37.9 60.5171 36.612L61.9286 36.1304L63.3401 35.6696C64.281 35.3555 65.2325 35.0623 66.1839 34.7691C68.0763 34.1828 69.9896 33.6278 71.8925 33.0833C79.5249 30.9263 87.22 29.066 94.9779 27.5023C102.736 25.9387 110.525 24.6333 118.346 23.5862C122.256 23.0731 126.177 22.6124 130.108 22.2459C132.073 22.0574 134.039 21.8969 136.005 21.7643C137.97 21.6281 139.946 21.513 141.922 21.4501L142.031 22.1925Z" fill="#F47423"/>
<path d="M407.23 224.92C401.71 218.24 393.325 214.491 385.211 212.062C376.199 209.371 366.758 208.135 357.379 207.622C354.169 207.444 350.96 207.36 347.739 207.392C346.819 207.402 344.979 207.821 344.111 207.475C354.692 211.685 363.36 219.59 369.79 228.878C372.958 233.454 375.718 238.427 377.819 243.59C379.848 248.574 380.632 255.097 385.588 258.176C389.289 260.469 394.109 261.128 398.364 260.406C402.18 259.757 405.61 257.715 408.328 255.003C416.19 247.16 413.817 232.909 407.23 224.92ZM407.784 243.809L393.9 220.533C393.889 220.533 408.663 229.203 407.784 243.809Z" fill="#F89520"/>
<path d="M342.324 196.355C338.518 185.214 324.403 179.843 313.718 183.612C303.848 187.099 297.617 197.015 289.326 202.638C281.254 208.114 272.336 212.501 262.79 214.669C259.277 215.465 247.661 218.187 244.336 215.13C244.838 215.601 245.351 216.062 245.873 216.522C264.641 233.213 289.002 242.019 313.77 235.16C332.324 230.02 349.695 217.936 342.324 196.355ZM316.29 228.354L338.915 203.297C334.461 222.407 316.29 228.354 316.29 228.354Z" fill="#F89520"/>
<path d="M269.638 177.413C268.164 176.461 266.418 175.947 264.609 176.199C262.602 176.471 260.448 177.518 258.953 179.225C256.946 181.507 257.155 184.9 256.653 187.696C256.123 190.624 255.318 193.495 254.248 196.272C252.105 201.894 248.822 207.151 244.336 210.847C244.702 210.543 245.581 210.481 246.009 210.344C247.483 209.873 248.947 209.35 250.401 208.784C254.645 207.13 258.869 205.098 262.759 202.397C266.261 199.968 269.785 196.826 271.729 192.659C274.05 187.675 273.904 180.179 269.638 177.413ZM266 196.868L270.349 183.12C272.012 190.303 266 196.868 266 196.868Z" fill="#F89520"/>
<path d="M390.188 148.639C388.034 137.739 374.871 131.802 364.593 132.849C355.989 133.729 348.21 138.64 341.686 144.043C334.44 150.053 328.178 157.236 322.542 164.754C320.618 167.33 318.757 169.958 317.001 172.649C316.499 173.413 315.819 175.194 315.056 175.717C324.424 169.236 335.8 166.408 347.091 166.21C352.654 166.115 358.32 166.576 363.768 167.686C369.037 168.764 374.881 171.738 380.193 169.309C384.155 167.497 387.376 163.854 389.143 159.906C390.732 156.398 390.941 152.419 390.188 148.639ZM353.532 141.519C353.532 141.519 368.932 134.022 380.58 142.88L353.532 141.519Z" fill="#F89520"/>
<path d="M367.28 176.649C363.182 174.283 358.362 174.942 356.522 178.136C354.682 181.33 356.511 185.832 360.62 188.209C364.729 190.586 369.539 189.916 371.379 186.722C373.219 183.528 371.379 179.027 367.28 176.649ZM368.943 185.183C368.397 185.183 367.863 185.021 367.409 184.717C366.955 184.413 366.602 183.981 366.393 183.476C366.184 182.971 366.129 182.415 366.236 181.879C366.342 181.343 366.605 180.85 366.991 180.464C367.377 180.077 367.869 179.814 368.404 179.707C368.94 179.601 369.495 179.655 369.999 179.865C370.503 180.074 370.934 180.428 371.238 180.883C371.541 181.337 371.703 181.872 371.703 182.418C371.703 182.782 371.632 183.141 371.494 183.477C371.355 183.812 371.152 184.117 370.895 184.374C370.639 184.631 370.335 184.834 370 184.973C369.664 185.112 369.305 185.183 368.943 185.183Z" fill="#F89520"/>
<path d="M288.06 169.958C283.962 167.592 279.142 168.251 277.302 171.445C275.462 174.639 277.302 179.141 281.4 181.518C285.499 183.895 290.319 183.225 292.159 180.031C293.999 176.838 292.159 172.335 288.06 169.958ZM289.712 178.502C289.167 178.502 288.633 178.34 288.179 178.037C287.725 177.733 287.371 177.301 287.162 176.796C286.953 176.291 286.899 175.735 287.005 175.199C287.112 174.663 287.375 174.17 287.761 173.783C288.147 173.397 288.639 173.134 289.174 173.027C289.709 172.92 290.264 172.975 290.769 173.184C291.273 173.393 291.704 173.748 292.007 174.202C292.311 174.657 292.473 175.191 292.473 175.738C292.473 176.101 292.402 176.461 292.264 176.797C292.125 177.132 291.922 177.437 291.665 177.694C291.409 177.951 291.105 178.155 290.769 178.294C290.434 178.433 290.075 178.504 289.712 178.503V178.502Z" fill="#F89520"/>
<path d="M246.94 238.762C246.94 238.762 164.573 246.029 139.02 232.878C138.86 233.299 138.679 233.711 138.476 234.113L195.74 296.353L294.187 261.956C294.198 261.966 264.965 252.94 246.94 238.762Z" fill="#F89520"/>
<path d="M117.701 320.781C117.221 321.797 116.719 322.823 116.175 323.828C115.631 324.833 115.056 325.849 114.429 326.854C114.126 327.346 113.812 327.828 113.478 328.32C120.671 328.949 137.556 329.577 153.281 323.923C153.281 323.923 170.375 318.739 184.887 306.907L184.898 306.918L132.224 240.616C130.081 241.772 127.684 242.377 125.25 242.375C124.957 242.375 124.675 242.364 124.393 242.354V242.542L124.414 244.155L124.456 247.38L124.508 253.841L124.518 260.291L124.508 263.516L124.477 266.741L124.424 269.955L124.362 273.17L124.194 279.599C124.163 280.667 124.152 281.746 124.152 282.824C124.152 283.903 124.173 284.981 124.205 286.06C124.267 288.217 124.362 290.374 124.382 292.531C124.418 294.674 124.327 296.817 124.111 298.949C123.883 301.079 123.52 303.191 123.023 305.274C122.034 309.524 120.706 313.687 119.05 317.724C118.841 318.237 118.622 318.75 118.402 319.263C118.182 319.776 117.942 320.28 117.701 320.781Z" fill="#F89520"/>
<path d="M47.9852 281.149C48.2884 280.678 48.5916 280.217 48.9053 279.756C49.2189 279.295 49.5326 278.845 49.8463 278.395C52.3519 274.876 55.1387 271.567 58.1792 268.5C59.6609 266.985 61.2396 265.569 62.905 264.259C64.5792 262.955 66.332 261.756 68.1535 260.668C69.9728 259.558 71.8338 258.511 73.674 257.432C74.594 256.888 75.5036 256.343 76.4133 255.778C77.3229 255.212 78.2116 254.647 79.1003 254.061L84.4116 250.542L87.0777 248.794L89.7543 247.066L92.4413 245.349L95.1387 243.652L100.565 240.281L106.012 236.941L108.752 235.286L110.121 234.459L111.491 233.642C111.575 233.59 111.648 233.548 111.731 233.496C111.089 232.017 110.693 230.443 110.56 228.836H110.33L108.752 228.826L107.173 228.815L104.015 228.784L97.7212 228.69L91.4271 228.553L88.2801 228.47L85.133 228.365L81.986 228.239L78.8493 228.093L72.5866 227.768C71.5411 227.716 70.4955 227.674 69.4396 227.653C68.3836 227.632 67.3485 227.621 66.282 227.632C64.1805 227.642 62.0685 227.684 59.967 227.653C57.8762 227.636 55.7883 227.493 53.7147 227.224C51.6441 226.942 49.5939 226.526 47.5775 225.978C43.4635 224.884 39.4457 223.455 35.5643 221.705C35.0624 221.486 34.5815 221.245 34.0796 221.014C33.5778 220.784 33.0968 220.533 32.6054 220.281C31.6226 219.779 30.6503 219.245 29.6884 218.679C28.7265 218.114 27.7646 217.507 26.8027 216.857C25.9558 216.281 25.1089 215.685 24.2934 215.004C23.6347 219.454 23.2479 224.229 23.3629 229.077C23.3629 229.077 21.9619 260.165 43.5522 289.536C43.8867 288.698 44.2527 287.892 44.629 287.117C45.1414 286.06 45.685 285.044 46.2392 284.049C46.7933 283.055 47.3893 282.091 47.9852 281.149Z" fill="#F89520"/>
<path d="M112.658 240.228L110.431 242.522L105.956 247.087L101.46 251.621L99.2018 253.872L96.933 256.113L94.6537 258.333L92.3536 260.542L87.7428 264.929C86.9691 265.662 86.2163 266.406 85.4635 267.16C84.7107 267.914 83.9789 268.688 83.247 269.463C81.7832 271.013 80.3404 272.604 78.8557 274.123C77.3848 275.652 75.8242 277.093 74.1822 278.437C72.5324 279.767 70.8003 280.991 68.9964 282.102C65.3274 284.379 61.4814 286.358 57.4955 288.018C56.9937 288.227 56.4709 288.426 55.9586 288.635C55.4463 288.845 54.9235 289.033 54.3903 289.211C53.3343 289.588 52.2679 289.944 51.1805 290.269C50.0931 290.594 48.9744 290.897 47.8348 291.159C46.9461 291.358 46.0469 291.546 45.106 291.683C50.6786 298.96 71.4429 322.53 109.908 327.912C109.688 327.357 109.5 326.802 109.302 326.258C108.925 325.137 108.58 324.027 108.277 322.917C107.974 321.807 107.712 320.708 107.472 319.598C107.347 319.043 107.242 318.499 107.137 317.944C107.033 317.389 106.928 316.844 106.845 316.3C106.137 311.994 105.777 307.638 105.768 303.274C105.75 301.132 105.868 298.992 106.123 296.866C106.389 294.74 106.78 292.631 107.294 290.552C107.807 288.457 108.382 286.374 108.915 284.29C109.187 283.243 109.448 282.196 109.689 281.149C109.929 280.102 110.159 279.055 110.368 277.997L111.644 271.694L112.302 268.542L112.982 265.39L113.682 262.249L114.393 259.107L115.857 252.825L117.363 246.542L118.136 243.401L118.523 241.83L118.764 240.867C117.288 240.139 115.943 239.174 114.78 238.009L113.756 239.066L112.658 240.228Z" fill="#F89520"/>
<path d="M31.3298 189.643C31.3298 189.643 26.8967 199.57 24.6279 212.816C25.6003 212.397 26.5726 212.062 27.545 211.748C28.6428 211.392 29.751 211.077 30.8384 210.805C31.9257 210.533 33.0236 210.292 34.1005 210.083C34.6441 209.978 35.1774 209.884 35.721 209.79C36.2647 209.695 36.7979 209.611 37.3416 209.538C41.5616 208.932 45.8245 208.676 50.0867 208.774C52.1762 208.808 54.2613 208.98 56.3285 209.287C58.3923 209.605 60.4349 210.05 62.4449 210.617C64.4627 211.172 66.4911 211.8 68.4985 212.397C69.5022 212.69 70.5164 212.973 71.541 213.245C72.5656 213.517 73.5693 213.768 74.5939 214.009L80.6999 215.444L83.7528 216.177L86.8058 216.931L89.8587 217.706L92.9117 218.491L98.9967 220.103L105.071 221.758L108.114 222.606L109.63 223.025L111.125 223.444C111.725 221.386 112.767 219.485 114.178 217.873L60.9184 150.838C60.8975 150.849 41.4715 165.361 31.3298 189.643Z" fill="#F89520"/>
<path d="M187.177 309.776C187.177 309.776 168.828 323.786 153.239 327.807C153.239 327.807 135.768 334.854 109.494 331.713C109.494 331.713 82.216 329.702 55.0635 307.159C55.0635 307.159 35.8257 292.049 25.8932 264.228C25.8932 264.228 19.3586 246.48 19.6095 228.47C19.6095 228.47 19.3586 207.444 28.0365 187.675C28.0365 187.675 38.2723 163.361 58.6079 147.948L46.5215 132.734C-6.48701 174.974 -15.259 252.27 26.9178 305.358C69.0946 358.445 146.276 367.241 199.284 324.991L187.177 309.776Z" fill="#F47423"/>
</svg>
