<svg width="388" height="330" viewBox="0 0 388 330" fill="none" xmlns="http://www.w3.org/2000/svg">
<path d="M182.04 277.7L273.666 245.59C273.666 245.59 246.457 237.168 229.686 223.934C229.686 223.934 141.191 231.763 124.87 215.37L182.04 277.7Z" fill="#F89520"/>
<path d="M185.325 304.43C135.984 343.865 64.1583 335.658 24.8917 286.1C-14.3749 236.541 -6.20187 164.397 43.1411 124.961" fill="#F37423"/>
<path d="M40.403 273.706C72.8502 314.666 132.209 321.445 172.984 288.859L55.4851 140.533C14.7088 173.124 7.95812 232.746 40.403 273.703" fill="#F89520"/>
<path fill-rule="evenodd" clip-rule="evenodd" d="M25.6272 285.407C-13.251 236.33 -5.18172 164.89 43.7162 125.809L67.2538 155.258C34.599 181.357 29.1668 229.162 55.1784 261.998C81.1498 294.783 128.612 300.187 161.218 274.13L184.753 303.581C135.807 342.696 64.5456 334.536 25.6272 285.407Z" fill="white"/>
<path d="M115.226 213.866C115.413 217.902 115.519 221.927 115.598 225.95C115.645 227.962 115.663 229.975 115.695 231.981L115.747 238.008L115.76 244.03L115.752 247.039L115.726 250.046L115.681 253.051L115.619 256.054L115.465 262.056C115.407 264.057 115.423 266.066 115.478 268.078C115.532 270.091 115.621 272.103 115.644 274.116C115.677 276.116 115.593 278.117 115.392 280.107C115.178 282.095 114.84 284.067 114.379 286.012C113.921 287.967 113.385 289.912 112.774 291.848C112.161 293.785 111.473 295.713 110.681 297.63C110.287 298.588 109.87 299.544 109.422 300.496C108.974 301.448 108.505 302.398 108.003 303.337C107.502 304.276 106.959 305.231 106.38 306.162C105.79 307.126 105.149 308.058 104.46 308.953L102.853 308.77C102.382 307.742 101.965 306.69 101.606 305.617C101.251 304.573 100.937 303.534 100.66 302.498C100.384 301.462 100.133 300.431 99.9107 299.402C99.6885 298.373 99.4946 297.348 99.3255 296.324C98.9827 294.279 98.7427 292.244 98.5783 290.218C98.414 288.193 98.3301 286.177 98.3206 284.169C98.3061 282.17 98.417 280.172 98.6528 278.187C98.9019 276.202 99.2671 274.234 99.7464 272.292C100.219 270.338 100.757 268.393 101.26 266.443C101.762 264.494 102.228 262.537 102.619 260.579L103.811 254.694L104.422 251.755L105.05 248.816L105.698 245.879L106.362 242.946L107.722 237.08L109.119 231.22C109.601 229.268 110.065 227.313 110.563 225.365C111.538 221.458 112.543 217.563 113.627 213.673L115.226 213.866Z" fill="white"/>
<path d="M114.711 214.134C113.287 215.508 111.846 216.857 110.413 218.225L106.084 222.279C103.2 224.98 100.291 227.653 97.3829 230.329L93.0086 234.324L88.6247 238.298L84.2089 242.24L79.7766 246.161C78.2972 247.466 76.8391 248.798 75.4023 250.157C73.9623 251.512 72.5341 252.88 71.0835 254.223C69.6328 255.565 68.1503 256.864 66.6157 258.1C65.0811 259.336 63.5004 260.511 61.8796 261.637C58.6342 263.886 55.292 266.01 51.8149 267.966C50.081 268.946 48.3052 269.877 46.4877 270.758C45.5773 271.195 44.6611 271.624 43.7235 272.027C42.786 272.431 41.8414 272.824 40.8565 273.167L40.2891 272.45C40.8424 271.562 41.4335 270.724 42.0376 269.9C42.6418 269.076 43.2625 268.272 43.8902 267.479C45.1513 265.901 46.4518 264.372 47.7917 262.892C50.4707 259.932 53.2821 257.135 56.1929 254.463C57.6494 253.13 59.1485 251.843 60.6855 250.622C62.2224 249.4 63.8267 248.241 65.4512 247.12C67.0756 245.999 68.7272 244.911 70.3647 243.805C72.0021 242.699 73.6241 241.576 75.2237 240.422L80.0226 236.964L84.8391 233.531L89.6864 230.126L94.5455 226.744C97.792 224.497 101.046 222.26 104.309 220.034L109.213 216.709C110.858 215.612 112.493 214.504 114.147 213.42L114.711 214.134Z" fill="white"/>
<path d="M114.93 214.411C112.251 217.371 109.522 220.272 106.773 223.15C105.404 224.594 104.017 226.015 102.635 227.448L98.4733 231.71L94.2928 235.949L92.1907 238.054L90.0769 240.145L87.9488 242.22L85.8124 244.282L81.5208 248.382C80.0867 249.743 78.6987 251.164 77.3344 252.614C75.9701 254.064 74.6282 255.542 73.245 256.968C71.8751 258.395 70.4219 259.739 68.8931 260.993C67.3567 262.234 65.7432 263.377 64.0623 264.413C62.378 265.458 60.644 266.442 58.8604 267.366C57.0787 268.289 55.2485 269.151 53.3545 269.932C52.4087 270.327 51.4468 270.698 50.4686 271.047C49.4905 271.396 48.4943 271.725 47.4799 272.033C46.4631 272.336 45.4275 272.615 44.3646 272.862C43.276 273.118 42.1746 273.316 41.0649 273.454L40.0576 272.183C40.4405 271.127 40.8797 270.094 41.3735 269.086C41.8464 268.101 42.3469 267.147 42.875 266.223C43.403 265.3 43.9457 264.398 44.5029 263.518C45.0625 262.638 45.6391 261.78 46.2326 260.945C47.4149 259.266 48.6645 257.669 49.9591 256.131C51.2537 254.593 52.6003 253.121 53.9918 251.705C55.374 250.293 56.8445 248.971 58.3945 247.746C59.9538 246.532 61.5835 245.411 63.2749 244.389C64.9691 243.357 66.7035 242.376 68.4178 241.364C70.1321 240.352 71.8203 239.316 73.4637 238.218L78.4044 234.938L80.8871 233.311L83.3782 231.696L85.881 230.098L88.3945 228.513L93.4416 225.366L98.5123 222.249C100.211 221.223 101.902 220.184 103.61 219.171C107.019 217.129 110.445 215.108 113.92 213.151L114.93 214.411Z" fill="white"/>
<path d="M114.307 214.578C110.322 214.624 106.349 214.591 102.381 214.528C100.395 214.506 98.4146 214.452 96.4307 214.41L90.4875 214.25L84.5501 214.052L81.5838 213.934L78.6199 213.802L75.6642 213.652L72.7086 213.485L66.7973 213.119C64.8276 212.992 62.8473 212.937 60.8599 212.922C58.8725 212.906 56.8816 212.922 54.9001 212.878C52.927 212.84 50.9578 212.686 49.003 212.415C47.0511 212.13 45.1193 211.72 43.2193 211.19C41.3104 210.662 39.4124 210.057 37.5255 209.375C35.6339 208.692 33.7636 207.933 31.9039 207.071C30.973 206.644 30.0469 206.19 29.1256 205.709C28.2034 205.227 27.2848 204.72 26.3709 204.18C25.457 203.64 24.549 203.066 23.6517 202.452C22.7233 201.825 21.829 201.15 20.9727 200.428L21.2091 198.821C22.2394 198.385 23.2923 198.004 24.3634 197.681C25.4061 197.361 26.443 197.08 27.4739 196.837C28.5049 196.591 29.5323 196.379 30.5478 196.192C31.5634 196.005 32.5896 195.846 33.604 195.718C35.6339 195.446 37.6485 195.277 39.6513 195.182C41.654 195.087 43.645 195.074 45.6252 195.136C47.5965 195.192 49.5622 195.373 51.5105 195.678C53.4582 195.997 55.3852 196.432 57.2812 196.98C59.1894 197.522 61.0869 198.131 62.9892 198.704C64.8914 199.277 66.8008 199.812 68.7208 200.274L74.4772 201.675L77.3537 202.392L80.2266 203.126L83.0971 203.877L85.9653 204.648L91.6957 206.218L97.4214 207.826C99.3272 208.377 101.237 208.913 103.14 209.484C106.951 210.6 110.756 211.745 114.55 212.97L114.307 214.578Z" fill="white"/>
<path d="M119.435 35.171L55.6162 115.099L66.7886 129.211" fill="#F37423"/>
<path d="M185.465 281.402L196.709 295.606L303.788 238.899" fill="#F37423"/>
<path d="M133.963 213.911C133.26 223.753 124.749 231.157 114.952 230.452C105.154 229.746 97.7805 221.198 98.4828 211.357C99.1851 201.516 107.697 194.11 117.495 194.815C127.292 195.521 134.665 204.07 133.963 213.911Z" fill="white"/>
<path d="M268.242 239.662C261.689 237.768 255.345 235.228 249.208 232.282C243.073 229.316 237.117 225.991 231.372 222.325L230.29 221.643L229.219 220.946L228.155 220.246L227.619 219.897L227.09 219.542L224.962 218.121L222.858 216.665C222.157 216.18 221.469 215.676 220.774 215.183C220.079 214.689 219.392 214.182 218.705 213.676C217.325 212.672 215.963 211.643 214.603 210.612L212.576 209.046C211.902 208.52 211.239 207.98 210.566 207.454C209.894 206.927 209.233 206.388 208.57 205.848C207.906 205.309 207.238 204.783 206.584 204.227L204.614 202.585L202.664 200.908C202.337 200.632 202.016 200.349 201.693 200.069L200.725 199.228L199.756 198.387L198.797 197.533C188.534 188.393 178.876 178.594 169.883 168.198C168.748 166.896 167.647 165.572 166.525 164.26C165.424 162.929 164.311 161.607 163.231 160.257C162.15 158.907 161.072 157.554 159.999 156.197C158.944 154.824 157.878 153.457 156.844 152.066C155.811 150.675 154.775 149.281 153.746 147.881C152.736 146.469 151.716 145.062 150.728 143.629C149.741 142.197 148.758 140.76 147.78 139.316C146.82 137.863 145.854 136.409 144.92 134.936C143.039 131.992 141.205 129.01 139.447 125.971C139.227 125.592 139.003 125.216 138.785 124.834L138.136 123.688C137.706 122.922 137.265 122.161 136.847 121.386L135.581 119.07L134.352 116.727C132.73 113.593 131.175 110.412 129.688 107.185L128.598 104.751L128.326 104.142L128.063 103.527L127.537 102.297C127.362 101.888 127.182 101.478 127.015 101.066L126.512 99.823C126.179 98.9943 125.837 98.1657 125.52 97.3287L125.038 96.0727C124.876 95.6548 124.715 95.2357 124.565 94.8119C124.259 93.9655 123.942 93.1238 123.644 92.2726L122.769 89.7084L121.934 87.1194L121.145 84.5067C120.892 83.6291 120.645 82.7495 120.402 81.868C120.166 80.9825 119.942 80.0923 119.713 79.202L119.076 76.5112C118.245 72.862 117.6 69.1728 117.145 65.4579C116.668 61.6335 116.431 57.7828 116.436 53.9286L116.458 52.4512L116.472 51.7113L116.504 50.9679L116.575 49.4775L116.693 47.9788L116.754 47.2294C116.776 46.9784 116.807 46.7263 116.833 46.4753L117 44.9647C117.066 44.4593 117.14 43.9526 117.211 43.4471L117.321 42.6871L117.454 41.9235C118.152 37.7186 119.317 33.6046 120.926 29.658L121.574 28.1332L122.283 26.6203L122.464 26.2426L122.659 25.8674L123.053 25.1192L123.452 24.3734L123.882 23.6359L124.315 22.9007L124.534 22.5337L124.771 22.1715C125.083 21.6885 125.392 21.2055 125.716 20.7272L126.726 19.3066C126.892 19.0699 127.081 18.8426 127.255 18.6129L127.796 17.9239C129.273 16.0834 130.894 14.3635 132.643 12.7802C134.41 11.1932 136.304 9.75438 138.306 8.47822C138.805 8.15977 139.305 7.83895 139.82 7.55365L140.588 7.11446C140.845 6.96885 141.1 6.82087 141.363 6.69065L142.931 5.89157C143.459 5.64534 143.99 5.40344 144.523 5.16589C146.634 4.25781 148.804 3.49485 151.019 2.8823C153.168 2.30983 155.35 1.8659 157.551 1.55287L159.176 1.35162C159.448 1.31611 159.716 1.29361 159.984 1.27112L160.791 1.20246L161.598 1.13616C161.867 1.11485 162.131 1.10775 162.399 1.09355L163.998 1.02015L165.581 1.0012C165.845 1.0012 166.111 0.994101 166.372 1.0012L167.155 1.01896C167.676 1.03554 168.202 1.04264 168.72 1.0675L170.268 1.15866C170.787 1.18352 171.294 1.23324 171.805 1.27704C172.315 1.32084 172.826 1.36583 173.332 1.42384L174.841 1.61087L175.595 1.70913L176.339 1.82751L177.827 2.06427C178.319 2.14951 178.806 2.24303 179.297 2.333C180.28 2.50466 181.239 2.72485 182.204 2.93321C182.689 3.03502 183.163 3.15339 183.638 3.27059L185.064 3.62574C186.01 3.87671 186.942 4.13005 187.873 4.39878L189.257 4.81784C189.718 4.95753 190.182 5.09486 190.635 5.24875L192 5.69861L192.681 5.92589L193.355 6.16266C194.251 6.48347 195.152 6.79956 196.032 7.14524L197.358 7.65547C197.8 7.82594 198.233 8.01061 198.669 8.18582C202.158 9.6143 205.547 11.1769 208.837 12.8737C215.422 16.2512 221.643 20.0785 227.574 24.2076C228.311 24.7297 229.056 25.2411 229.784 25.7715C230.512 26.3018 231.247 26.8251 231.968 27.3637L234.122 28.9855L236.25 30.6346C237.658 31.7438 239.059 32.8602 240.437 33.9978C241.129 34.5649 241.809 35.1438 242.489 35.7215L243.509 36.5892L244.519 37.4664C245.868 38.6325 247.193 39.8211 248.515 41.0179L250.474 42.8268L252.407 44.6593C253.687 45.8881 254.963 47.1205 256.215 48.373L257.155 49.3129L258.083 50.26C258.698 50.8969 259.323 51.5231 259.929 52.1671L261.756 54.0885L263.563 56.0287C264.162 56.6775 264.745 57.338 265.336 57.9915C265.927 58.645 266.511 59.3091 267.095 59.9697C267.679 60.6302 268.262 61.292 268.834 61.9621C269.406 62.6321 269.989 63.2939 270.556 63.9745L272.25 66.0013L273.923 68.0457C278.363 73.5094 282.574 79.1342 286.554 84.9199C288.557 87.8001 290.474 90.7384 292.353 93.6967C294.232 96.6551 296.054 99.6454 297.814 102.672C298.034 103.05 298.257 103.427 298.475 103.805L299.123 104.948C299.553 105.71 299.989 106.468 300.408 107.236L301.673 109.535L302.912 111.847C304.547 114.939 306.123 118.06 307.641 121.209C309.159 124.358 310.604 127.538 311.976 130.749C312.67 132.35 313.331 133.967 313.992 135.581L314.956 138.015C315.278 138.826 315.582 139.644 315.896 140.458C316.209 141.271 316.509 142.091 316.809 142.911L317.259 144.138C317.409 144.548 317.548 144.967 317.694 145.372C317.979 146.2 318.274 147.015 318.551 147.842L319.378 150.328C319.907 151.986 320.442 153.651 320.924 155.328L321.296 156.58L321.651 157.84L322.005 159.098L322.182 159.728L322.348 160.361C322.568 161.205 322.796 162.046 323.009 162.892L323.63 165.434L324.214 167.985C324.314 168.409 324.401 168.837 324.491 169.265L324.758 170.546C324.943 171.398 325.091 172.26 325.257 173.116C325.422 173.972 325.563 174.836 325.711 175.695C325.784 176.126 325.862 176.555 325.929 176.986L326.124 178.282L326.317 179.577L326.486 180.879L326.653 182.181L326.794 183.484L326.932 184.786L327.05 186.088L327.168 187.39L327.254 188.701C327.28 189.136 327.314 189.572 327.334 190.009L327.388 191.32C327.402 191.758 327.431 192.193 327.433 192.632L327.455 193.945C327.462 194.383 327.471 194.82 327.462 195.258L327.455 196.572C327.455 196.791 327.455 197.009 327.447 197.228L327.426 197.886L327.384 199.199C327.371 199.637 327.334 200.075 327.31 200.513C327.287 200.951 327.261 201.388 327.228 201.825C326.963 205.33 326.443 208.812 325.673 212.242L325.35 213.524L325.188 214.163C325.131 214.377 325.07 214.587 325.005 214.799L324.635 216.068C324.502 216.489 324.361 216.906 324.223 217.325L324.016 217.953L323.787 218.574L323.322 219.813C322.974 220.626 322.655 221.448 322.258 222.242L321.975 222.841L321.834 223.14L321.68 223.434L321.062 224.607C320.852 224.995 320.617 225.373 320.398 225.755L320.062 226.327L319.707 226.885L319.347 227.442C319.228 227.628 319.11 227.815 318.978 227.993L318.206 229.073C318.082 229.255 317.935 229.422 317.8 229.597L317.389 230.117C317.249 230.289 317.117 230.466 316.973 230.634L316.535 231.132L316.098 231.63C316.023 231.712 315.952 231.797 315.877 231.877L315.646 232.114L314.72 233.061L313.749 233.961L313.505 234.185C313.423 234.259 313.336 234.327 313.252 234.399L312.745 234.822C311.395 235.954 309.95 236.966 308.426 237.847C308.237 237.957 308.052 238.077 307.858 238.18L307.278 238.487L306.697 238.795C306.601 238.845 306.505 238.899 306.405 238.947L306.109 239.084L304.918 239.637L303.705 240.128C302.085 240.763 300.42 241.277 298.724 241.667L298.092 241.819L297.455 241.943C297.029 242.024 296.606 242.115 296.179 242.18C295.323 242.298 294.471 242.453 293.611 242.525C291.899 242.708 290.178 242.802 288.456 242.81L287.168 242.789L286.524 242.779L285.881 242.747L284.597 242.682C284.169 242.659 283.744 242.612 283.317 242.578C282.89 242.543 282.462 242.51 282.038 242.459L280.763 242.304L280.126 242.226C279.914 242.201 279.704 242.163 279.492 242.132L278.225 241.938C274.856 241.382 271.524 240.624 268.247 239.667L268.242 239.662ZM268.645 238.273C271.867 239.21 275.145 239.944 278.458 240.473C281.759 241.001 285.098 241.258 288.441 241.241C290.106 241.218 291.769 241.107 293.422 240.908C294.249 240.827 295.066 240.672 295.887 240.543C296.295 240.469 296.699 240.374 297.106 240.293L297.715 240.165L298.318 240.01C298.717 239.903 299.122 239.806 299.52 239.693L300.702 239.323C301.101 239.205 301.484 239.051 301.874 238.912C302.264 238.774 302.654 238.634 303.031 238.464L304.171 237.977L305.286 237.434L305.565 237.298C305.657 237.252 305.746 237.198 305.837 237.15L306.379 236.849L306.921 236.548C307.102 236.449 307.276 236.332 307.449 236.225C308.862 235.367 310.197 234.388 311.441 233.299L311.914 232.89C311.99 232.822 312.071 232.755 312.15 232.684L312.372 232.468L313.259 231.601L314.101 230.69L314.311 230.462C314.381 230.385 314.445 230.304 314.511 230.226L314.908 229.752L315.306 229.279C315.437 229.117 315.556 228.948 315.682 228.784L316.055 228.288C316.173 228.12 316.309 227.96 316.42 227.786L317.117 226.755C317.235 226.585 317.341 226.407 317.449 226.229L317.773 225.697L318.096 225.166L318.395 224.619C318.59 224.252 318.799 223.893 318.986 223.52L319.532 222.399L319.668 222.119L319.792 221.832L320.041 221.259C320.387 220.503 320.662 219.72 320.967 218.939L321.368 217.755L321.568 217.163L321.744 216.563C321.862 216.162 321.981 215.763 322.099 215.36L322.406 214.146C322.457 213.942 322.511 213.741 322.558 213.537L322.689 212.923L322.95 211.696C323.569 208.398 323.936 205.058 324.048 201.704C324.154 198.341 324.057 194.974 323.759 191.622C323.469 188.267 323.006 184.925 322.404 181.608C321.802 178.291 321.061 174.997 320.207 171.732C319.354 168.467 318.392 165.228 317.324 162.024C316.255 158.821 315.101 155.645 313.869 152.499L312.923 150.147C312.608 149.365 312.272 148.589 311.948 147.809C311.782 147.42 311.624 147.029 311.455 146.642L310.947 145.482C310.608 144.708 310.273 143.932 309.918 143.165C309.563 142.398 309.225 141.626 308.863 140.861L307.783 138.568C307.044 137.049 306.307 135.529 305.536 134.025C304.005 131.013 302.414 128.032 300.764 125.082C299.113 122.132 297.401 119.22 295.627 116.346C293.853 113.465 292.027 110.627 290.153 107.815C288.279 105.003 286.346 102.232 284.36 99.4963C282.374 96.7605 280.359 94.0507 278.278 91.3918C269.981 80.7315 260.929 70.6826 251.191 61.3228C246.324 56.655 241.29 52.1624 236.058 47.9113C233.446 45.7804 230.79 43.7123 228.089 41.7069C225.388 39.7015 222.638 37.7655 219.84 35.8991C214.247 32.17 208.46 28.7369 202.461 25.7407C196.462 22.7444 190.261 20.1909 183.865 18.3264C180.677 17.3907 177.433 16.6608 174.151 16.1411C170.891 15.6198 167.592 15.3798 164.29 15.4237C162.648 15.4711 161.009 15.5729 159.386 15.7788C157.768 15.9925 156.164 16.3004 154.581 16.701C153.011 17.1156 151.471 17.6353 149.971 18.2566L148.857 18.7431L147.768 19.2806C147.584 19.3658 147.413 19.4664 147.231 19.5647L146.7 19.8583C146.346 20.0465 146.001 20.2643 145.656 20.4762C144.28 21.3243 142.976 22.2832 141.755 23.3434C140.536 24.4117 139.401 25.5716 138.36 26.8132L137.974 27.2868C137.846 27.4442 137.712 27.5969 137.595 27.7603L136.864 28.7369C136.628 29.0708 136.406 29.4094 136.177 29.7456L136.006 29.9977L135.844 30.2581L135.523 30.7778L135.202 31.2987L134.904 31.8338L134.605 32.3677L134.456 32.6353L134.317 32.9099L133.764 34.0049L133.255 35.1236C131.939 38.1495 130.953 41.3084 130.313 44.5457L130.185 45.153L130.079 45.7662L129.865 46.9915L129.69 48.2238C129.662 48.4298 129.629 48.6346 129.604 48.8406L129.534 49.4609L129.397 50.7004L129.295 51.9446L129.243 52.5661L129.21 53.1911L129.143 54.4389C129.021 57.7806 129.093 61.1266 129.36 64.4599C129.621 67.7995 130.054 71.1319 130.633 74.4419C131.793 81.063 133.499 87.5977 135.584 94.0093C136.627 97.2158 137.755 100.395 138.968 103.546C140.181 106.697 141.477 109.815 142.855 112.898L143.891 115.209L144.962 117.505C145.317 118.272 145.692 119.028 146.057 119.789L146.609 120.929C146.795 121.308 146.988 121.685 147.176 122.062C148.677 125.088 150.259 128.075 151.892 131.033C158.432 142.863 165.911 154.175 174.134 164.907C175.155 166.254 176.207 167.577 177.25 168.907C178.293 170.238 179.363 171.546 180.442 172.845C181.522 174.143 182.611 175.438 183.699 176.731C184.788 178.024 185.904 179.293 187.032 180.551C188.16 181.81 189.292 183.066 190.426 184.317C191.561 185.568 192.724 186.797 193.896 188.014L194.77 188.932L195.654 189.84C196.246 190.442 196.837 191.052 197.428 191.65L199.223 193.438C199.821 194.03 200.433 194.622 201.037 195.208C205.889 199.913 210.927 204.411 216.153 208.704C221.384 212.973 226.793 217.035 232.416 220.754C238.023 224.5 243.864 227.884 249.903 230.884C255.939 233.862 262.198 236.411 268.649 238.279" fill="#F37423"/>
<path d="M132.048 21.7772C117.791 25.1902 103.6 28.5416 89.5424 32.2623C82.515 34.1221 75.5231 36.0683 68.5938 38.1743C65.1298 39.2244 61.6847 40.3253 58.2478 41.4369C54.811 42.5485 51.3907 43.6992 47.9905 44.8901C46.2904 45.4891 44.5939 46.0953 42.9068 46.7239C41.2197 47.3525 39.5409 48.0012 37.868 48.6665C34.5316 50.0102 31.2331 51.4497 28.0303 53.0739C26.4295 53.8848 24.8524 54.7419 23.3131 55.657C21.7738 56.5721 20.2652 57.5405 18.8205 58.5881C15.9239 60.6728 13.2284 63.05 11.0175 65.8094C9.91353 67.1794 8.95395 68.6599 8.15409 70.2275C7.36865 71.7836 6.79146 73.4367 6.43744 75.1439C6.08844 76.8428 5.99085 78.5839 6.14779 80.3112C6.30619 82.0441 6.68768 83.7491 7.28276 85.3839C7.57581 86.2083 7.91447 87.0157 8.29715 87.8025C8.68021 88.5909 9.09518 89.3663 9.55153 90.1192L9.72059 90.4033L9.89911 90.6815L10.2538 91.2391C10.5033 91.6037 10.7432 91.9731 11.0045 92.3306C11.5117 93.0539 12.0579 93.7512 12.616 94.4413C13.174 95.1315 13.7592 95.798 14.3633 96.4538C14.6613 96.7841 14.9698 97.1037 15.2796 97.4234C15.5894 97.743 15.9062 98.0579 16.2254 98.3704C17.4916 99.6253 18.8264 100.817 20.1907 101.97C22.9487 104.263 25.8239 106.411 28.8047 108.405C30.2944 109.408 31.7982 110.393 33.3269 111.344C34.8555 112.295 36.3901 113.238 37.9377 114.153C39.4853 115.068 41.0506 115.97 42.6242 116.853C44.1978 117.737 45.7749 118.613 47.3639 119.472C50.5379 121.196 53.7477 122.86 56.9935 124.465C63.4817 127.678 70.0847 130.68 76.7373 133.574C83.3899 136.467 90.0969 139.276 96.8121 142.063C110.246 147.64 123.795 153.016 137.392 158.332L157.818 166.293C164.63 168.963 171.453 171.621 178.243 174.41L178.027 175.109C174.438 174.334 170.869 173.489 167.309 172.611C163.75 171.734 160.199 170.814 156.656 169.872C149.572 167.978 142.522 165.954 135.508 163.8C128.493 161.646 121.514 159.372 114.571 156.978C111.103 155.773 107.644 154.536 104.193 153.267C102.472 152.626 100.748 151.986 99.0336 151.324C97.3193 150.662 95.605 150.002 93.8943 149.32C87.0561 146.608 80.2931 143.695 73.6055 140.58C66.9178 137.465 60.3239 134.143 53.8238 130.614C47.3284 127.079 40.9111 123.351 34.7893 119.125C31.7237 117.017 28.7255 114.799 25.8278 112.439C22.915 110.085 20.1307 107.575 17.4869 104.922C14.817 102.257 12.3705 99.3777 10.1722 96.3118C9.07388 94.7604 8.07748 93.139 7.18936 91.4581C6.28909 89.7654 5.54436 87.9942 4.96434 86.1664C4.37724 84.3227 4.01403 82.4148 3.88257 80.4841C3.75221 78.5456 3.88988 76.5983 4.29164 74.6976C4.6953 72.8094 5.32817 70.9779 6.17616 69.2437C7.02199 67.5309 8.02241 65.8991 9.16493 64.3687C11.4372 61.3216 14.1304 58.6568 16.9939 56.2276C18.4268 55.013 19.9058 53.8599 21.4156 52.7519C22.9253 51.6438 24.4705 50.5879 26.0418 49.5757C27.613 48.5635 29.2043 47.5857 30.8193 46.6505C31.6256 46.1769 32.439 45.7247 33.2536 45.2713C34.0682 44.8179 34.8922 44.3823 35.7186 43.9514C37.3679 43.0836 39.0396 42.2656 40.7184 41.4653C42.3972 40.6651 44.0973 39.9122 45.8021 39.1877C49.2205 37.7339 52.6817 36.4081 56.186 35.21C59.6855 34.0025 63.2228 32.9241 66.7731 31.9095C73.8762 29.8923 81.0376 28.156 88.2573 26.7007C95.477 25.2454 102.728 24.0269 110.011 23.0451C111.833 22.8083 113.655 22.5716 115.48 22.3727L118.218 22.0708L120.961 21.7997C121.874 21.7097 122.79 21.6352 123.705 21.5629C124.62 21.4907 125.536 21.4173 126.453 21.3522C128.286 21.2244 130.118 21.1155 131.962 21.0598L132.048 21.7772Z" fill="#F37423"/>
<path d="M366.458 206.909C366.458 206.909 380.208 215.002 379.383 228.639L366.458 206.909ZM323.505 194.648C322.651 194.655 320.932 195.05 320.127 194.728C329.975 198.655 338.045 206.032 344.028 214.705C346.977 218.98 349.549 223.62 351.505 228.437C353.397 233.092 354.119 239.176 358.74 242.051C362.185 244.195 366.672 244.803 370.627 244.134C374.18 243.533 377.366 241.626 379.899 239.091C387.211 231.763 385.001 218.456 378.869 211.007C373.736 204.772 365.927 201.268 358.374 199.002C349.98 196.486 341.197 195.332 332.472 194.859C329.842 194.715 327.209 194.642 324.572 194.638C324.216 194.638 323.861 194.638 323.508 194.638" fill="#F89520"/>
<path d="M315.287 190.821C311.139 208.663 294.229 214.21 294.229 214.21L315.287 190.821ZM291.834 172.457C282.648 175.712 276.845 184.966 269.134 190.215C261.617 195.33 253.324 199.426 244.433 201.442C241.161 202.184 230.351 204.726 227.261 201.867C227.734 202.304 228.21 202.738 228.689 203.169C246.158 218.753 268.828 226.972 291.877 220.571C309.156 215.772 325.325 204.5 318.457 184.355C315.673 176.186 306.979 171.343 298.558 171.343C296.27 171.332 293.996 171.711 291.835 172.463" fill="#F89520"/>
<path d="M251.47 171.985C253.021 178.699 247.421 184.819 247.421 184.819L251.47 171.985ZM246.129 165.527C244.098 165.824 242.236 166.825 240.866 168.356C238.998 170.486 239.19 173.651 238.725 176.267C238.227 179.001 237.475 181.682 236.479 184.276C234.486 189.522 231.426 194.43 227.257 197.878C227.599 197.596 228.419 197.536 228.811 197.411C230.181 196.974 231.544 196.485 232.898 195.956C236.85 194.409 240.774 192.514 244.399 189.993C247.661 187.724 250.933 184.795 252.748 180.899C254.914 176.246 254.782 169.242 250.805 166.665C249.661 165.924 248.348 165.469 246.973 165.469C246.69 165.469 246.407 165.489 246.126 165.527" fill="#F89520"/>
<path d="M328.894 133.163C328.894 133.163 343.232 126.17 354.065 134.432L328.894 133.163ZM339.18 125.074C331.167 125.903 323.929 130.476 317.86 135.527C311.121 141.137 305.285 147.839 300.046 154.864C298.254 157.268 296.534 159.726 294.886 162.235C294.414 162.946 293.791 164.603 293.078 165.099C301.798 159.053 312.386 156.408 322.89 156.227C328.068 156.139 333.337 156.566 338.415 157.609C343.318 158.615 348.759 161.389 353.706 159.127C357.394 157.44 360.39 154.036 362.032 150.354C363.507 147.052 363.699 143.328 363.005 139.809C361.151 130.408 350.563 124.961 341.415 124.961C340.668 124.96 339.922 124.998 339.18 125.074Z" fill="#F89520"/>
<path d="M340.67 171.338C340.671 170.83 340.823 170.334 341.106 169.913C341.389 169.491 341.79 169.163 342.259 168.97C342.728 168.777 343.244 168.727 343.741 168.827C344.238 168.927 344.694 169.173 345.052 169.532C345.41 169.892 345.654 170.35 345.752 170.848C345.85 171.346 345.799 171.862 345.605 172.331C345.41 172.8 345.081 173.2 344.66 173.482C344.238 173.764 343.742 173.915 343.235 173.915C342.898 173.914 342.564 173.847 342.252 173.717C341.94 173.588 341.657 173.398 341.419 173.158C341.181 172.919 340.992 172.635 340.863 172.323C340.735 172.01 340.669 171.675 340.67 171.338ZM331.684 167.33C329.972 170.308 331.684 174.515 335.497 176.729C339.31 178.942 343.795 178.323 345.507 175.346C347.219 172.369 345.507 168.16 341.695 165.946C340.261 165.098 338.631 164.64 336.965 164.619C334.706 164.619 332.709 165.556 331.686 167.33" fill="#F89520"/>
<path d="M266.927 165.099C266.929 164.591 267.08 164.095 267.363 163.674C267.646 163.253 268.048 162.925 268.516 162.731C268.985 162.538 269.501 162.489 269.998 162.589C270.495 162.689 270.952 162.934 271.309 163.294C271.667 163.653 271.911 164.111 272.009 164.609C272.108 165.107 272.056 165.623 271.862 166.092C271.667 166.561 271.339 166.962 270.917 167.244C270.495 167.526 270 167.676 269.493 167.676C269.155 167.676 268.821 167.609 268.509 167.479C268.198 167.349 267.915 167.159 267.676 166.92C267.438 166.68 267.249 166.396 267.121 166.084C266.992 165.772 266.926 165.437 266.927 165.099ZM258.584 161.461C256.872 164.438 258.584 168.647 262.397 170.861C266.209 173.074 270.695 172.455 272.407 169.478C274.119 166.501 272.407 162.292 268.594 160.078C267.161 159.23 265.53 158.772 263.865 158.751C261.606 158.751 259.609 159.688 258.585 161.461" fill="#F89520"/>
<path d="M363.922 257.483V249.936H361.116V248.926H367.868V249.936H365.049V257.483H363.922Z" fill="#F37423"/>
<path d="M368.99 257.483V248.926H370.686L372.703 254.985C372.888 255.549 373.024 255.971 373.11 256.252C373.207 255.94 373.358 255.483 373.563 254.88L375.602 248.926H377.119V257.483H376.034V250.321L373.558 257.483H372.541L370.077 250.199V257.483H368.99Z" fill="#F37423"/>
</svg>
