<svg width="303" height="64" viewBox="0 0 303 64" fill="none" xmlns="http://www.w3.org/2000/svg">
<g clip-path="url(#clip0_856_23729)">
<path d="M70.5814 50.3768V48.9125H70.0352V48.7164H71.3493V48.9125H70.8007V50.3768H70.5814Z" fill="#F47423"/>
<path d="M71.5693 50.3765V48.7162H71.8996L72.292 49.8918C72.3283 50.0012 72.3545 50.0833 72.3712 50.1377C72.39 50.0772 72.4193 49.9884 72.4594 49.8713L72.8563 48.716H73.1516V50.3763H72.9399V48.9871L72.4582 50.3763H72.2602L71.7808 48.9628V50.3763L71.5693 50.3765Z" fill="#F47423"/>
<path d="M23.3078 6.64265L10.8467 22.2031L13.028 24.951" fill="#F47423"/>
<path d="M36.1982 54.5822L38.3929 57.3474L59.3021 46.3082" fill="#F47423"/>
<path d="M52.3629 46.4564C51.0841 46.0891 49.8452 45.5925 48.6463 45.0197C48.0477 44.7323 47.458 44.4266 46.8772 44.1024L46.444 43.8569L46.0146 43.6039C45.9423 43.562 45.872 43.5182 45.8017 43.4763L45.5889 43.347C45.4464 43.2613 45.3058 43.1719 45.1652 43.0824L44.9543 42.9492L44.7453 42.8141L44.5362 42.6771L44.4317 42.6086L44.3291 42.5382L43.9149 42.2603L43.5045 41.9768C43.3676 41.8817 43.2327 41.7846 43.0978 41.6895C43.0294 41.6419 42.961 41.5943 42.8945 41.5448L42.6931 41.3964C42.5582 41.2974 42.4233 41.2004 42.2922 41.0995C42.1611 40.9987 42.0261 40.8997 41.8931 40.7989C40.8348 39.9901 39.8061 39.142 38.8073 38.2546C37.8078 37.3697 36.8375 36.4506 35.8963 35.4972C35.425 35.0214 34.9614 34.5374 34.5054 34.0452C34.2754 33.7997 34.0531 33.5504 33.827 33.3011C33.6047 33.0499 33.3786 32.8006 33.1601 32.5456C32.9377 32.2925 32.723 32.0337 32.5045 31.7787C32.2898 31.5199 32.0732 31.2611 31.8623 30.9985C31.6513 30.7359 31.4404 30.4714 31.2314 30.2088C31.0243 29.9424 30.8172 29.6759 30.6139 29.4057C30.4105 29.1355 30.2091 28.8634 30.0096 28.5912C29.812 28.3153 29.6125 28.0413 29.4206 27.7634C29.2249 27.4856 29.0367 27.204 28.8448 26.9242L28.5636 26.4999L28.4933 26.3933L28.4249 26.2867L28.2862 26.0717C27.9195 25.4989 27.5603 24.9185 27.2183 24.3267C27.1746 24.2524 27.1309 24.1801 27.0891 24.1059L26.9618 23.8833C26.8782 23.7348 26.7908 23.5864 26.711 23.4361L26.4639 22.9851L26.2226 22.5302C25.9053 21.9194 25.5994 21.3009 25.3106 20.6729L25.0977 20.1991L25.0445 20.0811L24.9932 19.9612L24.8906 19.7214L24.788 19.4817L24.6892 19.24C24.6246 19.0782 24.5581 18.9184 24.4954 18.7547L24.4004 18.5111C24.3681 18.4293 24.3377 18.3475 24.3073 18.2657C24.2484 18.1001 24.1857 17.9364 24.1268 17.7709L23.9557 17.2723L23.7923 16.768L23.6384 16.2599C23.589 16.0886 23.5415 15.9174 23.494 15.7461C23.4465 15.5748 23.4047 15.3998 23.3591 15.2266C23.3173 15.0515 23.2755 14.8764 23.2337 14.7033C23.0717 13.9928 22.9461 13.2744 22.8575 12.551L22.8252 12.2751C22.8195 12.2294 22.8157 12.1837 22.81 12.1362L22.7967 11.9972C22.7872 11.904 22.7796 11.8126 22.772 11.7194L22.753 11.4397C22.7397 11.2532 22.734 11.0648 22.7264 10.8764C22.7226 10.7831 22.7226 10.6861 22.7207 10.5909C22.7188 10.4958 22.7188 10.4006 22.7188 10.3055L22.7245 10.0181L22.7264 9.87351L22.7321 9.72889L22.7454 9.43963L22.7682 9.14848L22.7796 9.00195C22.7834 8.95247 22.7891 8.90489 22.7948 8.85542L22.8271 8.56045C22.8404 8.4615 22.8537 8.36254 22.8689 8.26549L22.8898 8.11706L22.9164 7.96863C22.9335 7.86967 22.9506 7.77072 22.9696 7.67176L23.0323 7.37299C23.0513 7.27404 23.0779 7.17318 23.1026 7.07423L23.1406 6.92389C23.1463 6.89915 23.1539 6.87441 23.1596 6.84967L23.1805 6.77546L23.2679 6.47669C23.3002 6.37774 23.3325 6.27688 23.3667 6.17792C23.3838 6.12845 23.399 6.07897 23.418 6.02759L23.475 5.87915C23.513 5.7802 23.5491 5.67934 23.5928 5.58229L23.7201 5.28542L23.8607 4.99046L23.8968 4.91625L23.9348 4.84393L24.0128 4.6974L24.0907 4.55278L24.1743 4.41005L24.2579 4.26733L24.2997 4.19502L24.3453 4.12461C24.4061 4.03136 24.4669 3.93621 24.5296 3.84296C24.5923 3.74972 24.6607 3.65837 24.7272 3.56703C24.7595 3.52136 24.7956 3.47759 24.8298 3.43192L24.9362 3.29871C25.2252 2.94097 25.5416 2.6063 25.8825 2.29774C25.9699 2.22162 26.0573 2.14551 26.1466 2.07129C26.2359 1.99707 26.329 1.92666 26.4202 1.85625L26.4886 1.80297L26.5589 1.75159L26.7015 1.65073C26.749 1.61838 26.7965 1.58413 26.844 1.55178L26.9903 1.45853L27.1366 1.36528L27.1727 1.34245L27.2107 1.32151L27.2848 1.27775L27.4349 1.19211C27.4843 1.16357 27.5356 1.13502 27.5869 1.11028C27.6895 1.057 27.7902 1.00562 27.8929 0.95424C27.9955 0.906666 28.1 0.859091 28.2045 0.813419C28.6171 0.63655 29.0411 0.487779 29.4738 0.368121C29.8939 0.256703 30.3203 0.170284 30.7507 0.109316L31.068 0.0693538C31.0946 0.0655478 31.1212 0.0617419 31.1478 0.0598389L31.2257 0.0522265L31.3834 0.0389054L31.5411 0.0255855C31.5943 0.0217795 31.6456 0.019876 31.6969 0.0179731L32.0086 0.00465196L32.3183 0.000845769C32.3696 0.000845769 32.4209 -0.00105721 32.4722 0.000845769L32.6242 0.00465196C32.7268 0.00845793 32.8294 0.00845793 32.9301 0.0141669L33.2323 0.0312942C33.333 0.0370031 33.4318 0.0465171 33.5325 0.054129C33.6332 0.0617409 33.732 0.0712558 33.8308 0.0826737L34.1253 0.118831L34.2716 0.137861L34.4161 0.160695L34.7068 0.206367C34.8037 0.223494 34.8987 0.240623 34.9937 0.257749C35.1856 0.292003 35.3737 0.333868 35.5618 0.373831C35.6569 0.392861 35.7481 0.415697 35.8412 0.438533L36.1205 0.507039C36.2136 0.529875 36.3029 0.556517 36.396 0.581256C36.4891 0.605995 36.5803 0.630734 36.6696 0.657375L36.9395 0.739202C37.0288 0.765844 37.12 0.792486 37.2093 0.822934L37.4753 0.91047C37.519 0.925694 37.5646 0.939016 37.6083 0.95424L37.7394 0.999912C37.9142 1.06271 38.0909 1.12361 38.262 1.19211L38.5204 1.29107L38.7769 1.39383C39.459 1.67166 40.1203 1.97804 40.7625 2.30726C42.0489 2.96569 43.2631 3.70976 44.4222 4.51472C45.5813 5.31968 46.6796 6.18553 47.7323 7.09516C48.785 8.00478 49.7844 8.96389 50.7421 9.95724C52.6422 11.9405 54.3807 14.073 55.9409 16.3341C57.4952 18.5783 58.872 20.9408 60.0585 23.3999C60.355 24.0127 60.6375 24.6318 60.906 25.2572L61.0067 25.4913L61.0561 25.6093L61.1055 25.7272L61.2993 26.1992L61.4875 26.673C61.5198 26.7511 61.5502 26.831 61.5806 26.9109L61.6718 27.1488C61.7326 27.3067 61.7915 27.4666 61.8504 27.6264L61.9378 27.8662L62.0233 28.106C62.0784 28.2658 62.1354 28.4257 62.1905 28.5874L62.352 29.0708C62.4546 29.3943 62.5591 29.7178 62.6541 30.0432L62.7263 30.2868C62.751 30.3686 62.7719 30.4504 62.7967 30.5323L62.8651 30.7778L62.8993 30.8996L62.9316 31.0232C62.9753 31.1869 63.019 31.3506 63.0608 31.5161L63.1824 32.0109L63.2964 32.5076C63.3154 32.5894 63.3325 32.6731 63.3496 32.7569L63.4009 33.0061L63.4275 33.1317C63.4351 33.1736 63.4427 33.2155 63.4522 33.2573L63.4997 33.5085C63.5149 33.5923 63.532 33.676 63.5453 33.7597L63.589 34.0109C63.6023 34.0947 63.6194 34.1784 63.6308 34.2621L63.6688 34.5152L63.7068 34.7664L63.7391 35.0195L63.7714 35.2726L63.798 35.5257L63.8246 35.7788L63.8474 36.0338L63.8702 36.2888L63.8873 36.5438C63.893 36.6294 63.8987 36.7132 63.9025 36.7988L63.9139 37.0538C63.9412 37.7358 63.9304 38.4187 63.8816 39.0995C63.8307 39.7823 63.729 40.4604 63.5776 41.1281L63.5149 41.3774L63.4826 41.5011C63.4712 41.5429 63.4598 41.5829 63.4465 41.6248L63.3743 41.8721L63.2945 42.1176L63.2546 42.2394L63.209 42.3612L63.1178 42.6029L63.0171 42.8408L62.9924 42.8997L62.9791 42.9302L62.9658 42.9587L62.9107 43.0748L62.8556 43.1909L62.8271 43.2499C62.8176 43.2689 62.8062 43.288 62.7967 43.307L62.6769 43.5353C62.6579 43.5734 62.6351 43.6096 62.6123 43.6476L62.5477 43.7599L62.4831 43.8703L62.4128 43.9787L62.3425 44.0872C62.3197 44.1234 62.2969 44.1595 62.2703 44.1938L62.1202 44.4031L62.1012 44.4297L62.0803 44.4545L62.0404 44.5059L61.9606 44.6067C61.934 44.641 61.9074 44.6752 61.8789 44.7076L61.7934 44.8046L61.7079 44.9017C61.6927 44.9169 61.6794 44.934 61.6642 44.9493L61.6186 44.9949L61.438 45.1795L61.248 45.3546L61.2005 45.3984C61.1849 45.4133 61.1684 45.4273 61.1511 45.4402L61.0523 45.5221L60.9535 45.6039C60.9193 45.6305 60.8851 45.6553 60.8509 45.6819L60.7483 45.7599C60.7141 45.7847 60.6799 45.8113 60.6438 45.836L60.4291 45.9788L60.4025 45.9959L60.374 46.013L60.3189 46.0454L60.2086 46.1101C60.1725 46.131 60.1364 46.1557 60.0984 46.1748L59.9844 46.2357L59.8704 46.2947C59.8514 46.3042 59.8324 46.3156 59.8134 46.3232L59.7545 46.3498L59.5227 46.4564L59.2852 46.5516C59.2073 46.5858 59.1256 46.6106 59.0458 46.6391L58.926 46.681C58.9051 46.6886 58.8862 46.6962 58.8652 46.7019L58.8044 46.719L58.5593 46.7913C58.4776 46.8123 58.394 46.8313 58.3123 46.8522C58.2705 46.8618 58.2306 46.8732 58.1888 46.8808L58.0634 46.9055C57.9798 46.9207 57.8981 46.9398 57.8145 46.9531C57.6473 46.9778 57.4819 47.0064 57.3128 47.0197C56.9784 47.0578 56.6421 47.0692 56.3057 47.0749L56.0549 47.0711L55.9295 47.0692L55.8041 47.0635L55.5533 47.0501C55.5115 47.0482 55.4697 47.0444 55.4279 47.0406L55.3025 47.0292L55.1771 47.0178C55.1353 47.014 55.0935 47.0121 55.0517 47.0064L54.8027 46.9759L54.6792 46.9607C54.6374 46.955 54.5975 46.9493 54.5557 46.9417L54.3087 46.9036C54.2251 46.8922 54.1434 46.877 54.0617 46.8618L53.8166 46.8161C53.7748 46.8085 53.7348 46.8009 53.6949 46.7913L53.5733 46.7647L53.3282 46.7114C53.1667 46.6734 53.0052 46.6334 52.8437 46.5934L52.3629 46.4564ZM52.4408 46.1843C53.0698 46.3666 53.7095 46.5096 54.3562 46.6125C55.0009 46.7157 55.6529 46.766 56.3057 46.7628C56.631 46.7584 56.9557 46.7368 57.2786 46.6981C57.4401 46.6829 57.5997 46.6524 57.7594 46.6277C57.8392 46.6125 57.919 46.5953 57.9969 46.5782L58.1166 46.5535C58.1565 46.544 58.1945 46.5325 58.2344 46.523C58.3123 46.5021 58.3921 46.4831 58.47 46.4621L58.7018 46.3898L58.7588 46.3727C58.7778 46.367 58.7968 46.3594 58.8158 46.3518L58.9299 46.3099C59.0059 46.2813 59.0819 46.2566 59.156 46.2224L59.3783 46.1272L59.5968 46.0206L59.6519 45.994C59.6709 45.9845 59.688 45.975 59.7051 45.9655L59.8115 45.9065L59.9179 45.8475C59.954 45.8284 59.9863 45.8056 60.0205 45.7847L60.1231 45.72L60.1744 45.6876L60.1991 45.6724L60.2239 45.6553L60.4215 45.5163C60.4557 45.4935 60.4861 45.4688 60.5184 45.444L60.6134 45.3698C60.6457 45.3451 60.678 45.3203 60.7084 45.2956L60.7996 45.2157L60.8908 45.1358L60.9364 45.0958L60.9801 45.0539L61.153 44.8846L61.3164 44.7076L61.3582 44.6638L61.3981 44.6181L61.4761 44.5249L61.554 44.4316C61.5787 44.4012 61.6034 44.3669 61.6281 44.3346L61.7003 44.2375L61.7364 44.19L61.7554 44.1652L61.7725 44.1405L61.9093 43.9407C61.9321 43.9083 61.953 43.8722 61.9739 43.8379L62.0366 43.7352L62.0993 43.6324L62.1582 43.5258L62.2171 43.4193C62.2361 43.3831 62.257 43.3489 62.2741 43.3127L62.3805 43.0939C62.39 43.0748 62.3976 43.0577 62.4071 43.0387L62.4318 42.9835L62.4812 42.8712L62.5306 42.7589L62.542 42.7304L62.5534 42.7018L62.5762 42.6447L62.6636 42.4183L62.7416 42.188L62.7796 42.072L62.8138 41.9559L62.8822 41.7218L62.943 41.4858C62.9525 41.4459 62.9639 41.4078 62.9734 41.3679L62.9981 41.248L63.0494 41.0082C63.1693 40.3662 63.2411 39.7161 63.2641 39.0633C63.285 38.4088 63.266 37.7536 63.2071 37.1014C63.1501 36.4486 63.0608 35.7978 62.943 35.1508C62.8251 34.5038 62.6807 33.8644 62.5135 33.2269C62.3463 32.5894 62.1582 31.9614 61.9511 31.3372C61.744 30.7131 61.5179 30.0946 61.2765 29.4837L61.0922 29.0251C61.0314 28.8729 60.9649 28.7225 60.9022 28.5703C60.8699 28.4942 60.8395 28.4181 60.8053 28.3438L60.7065 28.1174C60.64 27.9671 60.5754 27.8167 60.5051 27.6664L60.4025 27.4418C60.3683 27.3676 60.3341 27.2915 60.2999 27.2173L60.0889 26.7701L59.8723 26.3267L59.8172 26.2163L59.7621 26.1059L59.65 25.8852C59.3517 25.2991 59.042 24.7168 58.7189 24.144C58.3959 23.5712 58.0615 23.0041 57.7157 22.4427C57.3698 21.8813 57.0126 21.3295 56.6459 20.7814C56.5528 20.6444 56.4635 20.5074 56.3685 20.3723L56.0872 19.965C55.8972 19.6967 55.7091 19.4265 55.5134 19.1601C55.1258 18.6272 54.7324 18.1001 54.3258 17.5825C52.7048 15.5068 50.937 13.5506 49.0358 11.7289C48.0857 10.8193 47.1014 9.94583 46.0811 9.11803C45.5718 8.70318 45.0531 8.30038 44.5248 7.90964L44.1277 7.61848L43.7268 7.33303L43.322 7.05329C43.2555 7.00572 43.1871 6.96005 43.1187 6.91438L42.9135 6.77736C41.8209 6.05233 40.6922 5.38248 39.5217 4.80016C38.3513 4.21785 37.139 3.71927 35.8906 3.3558C35.268 3.17418 34.6346 3.03181 33.9942 2.92953C33.3578 2.8274 32.7138 2.78092 32.0694 2.79062L31.83 2.80013C31.7901 2.80203 31.7501 2.80203 31.7102 2.80584L31.5905 2.81535L31.4708 2.82487L31.41 2.82868L31.3511 2.83438L31.1136 2.86103C30.7975 2.90228 30.4841 2.96201 30.1749 3.03991C29.8685 3.12126 29.5677 3.22233 29.2743 3.34248L29.0576 3.43763L28.8448 3.54229C28.8087 3.55942 28.7745 3.57845 28.7403 3.59748L28.6358 3.65457L28.5845 3.68312L28.5579 3.69644L28.5332 3.71166L28.4325 3.77446C28.1637 3.9391 27.9088 4.12559 27.6705 4.33203C27.4326 4.53991 27.2109 4.76575 27.0074 5.00759L26.9314 5.09893C26.9067 5.12938 26.8801 5.15983 26.8573 5.19218L26.7148 5.38248C26.6692 5.44718 26.6255 5.51378 26.5798 5.57848L26.5456 5.62796L26.5133 5.67934L26.4506 5.7802L26.3879 5.88106L26.329 5.98572L26.2701 6.09039L26.2416 6.14177L26.215 6.19505L26.1067 6.40818L26.0079 6.62512C25.9737 6.69744 25.9452 6.77165 25.9148 6.84587L25.8692 6.95624C25.854 6.9924 25.8407 7.03046 25.8274 7.06852C25.8008 7.14464 25.7723 7.21885 25.7457 7.29497L25.6716 7.52333L25.6526 7.58042L25.6355 7.63751L25.6032 7.75359C25.5823 7.83161 25.5576 7.90773 25.5405 7.98575L25.4835 8.21982C25.4664 8.29784 25.4493 8.37777 25.4341 8.45579L25.4094 8.57378L25.3885 8.69366L25.3467 8.93154L25.3125 9.17131L25.2954 9.2912L25.2821 9.41109L25.2554 9.65277L25.2364 9.89444L25.2269 10.0162L25.2212 10.138L25.2079 10.3816C25.1839 11.0321 25.1978 11.6834 25.2497 12.3322C25.301 12.983 25.3847 13.6319 25.4987 14.2751C25.7248 15.5634 26.0592 16.8365 26.4658 18.0849C26.6692 18.7091 26.8915 19.3275 27.1271 19.9422C27.3665 20.5549 27.6192 21.162 27.8853 21.7633L28.0886 22.2124L28.2976 22.6596C28.366 22.81 28.4401 22.9565 28.5123 23.1049L28.6206 23.3276C28.6567 23.4018 28.6947 23.4741 28.7308 23.5483C29.0234 24.1383 29.3332 24.7187 29.6524 25.2953C30.9293 27.5979 32.3905 29.8015 33.9961 31.891C34.1956 32.1536 34.4009 32.4105 34.6042 32.6693C34.8113 32.9262 35.0165 33.1831 35.2274 33.4362C35.4383 33.6893 35.6512 33.9405 35.864 34.1936C36.0806 34.4429 36.2953 34.6922 36.5138 34.9377C36.7323 35.1832 36.9547 35.4267 37.177 35.6703L37.5133 36.0319L37.5969 36.1213L37.6824 36.2108L37.8534 36.3897L38.0244 36.5685C38.0814 36.6275 38.1403 36.6865 38.1973 36.7455C38.3133 36.8635 38.4273 36.9815 38.5432 37.0976L38.8947 37.4458C39.0106 37.5619 39.1303 37.6761 39.2481 37.7902C40.1963 38.7056 41.1799 39.581 42.1991 40.4164C42.7102 40.8312 43.2296 41.2359 43.7572 41.6305C44.2854 42.0244 44.8251 42.3993 45.3742 42.7627C45.511 42.8541 45.6478 42.9454 45.7884 43.033L45.9975 43.1662C46.0678 43.2099 46.1362 43.2556 46.2065 43.2975L46.6264 43.5544L47.052 43.8056C47.6221 44.1348 48.1997 44.4469 48.7907 44.7361C49.9585 45.3243 51.181 45.8208 52.4408 46.1843Z" fill="#F47423"/>
<path d="M25.7677 4.03307C24.3749 4.36609 22.9878 4.6934 21.6026 5.03023C20.2174 5.36706 18.8398 5.7115 17.4679 6.07306C16.096 6.43463 14.7298 6.81332 13.3769 7.22437C13.0386 7.32522 12.7023 7.43179 12.3641 7.53836L11.8605 7.69821L11.357 7.85996C10.6862 8.0769 10.0187 8.30082 9.35424 8.53171C8.69109 8.76388 8.02984 9.00555 7.37809 9.26626C6.72634 9.52697 6.08219 9.80861 5.45704 10.1245C4.83189 10.4404 4.22385 10.7905 3.6576 11.1978C3.09136 11.605 2.56502 12.0674 2.13369 12.6041C2.02538 12.7392 1.92467 12.8781 1.83156 13.0208C1.73696 13.1632 1.65129 13.3113 1.57504 13.4642C1.42182 13.7671 1.30937 14.089 1.24062 14.4214C1.17296 14.7518 1.15439 15.0904 1.18551 15.4262C1.21699 15.7636 1.29171 16.0956 1.40783 16.4139C1.46503 16.5741 1.531 16.731 1.60544 16.8839C1.67955 17.038 1.76126 17.1884 1.85056 17.3349L1.88287 17.3901L1.91707 17.4453C1.93987 17.4814 1.96267 17.5176 1.98737 17.5537C2.03678 17.6241 2.08238 17.6965 2.13369 17.7669C2.23249 17.9077 2.3408 18.0428 2.44911 18.1779C2.67043 18.4446 2.90508 18.7 3.15216 18.9429C3.39918 19.1865 3.6595 19.4187 3.92552 19.6432C4.45946 20.0904 5.02761 20.5034 5.60715 20.8954C5.89788 21.0914 6.1924 21.2836 6.49072 21.4682C6.78904 21.6528 7.08927 21.8373 7.39139 22.0143C7.69351 22.1913 7.99944 22.3683 8.30536 22.5395C8.45737 22.6271 8.61319 22.7108 8.7671 22.7964C8.92101 22.8821 9.07492 22.9658 9.23073 23.0495C9.85018 23.3845 10.4772 23.7086 11.1119 24.022C12.3793 24.648 13.6695 25.2304 14.9673 25.7955C16.2651 26.3607 17.5762 26.905 18.8873 27.4492C21.5114 28.5339 24.1564 29.5825 26.8109 30.6158L30.7993 32.1667L31.7969 32.5568L32.7945 32.9488C33.4595 33.2115 34.1246 33.4741 34.7877 33.7481L34.7459 33.8851C34.3963 33.809 34.0466 33.7303 33.697 33.6491C33.3474 33.5679 32.999 33.4842 32.6519 33.3979C31.9565 33.2286 31.2629 33.0478 30.5713 32.8651C29.188 32.4959 27.8116 32.102 26.4423 31.6834C25.0729 31.2647 23.7105 30.8219 22.355 30.3551C21.6786 30.121 21.0034 29.88 20.3295 29.6319L19.826 29.4436C19.6568 29.3808 19.4896 29.3161 19.3224 29.2533C18.9861 29.1264 18.6517 28.9964 18.3191 28.8631C15.6409 27.8059 13.028 26.5896 10.4943 25.2208C9.85968 24.8783 9.23073 24.5225 8.60748 24.1533C8.52958 24.1076 8.45167 24.06 8.37567 24.0144L8.14385 23.8735L7.91393 23.7308C7.83793 23.6832 7.76002 23.6357 7.68401 23.5862C7.37809 23.3921 7.07533 23.1923 6.77574 22.9867L6.55153 22.8326L6.32921 22.6747C6.2551 22.6233 6.181 22.5681 6.10879 22.5148C6.03659 22.4615 5.96248 22.4082 5.88838 22.3531C5.59575 22.1361 5.3082 21.9128 5.02571 21.6832C4.45675 21.2254 3.91313 20.7369 3.39728 20.2198C2.88044 19.7003 2.3959 19.1446 1.96837 18.5433C1.86386 18.391 1.75936 18.2388 1.66245 18.0809C1.61304 18.0028 1.56744 17.9229 1.51994 17.843C1.49714 17.803 1.47433 17.7612 1.45153 17.7212L1.41733 17.6603L1.38503 17.5994C1.20938 17.27 1.06374 16.9255 0.949893 16.5699C0.835016 16.2113 0.764189 15.84 0.738978 15.4643C0.713189 15.0869 0.740049 14.7077 0.818783 14.3377C0.898048 13.97 1.02184 13.6135 1.18741 13.2758C1.35206 12.9421 1.54708 12.6243 1.77 12.3264C1.99209 12.0318 2.2333 11.7521 2.49205 11.4891C2.55666 11.4225 2.62126 11.3597 2.68777 11.295C2.75427 11.2303 2.82078 11.1675 2.88728 11.1066C2.95379 11.0457 3.02219 10.9829 3.0906 10.922C3.159 10.8611 3.22931 10.8022 3.29962 10.7432C3.86022 10.2742 4.45049 9.84192 5.06675 9.44914C5.37268 9.25123 5.68367 9.06157 5.99972 8.88015C6.15744 8.78881 6.31515 8.69937 6.47476 8.61183C6.63437 8.52429 6.79399 8.43866 6.9555 8.35493C7.59965 8.0181 8.259 7.70982 8.92595 7.42817C9.5929 7.14653 10.2694 6.88773 10.9534 6.65366L11.2099 6.56613L11.4664 6.48239C11.6375 6.42531 11.8104 6.37202 11.9833 6.31874C12.3272 6.21217 12.6749 6.11131 13.0208 6.01236C14.4079 5.62034 15.8064 5.28225 17.2163 4.99807C18.6262 4.71389 20.0418 4.47665 21.4631 4.28636C22.1738 4.19311 22.8863 4.10938 23.6008 4.04277C23.958 4.00852 24.3152 3.97934 24.6725 3.95524C25.0297 3.9305 25.3888 3.90957 25.7479 3.89815L25.7677 4.03307Z" fill="#F47423"/>
<path d="M73.9643 40.8769C72.9611 39.6628 71.4372 38.9815 69.9626 38.54C68.3247 38.051 66.6089 37.8264 64.9044 37.7332C64.3211 37.7008 63.7378 37.6856 63.1525 37.6913C62.9853 37.6932 62.6509 37.7693 62.4932 37.7065C64.4161 38.4715 65.9913 39.9083 67.1599 41.5962C67.7357 42.4278 68.2373 43.3317 68.6192 44.2699C68.9879 45.1757 69.1304 46.3613 70.031 46.9207C70.7037 47.3375 71.5797 47.4574 72.353 47.3261C73.0466 47.2081 73.6698 46.837 74.1639 46.3441C75.5928 44.9188 75.1614 42.3289 73.9643 40.8769ZM74.0651 44.3099L71.5417 40.0795C71.5398 40.0795 74.2247 41.6552 74.0651 44.3099Z" fill="#F89520"/>
<path d="M62.1676 35.6855C61.4759 33.6608 58.9107 32.6845 56.9688 33.3696C55.175 34.0033 54.0425 35.8054 52.5357 36.8273C51.0688 37.8226 49.448 38.6199 47.7131 39.0139C47.0747 39.1585 44.9636 39.6533 44.3594 39.0976C44.4506 39.1832 44.5437 39.267 44.6387 39.3507C48.0495 42.384 52.4768 43.9844 56.9783 42.738C60.3503 41.8038 63.5072 39.6076 62.1676 35.6855ZM57.4362 41.5011L61.5481 36.9472C60.7386 40.4202 57.4362 41.5011 57.4362 41.5011Z" fill="#F89520"/>
<path d="M48.9577 32.243C48.6898 32.0698 48.3725 31.9766 48.0438 32.0222C47.6789 32.0717 47.2875 32.262 47.0158 32.5722C46.651 32.9871 46.689 33.6036 46.5977 34.1117C46.5014 34.6439 46.3551 35.1657 46.1607 35.6703C45.7712 36.6922 45.1745 37.6475 44.3594 38.3192C44.4259 38.264 44.5855 38.2526 44.6634 38.2279C44.9313 38.1422 45.1973 38.0471 45.4615 37.9443C46.2329 37.6437 47.0006 37.2745 47.7074 36.7835C48.344 36.342 48.9843 35.7711 49.3378 35.0137C49.7596 34.1079 49.733 32.7456 48.9577 32.243ZM48.2965 35.7787L49.0869 33.2801C49.3891 34.5856 48.2965 35.7787 48.2965 35.7787Z" fill="#F89520"/>
<path d="M70.8722 27.0135C70.4808 25.0325 68.0885 23.9535 66.2207 24.1438C64.6568 24.3036 63.2431 25.1961 62.0574 26.1781C60.7406 27.2704 59.6025 28.5758 58.5783 29.9422C58.2287 30.4103 57.8904 30.8879 57.5712 31.377C57.48 31.5159 57.3565 31.8394 57.2178 31.9346C58.9203 30.7566 60.9877 30.2428 63.0398 30.2067C64.0507 30.1895 65.0806 30.2733 66.0706 30.475C67.0282 30.671 68.0904 31.2114 69.0557 30.7699C69.7758 30.4407 70.3611 29.7785 70.6822 29.0611C70.971 28.4236 71.009 27.7004 70.8722 27.0135ZM64.2103 25.7194C64.2103 25.7194 67.0092 24.3569 69.126 25.9668L64.2103 25.7194Z" fill="#F89520"/>
<path d="M66.7045 32.1041C65.9596 31.674 65.0836 31.7939 64.7492 32.3743C64.4148 32.9547 64.7473 33.773 65.4941 34.2049C66.2408 34.6369 67.1149 34.5151 67.4493 33.9347C67.7837 33.3543 67.4493 32.5362 66.7045 32.1041ZM67.0066 33.655C66.9074 33.655 66.8104 33.6255 66.7279 33.5703C66.6454 33.5151 66.5811 33.4367 66.5431 33.3449C66.5052 33.2531 66.4952 33.152 66.5146 33.0546C66.5339 32.9571 66.5817 32.8676 66.6519 32.7974C66.722 32.7271 66.8114 32.6792 66.9087 32.6599C67.006 32.6405 67.1069 32.6504 67.1985 32.6884C67.2902 32.7265 67.3686 32.7909 67.4237 32.8735C67.4788 32.9561 67.5082 33.0532 67.5082 33.1526C67.5083 33.2186 67.4954 33.284 67.4702 33.3449C67.445 33.4059 67.4081 33.4613 67.3615 33.508C67.3149 33.5547 67.2595 33.5917 67.1986 33.6169C67.1377 33.6421 67.0725 33.6551 67.0066 33.655Z" fill="#F89520"/>
<path d="M52.3116 30.8883C51.5667 30.4582 50.6908 30.5781 50.3563 31.1585C50.0219 31.7389 50.3563 32.5572 51.1012 32.9892C51.8461 33.4212 52.722 33.2994 53.0564 32.719C53.3909 32.1385 53.0564 31.3203 52.3116 30.8883ZM52.6118 32.4411C52.5126 32.4411 52.4156 32.4117 52.3331 32.3565C52.2506 32.3012 52.1863 32.2228 52.1484 32.131C52.1104 32.0392 52.1005 31.9382 52.1198 31.8407C52.1392 31.7433 52.1869 31.6537 52.2571 31.5835C52.3273 31.5132 52.4166 31.4654 52.5139 31.446C52.6113 31.4266 52.7121 31.4366 52.8038 31.4746C52.8954 31.5126 52.9738 31.577 53.0289 31.6596C53.084 31.7422 53.1135 31.8394 53.1135 31.9387C53.1136 32.0047 53.1006 32.0701 53.0755 32.1311C53.0503 32.1921 53.0134 32.2476 52.9668 32.2943C52.9202 32.341 52.8648 32.378 52.8039 32.4032C52.743 32.4284 52.6777 32.4414 52.6118 32.4413V32.4411Z" fill="#F89520"/>
<path d="M44.8342 43.3926C44.8342 43.3926 29.8648 44.7133 25.2209 42.3231C25.1918 42.3996 25.1589 42.4746 25.1221 42.5477L35.5292 53.859L53.4209 47.6077C53.4228 47.6096 48.11 45.9693 44.8342 43.3926Z" fill="#F89520"/>
<path d="M21.3438 58.2987C21.2564 58.4833 21.1652 58.6698 21.0664 58.8524C20.9676 59.0351 20.8631 59.2197 20.7491 59.4024C20.694 59.4918 20.637 59.5794 20.5762 59.6688C21.8835 59.783 24.9522 59.8972 27.81 58.8696C27.81 58.8696 30.9168 57.9276 33.5542 55.7772L33.5561 55.7791L23.9831 43.7294C23.5937 43.9396 23.1581 44.0495 22.7157 44.0491C22.6625 44.0491 22.6112 44.0472 22.5599 44.0453V44.0796L22.5637 44.3727L22.5713 44.9588L22.5808 46.1329L22.5827 47.3052L22.5808 47.8913L22.5751 48.4774L22.5656 49.0616L22.5542 49.6458L22.5238 50.8142C22.5181 51.0084 22.5162 51.2044 22.5162 51.4004C22.5162 51.5964 22.52 51.7924 22.5257 51.9884C22.5371 52.3804 22.5542 52.7724 22.558 53.1644C22.5644 53.5539 22.548 53.9434 22.5086 54.331C22.4673 54.7179 22.4013 55.1018 22.311 55.4804C22.1313 56.2527 21.8898 57.0094 21.5889 57.743C21.5509 57.8363 21.511 57.9295 21.4711 58.0227C21.4312 58.116 21.3875 58.2075 21.3438 58.2987Z" fill="#F89520"/>
<path d="M8.68066 51.0959C8.73576 51.0102 8.79086 50.9265 8.84787 50.8428C8.90487 50.759 8.96188 50.6772 9.01888 50.5954C9.47425 49.9559 9.98072 49.3544 10.5333 48.7971C10.8026 48.5218 11.0895 48.2643 11.3922 48.0263C11.6964 47.7894 12.015 47.5714 12.346 47.3736C12.6767 47.1719 13.0149 46.9816 13.3493 46.7856C13.5165 46.6866 13.6818 46.5877 13.8472 46.4849C14.0125 46.3822 14.174 46.2794 14.3355 46.1728L15.3008 45.5334L15.7853 45.2156L16.2717 44.9017L16.7601 44.5896L17.2503 44.2813L18.2365 43.6685L19.2265 43.0615L19.7243 42.7608L19.9732 42.6105L20.2222 42.462C20.2374 42.4525 20.2507 42.4449 20.2659 42.4354C20.1491 42.1667 20.0772 41.8806 20.053 41.5886H20.0112L19.7243 41.5867L19.4374 41.5848L18.8636 41.579L17.7197 41.5619L16.5758 41.5372L16.0038 41.522L15.4319 41.5029L14.8599 41.4801L14.2899 41.4534L13.1517 41.3945C12.9617 41.3849 12.7717 41.3773 12.5798 41.3735C12.3878 41.3697 12.1997 41.3678 12.0059 41.3697C11.624 41.3716 11.2402 41.3792 10.8582 41.3735C10.4782 41.3705 10.0988 41.3445 9.72194 41.2955C9.34561 41.2444 8.97303 41.1688 8.60655 41.069C7.85887 40.8703 7.12868 40.6106 6.42328 40.2926C6.33207 40.2527 6.24467 40.2089 6.15346 40.167C6.06225 40.1252 5.97484 40.0795 5.88554 40.0338C5.70692 39.9425 5.53021 39.8454 5.3554 39.7427C5.18058 39.6399 5.00577 39.5295 4.83096 39.4115C4.67704 39.3069 4.52313 39.1984 4.37492 39.0747C4.25521 39.8835 4.1849 40.7512 4.20581 41.6323C4.20581 41.6323 3.95119 47.2823 7.87499 52.6201C7.9358 52.4679 8.0023 52.3214 8.07071 52.1806C8.16382 51.9884 8.26262 51.8038 8.36333 51.623C8.46404 51.4422 8.57235 51.2671 8.68066 51.0959Z" fill="#F89520"/>
<path d="M20.4302 43.659L20.0254 44.0757L19.2122 44.9054L18.3951 45.7294L17.9847 46.1386L17.5723 46.5458L17.1581 46.9492L16.7401 47.3508L15.9021 48.1481C15.7615 48.2813 15.6247 48.4164 15.4879 48.5535C15.3511 48.6905 15.2181 48.8313 15.0851 48.9721C14.819 49.2537 14.5568 49.543 14.287 49.8189C14.0197 50.0969 13.736 50.3587 13.4376 50.603C13.1378 50.8446 12.823 51.0671 12.4952 51.269C11.8284 51.683 11.1294 52.0425 10.405 52.3442C10.3138 52.3822 10.2188 52.4184 10.1257 52.4565C10.0326 52.4945 9.93756 52.5288 9.84065 52.5611C9.64873 52.6296 9.45492 52.6943 9.2573 52.7533C9.05969 52.8123 8.85637 52.8675 8.64926 52.9151C8.48775 52.9512 8.32433 52.9855 8.15332 53.0102C9.1661 54.3328 12.9398 58.6164 19.9304 59.5946C19.8905 59.4937 19.8563 59.3928 19.8202 59.2939C19.7518 59.0903 19.6891 58.8885 19.634 58.6868C19.5789 58.4851 19.5314 58.2853 19.4877 58.0836C19.4649 57.9827 19.4459 57.8838 19.4269 57.7829C19.4079 57.6821 19.3889 57.5831 19.3737 57.4841C19.245 56.7016 19.1796 55.9099 19.178 55.1168C19.1747 54.7276 19.1963 54.3386 19.2426 53.9522C19.2909 53.5658 19.362 53.1827 19.4554 52.8047C19.5485 52.4241 19.653 52.0454 19.7499 51.6667C19.7993 51.4764 19.8468 51.2861 19.8905 51.0958C19.9342 50.9055 19.976 50.7152 20.014 50.523L20.2459 49.3774L20.3656 48.8046L20.4891 48.2319L20.6164 47.661L20.7456 47.0901L21.0116 45.9483L21.2852 44.8065L21.4258 44.2356L21.4961 43.9501L21.5398 43.7751C21.2717 43.6428 21.0271 43.4673 20.8159 43.2556L20.6297 43.4478L20.4302 43.659Z" fill="#F89520"/>
<path d="M5.65354 34.4656C5.65354 34.4656 4.84788 36.2696 4.43555 38.6769C4.61226 38.6008 4.78897 38.5399 4.96569 38.4828C5.1652 38.4181 5.36662 38.361 5.56423 38.3115C5.76185 38.262 5.96136 38.2183 6.15708 38.1802C6.25589 38.1612 6.35279 38.1441 6.4516 38.1269C6.55041 38.1098 6.64732 38.0946 6.74612 38.0813C7.51307 37.9711 8.2878 37.9246 9.0624 37.9423C9.44216 37.9486 9.8211 37.9797 10.1968 38.0356C10.5719 38.0935 10.9431 38.1742 11.3084 38.2773C11.6751 38.3781 12.0437 38.4923 12.4086 38.6008C12.591 38.6541 12.7753 38.7054 12.9615 38.7549C13.1477 38.8044 13.3301 38.8501 13.5163 38.8938L14.626 39.1545L15.1809 39.2878L15.7357 39.4248L16.2906 39.5656L16.8454 39.7083L17.9513 40.0014L19.0553 40.302L19.6082 40.4562L19.8837 40.5323L20.1555 40.6084C20.2646 40.2345 20.454 39.889 20.7103 39.596L11.031 27.4131C11.0272 27.415 7.49668 30.0526 5.65354 34.4656Z" fill="#F89520"/>
<path d="M33.9748 56.2987C33.9748 56.2987 30.64 58.8449 27.8069 59.5756C27.8069 59.5756 24.6318 60.8563 19.8567 60.2854C19.8567 60.2854 14.8992 59.92 9.96454 55.8229C9.96454 55.8229 6.46827 53.0769 4.66313 48.0207C4.66313 48.0207 3.47554 44.7952 3.52114 41.522C3.52114 41.522 3.47553 37.7008 5.05266 34.108C5.05266 34.108 6.9129 29.6893 10.6087 26.8881L8.41212 24.1231C-1.22163 31.7997 -2.81585 45.8475 4.84934 55.4956C12.5145 65.1437 26.5414 66.7422 36.1752 59.0637L33.9748 56.2987Z" fill="#F47423"/>
<path d="M100.134 39.2879C98.6831 39.2879 97.4212 38.9878 96.3489 38.3874C95.2766 37.7871 94.4604 36.9226 93.9004 35.7938C93.3421 34.6651 93.0628 33.3872 93.0625 31.96C93.0625 30.5402 93.3418 29.264 93.9004 28.1312C94.459 26.9985 95.2784 26.1323 96.3585 25.5326C97.4386 24.9322 98.6973 24.632 100.134 24.632C101.566 24.632 102.821 24.9322 103.901 25.5326C104.981 26.1329 105.801 26.9992 106.359 28.1312C106.918 29.2626 107.197 30.5389 107.197 31.96C107.197 33.3872 106.918 34.6651 106.359 35.7938C105.801 36.9226 104.986 37.7871 103.916 38.3874C102.845 38.9878 101.585 39.2879 100.134 39.2879ZM100.134 37.3733C101.478 37.3733 102.478 36.8243 103.134 35.7264C103.79 34.6285 104.118 33.3715 104.118 31.9554C104.118 30.533 103.788 29.276 103.129 28.1845C102.47 27.093 101.472 26.547 100.134 26.5467C98.7911 26.5467 97.7898 27.0926 97.1306 28.1845C96.4714 29.2763 96.1418 30.5333 96.1418 31.9554C96.1418 33.3711 96.4699 34.6281 97.1261 35.7264C97.7822 36.8247 98.785 37.3737 100.134 37.3733Z" fill="#F47423"/>
<path d="M111.271 38.9391V24.9809H116.486C117.554 24.9809 118.367 25.1146 118.926 25.382C119.479 25.6448 119.94 26.069 120.249 26.5989C120.572 27.1428 120.733 27.7574 120.734 28.4426C120.734 29.26 120.497 30.0317 120.025 30.7578C119.552 31.4839 118.888 32.0394 118.033 32.4245L122.595 38.9416H119.063L115.597 33.2358H114.002V38.9416L111.271 38.9391ZM114.002 31.3186H114.67C115.867 31.3186 116.694 31.0576 117.151 30.5357C117.607 30.0138 117.835 29.4222 117.835 28.761C117.835 28.1884 117.65 27.7341 117.278 27.398C116.907 27.062 116.152 26.8939 115.013 26.8935H114.002V31.3186Z" fill="#F47423"/>
<path d="M124.518 38.9391L129.944 24.9809H132.851L138.274 38.9391H135.294L133.846 35.2138H128.074L126.625 38.9391H124.518ZM128.8 33.356H133.126L130.964 27.7915L128.8 33.356Z" fill="#F47423"/>
<path d="M141.71 38.9391V24.9809H144.267L150.712 34.5135V24.9809H153.038V38.9391H150.437L144.036 29.4065V38.9391H141.71Z" fill="#F47423"/>
<path d="M169.131 38.6105C167.888 38.931 166.983 39.1243 166.414 39.1906C165.816 39.2582 165.213 39.2912 164.611 39.2895C161.999 39.2895 160.1 38.5965 158.914 37.2105C157.728 35.8246 157.134 34.0682 157.132 31.9412C157.132 30.5516 157.392 29.3018 157.914 28.1921C158.419 27.0999 159.245 26.1884 160.282 25.5797C161.34 24.9479 162.773 24.632 164.581 24.632C166.11 24.6324 167.633 24.8128 169.12 25.1695V27.4427C167.858 27.0086 166.951 26.7509 166.398 26.6694C165.875 26.5899 165.346 26.5489 164.816 26.5467C163.184 26.5467 162.008 27.0749 161.29 28.1312C160.571 29.1876 160.211 30.4671 160.211 31.9696C160.211 33.6104 160.635 34.9149 161.482 35.8831C162.33 36.8512 163.523 37.3354 165.061 37.3358C165.454 37.3287 165.845 37.2813 166.229 37.1943V32.6014H169.131V38.6105Z" fill="#F47423"/>
<path d="M173.843 38.9391V24.9809H182.77V26.9052H176.745V30.7907H181.726V32.7145H176.745V36.9586H183.214V38.9391H173.843Z" fill="#F47423"/>
<path d="M205.732 38.392C205.125 38.6597 204.594 38.8433 204.14 38.9426C203.075 39.1676 201.989 39.2833 200.9 39.288C198.464 39.288 196.647 38.5994 195.448 37.2222C194.249 35.8451 193.649 34.091 193.649 31.96C193.649 29.8162 194.247 28.0584 195.443 26.6866C196.639 25.3149 198.518 24.63 201.079 24.6321C202.601 24.6331 204.118 24.8135 205.599 25.1695V27.4427C204.877 27.1912 204.286 27.0073 203.827 26.891C203.397 26.7803 202.962 26.6936 202.522 26.6314C202.115 26.5753 201.704 26.547 201.293 26.5467C199.692 26.5467 198.531 27.0622 197.809 28.0932C197.087 29.1242 196.726 30.4007 196.726 31.9225C196.726 33.519 197.136 34.811 197.955 35.7984C198.774 36.7858 199.994 37.2794 201.614 37.279C202.964 37.279 204.335 36.9364 205.729 36.2512L205.732 38.392Z" fill="#F47423"/>
<path d="M209.722 38.9391V24.9809H212.623V36.9586H218.828V38.9391H209.722Z" fill="#F47423"/>
<path d="M222.403 38.9391V24.9809H231.33V26.9052H225.305V30.7907H230.287V32.7145H225.305V36.9586H231.775V38.9391H222.403Z" fill="#F47423"/>
<path d="M233.927 38.9391L239.356 24.9809H242.263L247.687 38.9391H244.706L243.257 35.2133H237.485L236.037 38.9386L233.927 38.9391ZM238.209 33.356H242.535L240.372 27.7915L238.209 33.356Z" fill="#F47423"/>
<path d="M251.118 38.9391V24.9809H253.675L260.121 34.5136V24.9809H262.447V38.9391H259.845L253.444 29.4065V38.9391H251.118Z" fill="#F47423"/>
<path d="M267.404 38.9391V24.9809H270.305V38.9391H267.404Z" fill="#F47423"/>
<path d="M275.266 38.9391V24.9809H277.822L284.268 34.5135V24.9809H286.593V38.9391H283.991L277.59 29.4065V38.9391H275.266Z" fill="#F47423"/>
<path d="M302.686 38.6105C301.443 38.931 300.537 39.1243 299.969 39.1906C299.37 39.2582 298.768 39.2912 298.166 39.2895C295.554 39.2895 293.655 38.5965 292.468 37.2105C291.281 35.8246 290.688 34.0688 290.688 31.9432C290.688 30.5536 290.949 29.3039 291.47 28.1941C291.975 27.1009 292.801 26.1885 293.839 25.5792C294.896 24.9474 296.329 24.6315 298.137 24.6315C299.666 24.6318 301.189 24.8122 302.676 25.169V27.4421C301.414 27.0081 300.507 26.7504 299.955 26.6689C299.431 26.5894 298.902 26.5483 298.373 26.5462C296.74 26.5462 295.565 27.0743 294.846 28.1307C294.128 29.1871 293.768 30.4665 293.768 31.9691C293.768 33.6099 294.192 34.9144 295.039 35.8826C295.887 36.8507 297.08 37.3349 298.618 37.3353C299.011 37.3282 299.402 37.2808 299.785 37.1938V32.6009H302.686V38.6105Z" fill="#F47423"/>
</g>
<defs>
<clipPath id="clip0_856_23729">
<rect width="302.686" height="63.9211" fill="white"/>
</clipPath>
</defs>
</svg>
