<svg width="444" height="420" viewBox="0 0 444 420" fill="none" xmlns="http://www.w3.org/2000/svg">
<g clip-path="url(#clip0_856_23438)">
<path d="M14.604 420C11.6068 420 9.001 419.38 6.78656 418.14C4.57212 416.901 2.88671 415.115 1.73036 412.785C0.577481 410.454 0.000697022 407.815 0 404.867C0 401.936 0.576784 399.3 1.73036 396.961C2.88393 394.622 4.57595 392.833 6.80642 391.595C9.03689 390.355 11.6361 389.735 14.604 389.735C17.5594 389.735 20.1523 390.355 22.3828 391.595C24.6132 392.834 26.3053 394.623 27.4588 396.961C28.6117 399.297 29.1885 401.933 29.1892 404.867C29.1892 407.815 28.6124 410.454 27.4588 412.785C26.3053 415.115 24.623 416.901 22.412 418.14C20.2018 419.38 17.5991 420 14.604 420ZM14.604 416.046C17.3788 416.046 19.4434 414.913 20.7977 412.645C22.1521 410.378 22.8296 407.782 22.8303 404.858C22.8303 401.921 22.1496 399.325 20.7883 397.071C19.427 394.817 17.3656 393.689 14.604 393.689C11.8299 393.689 9.76214 394.816 8.40086 397.071C7.03958 399.326 6.35893 401.921 6.35893 404.858C6.35893 407.781 7.03644 410.377 8.39145 412.645C9.74646 414.913 11.8173 416.047 14.604 416.046Z" fill="#F47423"/>
<path d="M37.6025 419.28V390.455H48.3715C50.5755 390.455 52.2546 390.731 53.4089 391.284C54.5517 391.826 55.504 392.702 56.1409 393.797C56.8079 394.92 57.1418 396.189 57.1425 397.604C57.1425 399.292 56.6546 400.885 55.6787 402.385C54.7029 403.884 53.3319 405.031 51.5656 405.827L60.9869 419.285H53.6922L46.5345 407.502H43.2421V419.285L37.6025 419.28ZM43.2421 403.543H44.6202C47.0932 403.543 48.8009 403.004 49.7433 401.926C50.6856 400.848 51.1568 399.627 51.1568 398.261C51.1568 397.079 50.7735 396.141 50.0067 395.447C49.24 394.753 47.6804 394.406 45.328 394.405H43.2421V403.543Z" fill="#F47423"/>
<path d="M64.957 419.28L76.162 390.455H82.1655L93.3652 419.28H87.2112L84.221 411.587H72.3019L69.3096 419.28H64.957ZM73.8002 407.75H82.7332L78.2688 396.259L73.8002 407.75Z" fill="#F47423"/>
<path d="M100.46 419.28V390.455H105.74L119.051 410.141V390.455H123.854V419.28H118.481L105.263 399.594V419.28H100.46Z" fill="#F47423"/>
<path d="M157.086 418.601C154.519 419.263 152.649 419.662 151.475 419.799C150.239 419.939 148.996 420.007 147.751 420.003C142.358 420.003 138.437 418.572 135.987 415.71C133.537 412.848 132.31 409.221 132.307 404.829C132.307 401.959 132.845 399.378 133.921 397.086C134.964 394.831 136.671 392.949 138.812 391.692C140.996 390.387 143.956 389.735 147.69 389.735C150.847 389.736 153.993 390.108 157.063 390.845V395.539C154.457 394.643 152.583 394.11 151.442 393.942C150.361 393.778 149.269 393.693 148.176 393.689C144.804 393.689 142.377 394.779 140.893 396.961C139.409 399.142 138.666 401.784 138.666 404.887C138.666 408.276 139.541 410.97 141.291 412.969C143.041 414.968 145.504 415.968 148.681 415.969C149.492 415.954 150.3 415.856 151.092 415.677V406.192H157.086V418.601Z" fill="#F47423"/>
<path d="M166.816 419.28V390.455H185.251V394.429H172.809V402.453H183.096V406.426H172.809V415.19H186.169V419.28H166.816Z" fill="#F47423"/>
<path d="M232.668 418.15C231.414 418.703 230.318 419.082 229.381 419.287C227.181 419.751 224.939 419.99 222.69 420C217.66 420 213.907 418.578 211.431 415.734C208.954 412.89 207.716 409.268 207.717 404.867C207.717 400.44 208.952 396.81 211.421 393.978C213.891 391.145 217.77 389.731 223.059 389.735C226.203 389.737 229.335 390.11 232.392 390.845V395.539C230.901 395.02 229.682 394.64 228.733 394.4C227.846 394.171 226.947 393.992 226.04 393.864C225.198 393.748 224.35 393.689 223.501 393.689C220.195 393.689 217.797 394.753 216.306 396.882C214.815 399.011 214.07 401.647 214.07 404.79C214.07 408.087 214.916 410.755 216.608 412.794C218.3 414.833 220.818 415.852 224.163 415.851C226.951 415.851 229.784 415.144 232.661 413.729L232.668 418.15Z" fill="#F47423"/>
<path d="M240.906 419.28V390.455H246.897V415.19H259.712V419.28H240.906Z" fill="#F47423"/>
<path d="M267.095 419.28V390.455H285.53V394.429H273.088V402.453H283.375V406.426H273.088V415.19H286.448V419.28H267.095Z" fill="#F47423"/>
<path d="M290.891 419.28L302.102 390.455H308.106L319.306 419.28H313.151L310.158 411.586H298.239L295.247 419.279L290.891 419.28ZM299.734 407.75H308.667L304.201 396.259L299.734 407.75Z" fill="#F47423"/>
<path d="M326.393 419.28V390.455H331.673L344.984 410.141V390.455H349.787V419.28H344.414L331.196 399.594V419.28H326.393Z" fill="#F47423"/>
<path d="M360.024 419.28V390.455H366.014V419.28H360.024Z" fill="#F47423"/>
<path d="M376.259 419.28V390.455H381.539L394.849 410.141V390.455H399.649V419.28H394.276L381.058 399.594V419.28H376.259Z" fill="#F47423"/>
<path d="M432.88 418.601C430.313 419.263 428.443 419.662 427.27 419.799C426.034 419.939 424.79 420.007 423.546 420.003C418.153 420.003 414.231 418.572 411.781 415.71C409.33 412.848 408.105 409.222 408.105 404.833C408.105 401.963 408.644 399.382 409.72 397.091C410.762 394.833 412.469 392.949 414.611 391.691C416.795 390.386 419.753 389.734 423.487 389.734C426.644 389.734 429.79 390.107 432.861 390.844V395.538C430.255 394.642 428.382 394.109 427.241 393.941C426.159 393.777 425.067 393.692 423.974 393.688C420.603 393.688 418.175 394.778 416.691 396.96C415.207 399.141 414.465 401.783 414.464 404.886C414.464 408.275 415.34 410.968 417.09 412.968C418.84 414.967 421.303 415.967 424.48 415.968C425.291 415.953 426.099 415.855 426.891 415.675V406.191H432.88V418.601Z" fill="#F47423"/>
<path d="M418.595 277.19V269.133H415.589V268.055H422.82V269.133H419.801V277.19H418.595Z" fill="#F47423"/>
<path d="M424.021 277.19V268.054H425.839L427.998 274.523C428.197 275.125 428.342 275.577 428.434 275.876C428.537 275.543 428.699 275.055 428.919 274.41L431.103 268.053H432.728V277.189H431.563V269.546L428.913 277.189H427.823L425.185 269.411V277.189L424.021 277.19Z" fill="#F47423"/>
<path d="M158.48 36.5487L89.9141 122.168L101.917 137.288" fill="#F47423"/>
<path d="M229.431 300.331L241.507 315.546L356.557 254.805" fill="#F47423"/>
<path d="M318.364 255.62C311.327 253.599 304.51 250.866 297.913 247.715C294.62 246.134 291.375 244.451 288.179 242.668L285.795 241.317L283.432 239.924C283.035 239.694 282.648 239.453 282.261 239.223L281.09 238.511C280.306 238.04 279.532 237.547 278.759 237.055L277.598 236.322L276.448 235.579L275.298 234.825L274.723 234.448L274.158 234.061L271.879 232.532L269.621 230.972C268.868 230.448 268.126 229.914 267.383 229.391C267.007 229.129 266.631 228.867 266.265 228.595L265.156 227.778C264.414 227.234 263.672 226.7 262.95 226.145C262.229 225.59 261.487 225.045 260.755 224.49C254.931 220.04 249.271 215.374 243.775 210.491C238.276 205.622 232.937 200.564 227.758 195.318C225.165 192.7 222.614 190.037 220.104 187.329C218.839 185.978 217.616 184.606 216.372 183.235C215.149 181.853 213.904 180.481 212.702 179.078C211.479 177.685 210.297 176.261 209.095 174.858C207.913 173.434 206.722 172.01 205.561 170.565C204.4 169.12 203.24 167.665 202.09 166.22C200.95 164.754 199.811 163.288 198.692 161.801C197.573 160.314 196.465 158.817 195.367 157.319C194.28 155.801 193.182 154.293 192.126 152.764C191.049 151.236 190.014 149.686 188.958 148.147L187.411 145.812L187.024 145.225L186.647 144.639L185.884 143.456C183.866 140.304 181.89 137.11 180.008 133.854C179.768 133.446 179.527 133.048 179.297 132.639L178.597 131.414C178.137 130.597 177.656 129.781 177.217 128.954L175.857 126.472L174.53 123.969C172.784 120.608 171.1 117.205 169.511 113.75L168.34 111.143L168.047 110.493L167.765 109.834L167.2 108.514L166.636 107.195L166.092 105.865C165.737 104.975 165.371 104.096 165.026 103.195L164.503 101.855C164.325 101.405 164.158 100.954 163.991 100.504C163.667 99.5931 163.322 98.6926 162.997 97.7816L162.056 95.0382L161.157 92.2634L160.31 89.4677C160.039 88.5253 159.777 87.5829 159.516 86.6406C159.254 85.6982 159.024 84.7349 158.773 83.782C158.543 82.8187 158.313 81.8554 158.083 80.9025C157.192 76.993 156.501 73.0402 156.013 69.0599L155.836 67.5416C155.804 67.2903 155.783 67.039 155.752 66.7772L155.679 66.0128C155.626 65.4998 155.585 64.9972 155.543 64.4841L155.438 62.9449C155.365 61.9187 155.334 60.8821 155.292 59.8455C155.271 59.3324 155.271 58.7984 155.26 58.2748C155.25 57.7513 155.25 57.2278 155.25 56.7042L155.281 55.1231L155.292 54.3273L155.323 53.5315L155.396 51.9399L155.522 50.3379L155.585 49.5316C155.605 49.2594 155.637 48.9976 155.668 48.7254L155.846 47.1024C155.919 46.5579 155.992 46.0134 156.076 45.4794L156.191 44.6627L156.337 43.8459C156.431 43.3014 156.526 42.757 156.63 42.2125L156.975 40.5685C157.08 40.024 157.226 39.4691 157.362 38.9246L157.571 38.0974C157.602 37.9613 157.644 37.8251 157.676 37.689L157.791 37.2807L158.272 35.6367C158.449 35.0922 158.627 34.5373 158.815 33.9928C158.909 33.7206 158.993 33.4483 159.098 33.1656L159.411 32.3489C159.62 31.8044 159.819 31.2494 160.059 30.7154L160.76 29.0819L161.534 27.4589L161.732 27.0506L161.941 26.6527L162.37 25.8464L162.799 25.0506L163.259 24.2653L163.719 23.48L163.949 23.0821L164.2 22.6947C164.534 22.1816 164.869 21.658 165.214 21.145C165.559 20.6319 165.935 20.1293 166.301 19.6267C166.479 19.3754 166.678 19.1346 166.866 18.8833L167.451 18.1503C169.042 16.1818 170.782 14.3404 172.658 12.6426C173.139 12.2238 173.62 11.8049 174.111 11.3966C174.603 10.9882 175.115 10.6008 175.617 10.2133L175.993 9.92015L176.38 9.63745L177.164 9.08248C177.426 8.90448 177.687 8.716 177.949 8.538L178.754 8.02492L179.559 7.51184L179.757 7.3862L179.966 7.27101L180.374 7.03018L181.2 6.55899C181.472 6.40193 181.754 6.24486 182.037 6.10874C182.601 5.81555 183.155 5.53284 183.72 5.25013C184.284 4.98836 184.859 4.72658 185.435 4.47528C187.705 3.50208 190.038 2.68349 192.419 2.02508C194.731 1.41202 197.077 0.936508 199.445 0.601039L201.191 0.381153C201.337 0.360211 201.483 0.339269 201.63 0.328798L202.058 0.286912L202.926 0.213614L203.794 0.140323C204.087 0.119381 204.369 0.108908 204.651 0.0984368L206.366 0.0251391L208.07 0.00419598C208.353 0.00419598 208.635 -0.00627494 208.917 0.00419598L209.754 0.0251391C210.318 0.0460809 210.883 0.0460809 211.437 0.0774937L213.099 0.171734C213.653 0.203147 214.197 0.255497 214.751 0.29738C215.305 0.339264 215.849 0.391619 216.393 0.454444L218.013 0.653394L218.818 0.758103L219.613 0.883749L221.213 1.13505C221.746 1.22929 222.269 1.32354 222.791 1.41778C223.847 1.60625 224.882 1.83661 225.918 2.0565C226.44 2.16121 226.942 2.28686 227.455 2.41251L228.991 2.78946C229.504 2.91511 229.995 3.06171 230.507 3.19783C231.02 3.33395 231.522 3.47008 232.013 3.61667L233.498 4.06691C233.989 4.2135 234.491 4.3601 234.982 4.52763L236.446 5.00929C236.687 5.09306 236.937 5.16636 237.178 5.25013L237.899 5.50143C238.861 5.84697 239.834 6.18204 240.775 6.55899L242.197 7.10348L243.608 7.66891C247.361 9.19766 251 10.8835 254.534 12.6949C261.612 16.3179 268.293 20.412 274.671 24.8412C281.049 29.2704 287.092 34.0347 292.884 39.0398C298.676 44.0449 304.176 49.3222 309.445 54.788C319.9 65.7009 329.466 77.4344 338.051 89.8761C346.603 102.224 354.179 115.224 360.708 128.755C362.339 132.126 363.893 135.533 365.371 138.974L365.925 140.262L366.197 140.911L366.469 141.561L367.535 144.157L368.57 146.765C368.748 147.194 368.915 147.634 369.082 148.073L369.584 149.382C369.919 150.251 370.243 151.131 370.567 152.01L371.048 153.33L371.518 154.649C371.822 155.529 372.135 156.408 372.439 157.298L373.327 159.958C373.892 161.738 374.467 163.518 374.99 165.309L375.387 166.649C375.523 167.099 375.638 167.549 375.774 168L376.15 169.35L376.338 170.02L376.516 170.701C376.757 171.602 376.997 172.502 377.227 173.413L377.896 176.135L378.524 178.868C378.628 179.319 378.722 179.779 378.816 180.24L379.099 181.612L379.245 182.303C379.287 182.533 379.329 182.764 379.381 182.994L379.642 184.376C379.726 184.837 379.82 185.298 379.893 185.758L380.134 187.14C380.207 187.601 380.301 188.062 380.364 188.523L380.573 189.915L380.782 191.297L380.96 192.69L381.137 194.083L381.284 195.475L381.43 196.868L381.556 198.271L381.681 199.674L381.775 201.077C381.807 201.548 381.838 202.009 381.859 202.48L381.922 203.883C382.071 207.636 382.012 211.394 381.744 215.14C381.463 218.897 380.904 222.628 380.071 226.302L379.726 227.673L379.548 228.354C379.485 228.584 379.423 228.804 379.35 229.035L378.952 230.396L378.513 231.747L378.294 232.417L378.043 233.087L377.541 234.417L376.987 235.725L376.851 236.05L376.778 236.218L376.704 236.375L376.401 237.013L376.098 237.652L375.941 237.977C375.889 238.081 375.826 238.186 375.774 238.291L375.115 239.547C375.011 239.757 374.885 239.956 374.76 240.165L374.404 240.783L374.049 241.39L373.662 241.987L373.275 242.584C373.15 242.783 373.024 242.982 372.878 243.17L372.052 244.322L371.947 244.469L371.832 244.605L371.613 244.888L371.173 245.442C371.027 245.631 370.881 245.819 370.724 245.997L370.253 246.531L369.783 247.065C369.699 247.149 369.626 247.243 369.542 247.327L369.292 247.579L368.298 248.594L367.253 249.558L366.991 249.798C366.906 249.881 366.815 249.958 366.719 250.029L366.176 250.479L365.632 250.929C365.444 251.076 365.256 251.212 365.068 251.359L364.503 251.788C364.315 251.924 364.127 252.071 363.928 252.207L362.746 252.992L362.6 253.086L362.443 253.18L362.14 253.358L361.534 253.714C361.335 253.83 361.136 253.966 360.927 254.07L360.3 254.406L359.673 254.73C359.568 254.783 359.463 254.845 359.359 254.887L359.035 255.034L357.759 255.62L356.452 256.144C356.024 256.332 355.574 256.468 355.135 256.625L354.476 256.856C354.361 256.898 354.257 256.94 354.142 256.971L353.807 257.065L352.458 257.463C352.009 257.578 351.549 257.683 351.099 257.798C350.869 257.85 350.65 257.913 350.42 257.955L349.73 258.091C349.27 258.175 348.82 258.28 348.36 258.353C347.44 258.489 346.53 258.646 345.6 258.72C343.76 258.929 341.909 258.992 340.058 259.023L338.678 259.002L337.988 258.992L337.298 258.96L335.918 258.887C335.688 258.877 335.458 258.856 335.228 258.835L334.538 258.772L333.848 258.709C333.618 258.688 333.388 258.678 333.158 258.646L331.788 258.479L331.109 258.395C330.879 258.364 330.659 258.332 330.429 258.29L329.07 258.081C328.61 258.018 328.16 257.934 327.711 257.85L326.362 257.599C326.132 257.557 325.912 257.515 325.693 257.463L325.024 257.316L323.675 257.023C322.786 256.814 321.897 256.594 321.009 256.374L318.364 255.62ZM318.792 254.123C322.253 255.126 325.773 255.913 329.331 256.479C332.878 257.047 336.466 257.323 340.058 257.306C341.848 257.282 343.635 257.163 345.412 256.95C346.3 256.866 347.178 256.699 348.057 256.563C348.496 256.479 348.935 256.385 349.364 256.29L350.022 256.154C350.242 256.102 350.451 256.039 350.671 255.987C351.099 255.872 351.538 255.767 351.967 255.652L353.243 255.254L353.556 255.159C353.661 255.128 353.765 255.086 353.87 255.044L354.497 254.814C354.915 254.657 355.334 254.521 355.741 254.332L356.965 253.809L358.167 253.222L358.47 253.076C358.575 253.023 358.669 252.971 358.763 252.919L359.348 252.594L359.934 252.27C360.133 252.165 360.31 252.039 360.499 251.924L361.063 251.568L361.345 251.39L361.481 251.306L361.617 251.212L362.705 250.448C362.893 250.322 363.06 250.186 363.238 250.05L363.761 249.641C363.938 249.505 364.116 249.369 364.283 249.233L364.785 248.793L365.287 248.353L365.538 248.133L365.779 247.903L366.73 246.971L367.629 245.997L367.859 245.757L368.079 245.505L368.507 244.992L368.936 244.479C369.072 244.312 369.208 244.123 369.344 243.945L369.741 243.411L369.94 243.149L370.044 243.013L370.138 242.877L370.891 241.778C371.017 241.6 371.132 241.401 371.247 241.212L371.592 240.647L371.937 240.081L372.261 239.495L372.585 238.909C372.689 238.71 372.804 238.521 372.899 238.322L373.484 237.118C373.536 237.013 373.578 236.919 373.63 236.814L373.766 236.511L374.038 235.893L374.31 235.275L374.373 235.118L374.435 234.961L374.561 234.647L375.042 233.401L375.471 232.134L375.68 231.495L375.868 230.856L376.244 229.569L376.579 228.27C376.631 228.05 376.694 227.841 376.746 227.621L376.882 226.961L377.164 225.642C377.824 222.109 378.219 218.532 378.346 214.941C378.461 211.339 378.356 207.734 378.032 204.145C377.719 200.554 377.227 196.973 376.579 193.412C375.931 189.852 375.136 186.334 374.216 182.826C373.296 179.319 372.261 175.863 371.121 172.429C369.982 168.994 368.737 165.591 367.41 162.23L366.395 159.707C366.061 158.869 365.695 158.042 365.35 157.204C365.172 156.785 365.005 156.366 364.817 155.958L364.273 154.712C363.907 153.885 363.552 153.058 363.165 152.23L362.6 150.995C362.412 150.586 362.224 150.168 362.036 149.759L360.875 147.299L359.683 144.859L359.38 144.252L359.077 143.644L358.46 142.43C356.818 139.205 355.114 136 353.337 132.849C351.559 129.697 349.719 126.577 347.816 123.488C345.913 120.399 343.948 117.362 341.93 114.347C341.418 113.593 340.926 112.839 340.403 112.095L338.856 109.855C337.811 108.378 336.775 106.891 335.699 105.425C333.566 102.494 331.401 99.5931 329.164 96.745C320.245 85.3239 310.517 74.5599 300.056 64.5365C294.829 59.5314 289.413 54.7252 283.798 50.1704C280.996 47.8877 278.142 45.6714 275.235 43.5213L273.05 41.9193L270.844 40.3486L268.617 38.8094C268.251 38.5476 267.875 38.2963 267.498 38.045L266.369 37.2911C260.357 33.3017 254.147 29.6159 247.706 26.4118C241.266 23.2077 234.595 20.4644 227.726 18.4644C224.301 17.4651 220.816 16.6817 217.292 16.1189C213.79 15.557 210.247 15.3012 206.701 15.3546L205.383 15.4069C205.164 15.4174 204.944 15.4174 204.725 15.4383L204.066 15.4907L203.407 15.543L203.073 15.564L202.749 15.5954L201.442 15.742C199.702 15.969 197.978 16.2976 196.277 16.7263C194.591 17.1739 192.935 17.73 191.321 18.3911L190.129 18.9147L188.958 19.4906C188.759 19.5848 188.571 19.6895 188.383 19.7942L187.808 20.1084L187.526 20.2654L187.379 20.3387L187.243 20.4225L186.689 20.768C185.21 21.674 183.808 22.7001 182.497 23.836C181.187 24.9798 179.967 26.2225 178.848 27.5532L178.429 28.0558C178.294 28.2233 178.147 28.3908 178.022 28.5689L177.238 29.6159C176.987 29.972 176.746 30.3384 176.495 30.6945L176.307 30.9667L176.129 31.2494L175.784 31.8044L175.439 32.3593L175.115 32.9352L174.791 33.5111L174.634 33.7938L174.488 34.087L173.892 35.2598L173.348 36.4535C173.16 36.8514 173.003 37.2597 172.836 37.6681L172.585 38.2754C172.501 38.4743 172.428 38.6838 172.355 38.8932C172.209 39.312 172.052 39.7204 171.905 40.1392L171.498 41.3957L171.393 41.7099L171.299 42.024L171.121 42.6627C171.006 43.092 170.87 43.5109 170.776 43.9402L170.463 45.2281C170.368 45.6574 170.274 46.0972 170.191 46.5265L170.055 47.1757L169.94 47.8353L169.71 49.1442L169.522 50.4635L169.427 51.1232L169.354 51.7829L169.208 53.1127L169.103 54.4425L169.051 55.1126L169.02 55.7828L168.946 57.1231C168.814 60.702 168.891 64.2857 169.176 67.8557C169.459 71.4368 169.919 75.0074 170.546 78.5465C171.79 85.6354 173.63 92.6404 175.868 99.5093C176.987 102.944 178.21 106.347 179.506 109.729C180.824 113.101 182.214 116.441 183.678 119.75L184.797 122.221L185.947 124.681C186.323 125.509 186.731 126.315 187.128 127.132L187.724 128.357C187.923 128.765 188.132 129.163 188.331 129.571C189.941 132.817 191.645 136.011 193.402 139.184C200.427 151.853 208.468 163.979 217.302 175.476C218.4 176.921 219.529 178.334 220.648 179.758C221.788 181.172 222.917 182.586 224.077 183.978C225.238 185.371 226.409 186.753 227.58 188.146C228.772 189.517 229.953 190.889 231.156 192.24C232.358 193.59 233.581 194.931 234.805 196.271L236.655 198.261L237.115 198.753L237.586 199.245L238.527 200.229L239.468 201.213C239.781 201.538 240.105 201.863 240.419 202.187C241.057 202.836 241.684 203.486 242.322 204.124L244.256 206.04C244.894 206.679 245.553 207.307 246.201 207.936C251.418 212.972 256.83 217.789 262.438 222.386C265.251 224.668 268.108 226.895 271.011 229.066C273.918 231.233 276.887 233.296 279.909 235.296C280.662 235.799 281.414 236.301 282.188 236.783L283.338 237.516C283.725 237.757 284.101 238.008 284.488 238.238L286.799 239.652L289.141 241.034C292.278 242.846 295.456 244.563 298.708 246.154C305.133 249.391 311.86 252.123 318.792 254.123Z" fill="#F47423"/>
<path d="M172.031 22.1921C164.367 24.0245 156.734 25.8255 149.112 27.6788C141.491 29.5322 133.91 31.4274 126.362 33.4169C118.813 35.4064 111.296 37.4901 103.851 39.7518C101.99 40.3068 100.14 40.8931 98.2787 41.4795L95.508 42.3591L92.7373 43.2491C89.0466 44.4428 85.3733 45.6748 81.7174 46.9453C78.0685 48.2228 74.43 49.5526 70.8439 50.9871C67.2577 52.4216 63.7133 53.9713 60.2735 55.7095C56.8337 57.4477 53.488 59.3743 50.3723 61.6151C47.2566 63.8558 44.3605 66.4003 41.9872 69.3531C41.3912 70.0965 40.8371 70.8609 40.3248 71.6462C39.8042 72.4294 39.3328 73.2442 38.9133 74.0859C38.0702 75.7524 37.4514 77.5235 37.0731 79.3528C36.7009 81.1707 36.5987 83.0337 36.7699 84.8815C36.9432 86.738 37.3543 88.5645 37.9932 90.3159C38.3079 91.1973 38.6709 92.0607 39.0806 92.9022C39.4883 93.7503 39.9379 94.5775 40.4293 95.3838L40.607 95.6874L40.7952 95.9911C40.9207 96.19 41.0462 96.389 41.1821 96.5879C41.4539 96.9754 41.7049 97.3733 41.9872 97.7607C42.5308 98.5355 43.1268 99.279 43.7227 100.022C44.9405 101.49 46.2317 102.895 47.5912 104.232C48.9504 105.572 50.3828 106.849 51.8465 108.085C54.7845 110.546 57.9106 112.818 61.0995 114.975C62.6992 116.053 64.3197 117.111 65.9612 118.127C67.6027 119.142 69.2547 120.158 70.917 121.132C72.5794 122.106 74.2628 123.079 75.9461 124.022C76.7825 124.503 77.6398 124.964 78.4867 125.435C79.3336 125.907 80.1805 126.367 81.0378 126.828C84.4463 128.671 87.8965 130.454 91.3886 132.179C98.3623 135.624 105.461 138.828 112.602 141.937C119.743 145.047 126.958 148.042 134.172 151.037C148.611 157.005 163.164 162.775 177.771 168.46L199.716 176.994L205.205 179.141L210.694 181.298C214.354 182.743 218.013 184.188 221.662 185.695L221.432 186.449C219.508 186.031 217.584 185.598 215.661 185.151C213.737 184.704 211.82 184.243 209.91 183.769C206.084 182.837 202.267 181.842 198.462 180.837C190.85 178.806 183.277 176.638 175.742 174.335C168.207 172.031 160.711 169.595 153.253 167.026C149.531 165.738 145.816 164.412 142.107 163.047L139.337 162.01C138.406 161.665 137.486 161.309 136.566 160.963C134.715 160.265 132.875 159.55 131.046 158.817C116.309 152.999 101.932 146.307 87.9906 138.775C84.4985 136.891 81.0378 134.932 77.6085 132.901C77.1798 132.65 76.7511 132.388 76.3329 132.137L75.0574 131.362L73.7923 130.577C73.3741 130.315 72.9454 130.053 72.5272 129.781C70.8439 128.713 69.178 127.613 67.5295 126.482L66.2958 125.634L65.0725 124.765C64.6648 124.482 64.257 124.179 63.8597 123.886C63.4624 123.592 63.0546 123.299 62.6469 122.996C61.0368 121.802 59.4545 120.573 57.9002 119.31C54.7695 116.791 51.7784 114.103 48.9399 111.258C46.0961 108.399 43.43 105.342 41.0775 102.033C40.5025 101.195 39.9274 100.357 39.3942 99.4884C39.1224 99.0591 38.8715 98.6193 38.6101 98.1795C38.4846 97.9596 38.3591 97.7293 38.2337 97.5094L38.0455 97.1743L37.8677 96.8392C36.9013 95.0269 36.0999 93.131 35.4735 91.1745C34.8414 89.2013 34.4517 87.1584 34.3129 85.0909C34.171 83.0142 34.3188 80.9279 34.7521 78.8921C35.1882 76.8691 35.8694 74.907 36.7804 73.0493C37.6863 71.213 38.7594 69.4643 39.986 67.8254C41.2081 66.2041 42.5353 64.665 43.959 63.2182C44.3145 62.8517 44.67 62.5062 45.0359 62.1501C45.4019 61.7941 45.7678 61.4486 46.1337 61.1135C46.4997 60.7785 46.8761 60.4329 47.2525 60.0978C47.6288 59.7628 48.0157 59.4382 48.4025 59.1136C51.4872 56.5329 54.7351 54.1546 58.126 51.9934C59.8093 50.9044 61.5205 49.8608 63.2596 48.8625C64.1274 48.3599 64.9952 47.8678 65.8734 47.3861C66.7516 46.9045 67.6299 46.4333 68.5186 45.9726C72.063 44.1192 75.691 42.4229 79.3608 40.8732C83.0306 39.3235 86.7527 37.8995 90.5166 36.6116L91.9281 36.1299L93.3396 35.6692C94.2805 35.3551 95.232 35.0619 96.1834 34.7687C98.0758 34.1823 99.9892 33.6274 101.892 33.0829C109.524 30.9259 117.22 29.0655 124.977 27.5019C132.735 25.9382 140.524 24.6328 148.345 23.5857C152.255 23.0727 156.176 22.6119 160.107 22.2455C162.073 22.057 164.039 21.8964 166.004 21.7638C167.97 21.6277 169.946 21.5125 171.922 21.4497L172.031 22.1921Z" fill="#F47423"/>
<path d="M437.23 224.92C431.71 218.239 423.325 214.491 415.211 212.061C406.199 209.37 396.758 208.135 387.379 207.622C384.169 207.444 380.96 207.36 377.739 207.391C376.819 207.402 374.979 207.821 374.111 207.475C384.692 211.684 393.36 219.59 399.79 228.878C402.958 233.453 405.718 238.427 407.819 243.589C409.848 248.573 410.632 255.097 415.588 258.175C419.289 260.468 424.109 261.128 428.364 260.405C432.18 259.756 435.61 257.714 438.328 255.002C446.19 247.16 443.817 232.909 437.23 224.92ZM437.784 243.809L423.9 220.532C423.889 220.532 438.663 229.202 437.784 243.809Z" fill="#F89520"/>
<path d="M372.323 196.355C368.518 185.214 354.403 179.842 343.718 183.612C333.848 187.099 327.616 197.014 319.325 202.637C311.254 208.114 302.335 212.501 292.79 214.668C289.277 215.464 277.661 218.187 274.336 215.129C274.838 215.6 275.35 216.061 275.873 216.522C294.64 233.212 319.001 242.018 343.77 235.16C362.324 230.02 379.694 217.935 372.323 196.355ZM346.29 228.354L368.915 203.297C364.461 222.406 346.29 228.354 346.29 228.354Z" fill="#F89520"/>
<path d="M299.638 177.413C298.164 176.46 296.418 175.947 294.609 176.198C292.601 176.471 290.448 177.518 288.952 179.224C286.945 181.507 287.154 184.9 286.652 187.695C286.122 190.623 285.317 193.495 284.248 196.271C282.104 201.894 278.821 207.15 274.336 210.847C274.702 210.543 275.58 210.48 276.009 210.344C277.483 209.873 278.947 209.349 280.4 208.784C284.645 207.129 288.869 205.098 292.758 202.397C296.261 199.967 299.784 196.826 301.729 192.659C304.05 187.674 303.904 180.178 299.638 177.413ZM295.999 196.868L300.349 183.12C302.011 190.303 295.999 196.868 295.999 196.868Z" fill="#F89520"/>
<path d="M420.188 148.639C418.034 137.739 404.871 131.802 394.593 132.849C385.988 133.728 378.209 138.639 371.685 144.042C364.44 150.052 358.177 157.235 352.542 164.754C350.618 167.329 348.757 169.958 347 172.649C346.499 173.413 345.819 175.193 345.056 175.717C354.424 169.235 365.799 166.408 377.091 166.209C382.653 166.115 388.32 166.576 393.767 167.685C399.037 168.764 404.881 171.738 410.192 169.308C414.155 167.497 417.375 163.853 419.142 159.906C420.731 156.398 420.94 152.419 420.188 148.639ZM383.531 141.519C383.531 141.519 398.932 134.021 410.579 142.88L383.531 141.519Z" fill="#F89520"/>
<path d="M397.28 176.649C393.181 174.282 388.361 174.942 386.521 178.135C384.681 181.329 386.511 185.832 390.62 188.208C394.729 190.585 399.538 189.915 401.378 186.722C403.218 183.528 401.378 179.027 397.28 176.649ZM398.942 185.182C398.396 185.182 397.863 185.02 397.409 184.717C396.955 184.413 396.601 183.981 396.392 183.476C396.183 182.971 396.129 182.415 396.235 181.879C396.342 181.343 396.604 180.85 396.99 180.463C397.377 180.077 397.868 179.814 398.404 179.707C398.939 179.6 399.494 179.655 399.999 179.864C400.503 180.073 400.934 180.428 401.237 180.882C401.541 181.337 401.702 181.871 401.702 182.418C401.703 182.781 401.632 183.141 401.493 183.476C401.355 183.812 401.151 184.117 400.895 184.374C400.639 184.63 400.334 184.834 399.999 184.973C399.664 185.112 399.305 185.183 398.942 185.182Z" fill="#F89520"/>
<path d="M318.06 169.958C313.961 167.591 309.141 168.251 307.301 171.444C305.461 174.638 307.301 179.141 311.399 181.518C315.498 183.894 320.318 183.224 322.158 180.031C323.998 176.837 322.158 172.335 318.06 169.958ZM319.711 178.502C319.166 178.502 318.632 178.34 318.178 178.036C317.724 177.732 317.37 177.301 317.161 176.795C316.952 176.29 316.898 175.735 317.004 175.198C317.111 174.662 317.374 174.17 317.76 173.783C318.146 173.396 318.638 173.133 319.173 173.026C319.708 172.92 320.263 172.974 320.768 173.184C321.272 173.393 321.703 173.747 322.006 174.202C322.31 174.656 322.472 175.191 322.472 175.738C322.472 176.101 322.401 176.461 322.263 176.796C322.124 177.132 321.921 177.437 321.665 177.694C321.408 177.951 321.104 178.154 320.768 178.293C320.433 178.432 320.074 178.503 319.711 178.503V178.502Z" fill="#F89520"/>
<path d="M276.939 238.762C276.939 238.762 194.572 246.029 169.019 232.877C168.86 233.298 168.678 233.711 168.476 234.113L225.739 296.352L324.187 261.955C324.197 261.966 294.964 252.94 276.939 238.762Z" fill="#F89520"/>
<path d="M147.701 320.781C147.22 321.796 146.718 322.823 146.174 323.828C145.63 324.833 145.055 325.849 144.428 326.854C144.125 327.346 143.811 327.828 143.477 328.32C150.67 328.948 167.555 329.576 183.28 323.922C183.28 323.922 200.374 318.739 214.886 306.907L214.897 306.917L162.223 240.615C160.08 241.772 157.683 242.376 155.249 242.374C154.956 242.374 154.674 242.364 154.392 242.354V242.542L154.413 244.155L154.455 247.38L154.507 253.84L154.517 260.29L154.507 263.515L154.476 266.74L154.423 269.955L154.361 273.169L154.193 279.599C154.162 280.667 154.151 281.745 154.151 282.824C154.151 283.902 154.172 284.981 154.204 286.059C154.266 288.216 154.361 290.373 154.381 292.53C154.417 294.673 154.326 296.817 154.11 298.949C153.882 301.078 153.519 303.191 153.022 305.273C152.033 309.523 150.705 313.687 149.049 317.723C148.84 318.236 148.621 318.749 148.401 319.262C148.181 319.776 147.941 320.279 147.701 320.781Z" fill="#F89520"/>
<path d="M77.9852 281.148C78.2884 280.677 78.5916 280.216 78.9053 279.756C79.2189 279.295 79.5326 278.845 79.8463 278.395C82.3519 274.876 85.1387 271.567 88.1792 268.499C89.6609 266.985 91.2396 265.568 92.905 264.259C94.5792 262.955 96.332 261.755 98.1535 260.667C99.9728 259.557 101.834 258.51 103.674 257.432C104.594 256.887 105.504 256.343 106.413 255.777C107.323 255.212 108.212 254.646 109.1 254.06L114.412 250.542L117.078 248.793L119.754 247.066L122.441 245.348L125.139 243.652L130.565 240.28L136.012 236.94L138.752 235.286L140.121 234.459L141.491 233.642C141.575 233.589 141.648 233.548 141.731 233.495C141.089 232.017 140.693 230.443 140.56 228.836H140.33L138.752 228.825L137.173 228.815L134.015 228.783L127.721 228.689L121.427 228.553L118.28 228.469L115.133 228.364L111.986 228.239L108.849 228.092L102.587 227.768C101.541 227.715 100.496 227.673 99.4396 227.652C98.3836 227.631 97.3485 227.621 96.282 227.631C94.1805 227.642 92.0685 227.684 89.967 227.652C87.8762 227.636 85.7883 227.493 83.7147 227.223C81.6441 226.942 79.5939 226.526 77.5775 225.977C73.4635 224.883 69.4457 223.455 65.5643 221.705C65.0624 221.485 64.5815 221.244 64.0796 221.014C63.5778 220.783 63.0968 220.532 62.6054 220.281C61.6226 219.778 60.6503 219.244 59.6884 218.679C58.7265 218.113 57.7646 217.506 56.8027 216.857C55.9558 216.281 55.1089 215.684 54.2934 215.004C53.6347 219.454 53.2479 224.228 53.3629 229.076C53.3629 229.076 51.9619 260.165 73.5522 289.536C73.8867 288.698 74.2527 287.892 74.629 287.117C75.1414 286.059 75.685 285.044 76.2392 284.049C76.7933 283.054 77.3893 282.091 77.9852 281.148Z" fill="#F89520"/>
<path d="M142.657 240.228L140.43 242.521L135.955 247.086L131.46 251.62L129.201 253.872L126.933 256.112L124.653 258.332L122.353 260.542L117.742 264.929C116.969 265.662 116.216 266.405 115.463 267.159C114.71 267.913 113.978 268.688 113.246 269.463C111.783 271.012 110.34 272.604 108.855 274.122C107.384 275.652 105.824 277.093 104.182 278.436C102.532 279.766 100.8 280.99 98.9959 282.101C95.3269 284.379 91.4809 286.357 87.495 288.017C86.9932 288.227 86.4704 288.426 85.9581 288.635C85.4458 288.844 84.923 289.033 84.3898 289.211C83.3338 289.588 82.2674 289.944 81.18 290.268C80.0927 290.593 78.9739 290.897 77.8343 291.159C76.9456 291.357 76.0464 291.546 75.1055 291.682C80.6782 298.959 101.442 322.529 139.908 327.911C139.688 327.357 139.5 326.802 139.301 326.257C138.925 325.137 138.58 324.027 138.277 322.917C137.973 321.807 137.712 320.707 137.471 319.598C137.346 319.043 137.241 318.498 137.137 317.943C137.032 317.388 136.928 316.844 136.844 316.299C136.136 311.993 135.776 307.637 135.767 303.273C135.749 301.132 135.868 298.991 136.123 296.865C136.389 294.739 136.78 292.631 137.294 290.551C137.806 288.457 138.381 286.373 138.914 284.29C139.186 283.243 139.448 282.195 139.688 281.148C139.928 280.101 140.159 279.054 140.368 277.997L141.643 271.693L142.302 268.541L142.981 265.39L143.682 262.248L144.393 259.107L145.857 252.824L147.362 246.542L148.136 243.401L148.523 241.83L148.763 240.867C147.288 240.139 145.942 239.173 144.78 238.008L143.755 239.066L142.657 240.228Z" fill="#F89520"/>
<path d="M61.3298 189.643C61.3298 189.643 56.8967 199.569 54.6279 212.815C55.6003 212.396 56.5726 212.061 57.545 211.747C58.6428 211.391 59.751 211.077 60.8384 210.805C61.9257 210.533 63.0236 210.292 64.1005 210.082C64.6441 209.978 65.1774 209.883 65.721 209.789C66.2647 209.695 66.7979 209.611 67.3416 209.538C71.5616 208.931 75.8245 208.676 80.0867 208.773C82.1762 208.808 84.2613 208.979 86.3285 209.286C88.3923 209.605 90.4349 210.049 92.4449 210.616C94.4627 211.171 96.4911 211.8 98.4985 212.396C99.5022 212.69 100.516 212.972 101.541 213.244C102.566 213.517 103.569 213.768 104.594 214.009L110.7 215.443L113.753 216.176L116.806 216.93L119.859 217.705L122.912 218.49L128.997 220.103L135.071 221.757L138.114 222.605L139.63 223.024L141.125 223.443C141.725 221.386 142.767 219.485 144.178 217.873L90.9184 150.838C90.8975 150.848 71.4715 165.361 61.3298 189.643Z" fill="#F89520"/>
<path d="M217.177 309.776C217.177 309.776 198.827 323.786 183.239 327.807C183.239 327.807 165.768 334.854 139.493 331.712C139.493 331.712 112.216 329.702 85.063 307.158C85.063 307.158 65.8252 292.049 55.8927 264.227C55.8927 264.227 49.3581 246.479 49.609 228.469C49.609 228.469 49.3581 207.444 58.036 187.674C58.036 187.674 68.2718 163.361 88.6074 147.948L76.521 132.734C23.5125 174.973 14.7405 252.27 56.9173 305.357C99.0941 358.445 176.275 367.24 229.284 324.99L217.177 309.776Z" fill="#F47423"/>
</g>
<defs>
<clipPath id="clip0_856_23438">
<rect width="443.275" height="420" fill="white"/>
</clipPath>
</defs>
</svg>
