<svg width="602" height="135" viewBox="0 0 602 135" fill="none" xmlns="http://www.w3.org/2000/svg">
<path d="M73.8276 113.172L110.971 100.155C110.971 100.155 99.9414 96.7402 93.1424 91.3753C93.1424 91.3753 57.2678 94.5494 50.6514 87.9037L73.8276 113.172Z" fill="#F89520"/>
<path d="M75.1592 124.007C55.1571 139.994 26.0397 136.667 10.1216 116.577C-5.79661 96.4862 -2.48338 67.2398 17.5196 51.2532" fill="#F37423"/>
<path d="M16.4095 111.552C29.5632 128.157 53.6266 130.905 70.1563 117.695L22.5236 57.5658C5.99338 70.7776 3.25673 94.9476 16.4095 111.551" fill="#F89520"/>
<path fill-rule="evenodd" clip-rule="evenodd" d="M10.4197 116.296C-5.34099 96.4004 -2.06981 67.4398 17.7528 51.5966L27.2946 63.535C14.0568 74.1154 11.8547 93.4947 22.3994 106.806C32.9279 120.096 52.1684 122.287 65.3864 111.724L74.9274 123.663C55.0851 139.52 26.1968 136.212 10.4197 116.296Z" fill="white"/>
<path d="M46.7413 87.2942C46.8171 88.9302 46.8602 90.5618 46.8923 92.1926C46.9115 93.0084 46.9187 93.8242 46.9316 94.6377L46.9527 97.0809L46.958 99.5222L46.9546 100.742L46.9441 101.961L46.9259 103.179L46.9009 104.397L46.8382 106.83C46.8147 107.641 46.8214 108.455 46.8434 109.271C46.8655 110.087 46.9014 110.903 46.911 111.718C46.9244 112.529 46.8903 113.34 46.8089 114.147C46.722 114.953 46.5848 115.752 46.3982 116.541C46.2122 117.334 45.9953 118.122 45.7473 118.907C45.4991 119.692 45.2201 120.474 44.899 121.251C44.7394 121.639 44.5702 122.027 44.3886 122.413C44.2069 122.799 44.0167 123.184 43.8135 123.564C43.6102 123.945 43.3903 124.332 43.1554 124.71C42.9163 125.1 42.6565 125.478 42.3771 125.841L41.7257 125.767C41.5346 125.35 41.3658 124.924 41.2201 124.489C41.0763 124.066 40.9488 123.644 40.8367 123.224C40.7245 122.804 40.6229 122.386 40.5328 121.969C40.4427 121.552 40.3641 121.137 40.2956 120.722C40.1566 119.892 40.0593 119.067 39.9927 118.246C39.9261 117.425 39.892 116.608 39.8882 115.794C39.8823 114.984 39.9273 114.174 40.0229 113.369C40.1239 112.564 40.2719 111.766 40.4662 110.979C40.6579 110.187 40.876 109.399 41.0797 108.608C41.2834 107.818 41.4722 107.025 41.6309 106.231L42.114 103.845L42.3617 102.654L42.6162 101.462L42.8789 100.272L43.1482 99.0826L43.6994 96.7046L44.2659 94.3291C44.461 93.5377 44.6493 92.7454 44.8511 91.9555C45.2465 90.3718 45.6539 88.7929 46.0934 87.2159L46.7413 87.2942Z" fill="white"/>
<path d="M46.5331 87.4025C45.9556 87.9597 45.3714 88.5063 44.7905 89.0611L43.0359 90.7043C41.8664 91.7994 40.6874 92.8831 39.5084 93.9676L37.7351 95.5873L35.9579 97.1984L34.1678 98.7964L32.371 100.386C31.7713 100.915 31.1802 101.455 30.5977 102.006C30.014 102.555 29.435 103.11 28.8469 103.654C28.2589 104.198 27.6579 104.725 27.0358 105.226C26.4137 105.727 25.7729 106.203 25.1158 106.66C23.8002 107.572 22.4453 108.432 21.0357 109.225C20.3328 109.623 19.6129 110 18.8761 110.357C18.5071 110.534 18.1356 110.708 17.7556 110.872C17.3755 111.035 16.9926 111.195 16.5933 111.334L16.3633 111.043C16.5876 110.683 16.8272 110.343 17.0721 110.009C17.317 109.675 17.5687 109.35 17.8231 109.028C18.3344 108.388 18.8616 107.768 19.4048 107.168C20.4908 105.969 21.6305 104.835 22.8105 103.751C23.4009 103.211 24.0087 102.689 24.6317 102.194C25.2548 101.699 25.9052 101.229 26.5637 100.775C27.2222 100.32 27.8918 99.8791 28.5555 99.4309C29.2193 98.9827 29.8769 98.5272 30.5254 98.0593L32.4707 96.6575L34.4233 95.2658L36.3883 93.8856L38.3581 92.5145C39.6742 91.6036 40.9935 90.6969 42.316 89.7944L44.304 88.4463C44.9712 88.0019 45.634 87.5528 46.3045 87.1132L46.5331 87.4025Z" fill="white"/>
<path d="M46.622 87.5149C45.536 88.7147 44.4293 89.8909 43.315 91.0576C42.76 91.643 42.1978 92.2189 41.6376 92.8001L39.9505 94.5278L38.2558 96.2463L37.4036 97.0996L36.5467 97.9471L35.684 98.7884L34.8179 99.6244L33.0782 101.286C32.4968 101.838 31.9342 102.414 31.3811 103.002C30.828 103.59 30.284 104.189 29.7233 104.767C29.1679 105.345 28.5788 105.89 27.9591 106.399C27.3362 106.902 26.6821 107.365 26.0007 107.785C25.3179 108.209 24.615 108.608 23.8919 108.982C23.1697 109.356 22.4277 109.706 21.6599 110.022C21.2765 110.182 20.8865 110.333 20.49 110.475C20.0935 110.616 19.6896 110.749 19.2784 110.874C18.8662 110.997 18.4464 111.11 18.0155 111.21C17.5742 111.314 17.1277 111.394 16.6779 111.45L16.2695 110.935C16.4247 110.507 16.6028 110.088 16.803 109.679C16.9947 109.28 17.1976 108.893 17.4116 108.519C17.6257 108.145 17.8457 107.779 18.0716 107.422C18.2985 107.066 18.5322 106.718 18.7728 106.379C19.2521 105.699 19.7587 105.051 20.2835 104.428C20.8083 103.804 21.3542 103.207 21.9183 102.633C22.4786 102.061 23.0747 101.525 23.7031 101.029C24.3352 100.536 24.9958 100.082 25.6815 99.6676C26.3683 99.2491 27.0714 98.8517 27.7664 98.4414C28.4613 98.0311 29.1457 97.6111 29.8119 97.1658L31.8148 95.8365L32.8213 95.1766L33.8311 94.522L34.8458 93.8741L35.8647 93.2315L37.9107 91.9559L39.9663 90.6924C40.655 90.2763 41.3404 89.8554 42.033 89.4446C43.4147 88.6168 44.8036 87.7976 46.2122 87.0043L46.622 87.5149Z" fill="white"/>
<path d="M46.3696 87.5826C44.7544 87.6013 43.1436 87.5878 41.5351 87.5624C40.7299 87.5533 39.9272 87.5317 39.1229 87.5144L36.7136 87.4496L34.3067 87.3695L33.1042 87.3215L31.9027 87.2682L30.7045 87.2073L29.5063 87.1396L27.1099 86.9913C26.3114 86.9395 25.5086 86.9174 24.703 86.9112C23.8973 86.9049 23.0902 86.9112 22.287 86.8934C21.4871 86.8782 20.6888 86.8156 19.8963 86.7058C19.1051 86.5901 18.322 86.4242 17.5517 86.2091C16.7778 85.995 16.0085 85.7498 15.2435 85.4734C14.4767 85.1965 13.7185 84.8888 12.9646 84.5395C12.5872 84.3664 12.2118 84.1823 11.8383 83.9871C11.4644 83.7918 11.0921 83.5864 10.7216 83.3675C10.3511 83.1487 9.98301 82.9159 9.61924 82.6669C9.24287 82.4129 8.88034 82.139 8.5332 81.8462L8.62906 81.195C9.04673 81.0182 9.47358 80.8639 9.90776 80.7328C10.3305 80.6033 10.7508 80.4892 11.1687 80.3907C11.5867 80.2909 12.0032 80.2049 12.4149 80.1291C12.8265 80.0533 13.2426 79.989 13.6538 79.9372C14.4767 79.8268 15.2934 79.7581 16.1053 79.7198C16.9172 79.6814 17.7243 79.6761 18.527 79.701C19.3262 79.7236 20.1231 79.797 20.9129 79.9208C21.7024 80.0501 22.4836 80.2264 23.2522 80.4487C24.0258 80.6685 24.795 80.9152 25.5662 81.1475C26.3373 81.3798 27.1113 81.5967 27.8897 81.7838L30.2233 82.3521L31.3893 82.6424L32.554 82.9399L33.7177 83.2447L34.8804 83.5571L37.2034 84.1935L39.5246 84.8456C40.2972 85.0688 41.0712 85.2862 41.8428 85.5175C43.3875 85.9701 44.9303 86.4341 46.4683 86.9308L46.3696 87.5826Z" fill="white"/>
<path d="M48.4484 14.8533L22.5771 47.2551L27.1063 52.9761" fill="#F37423"/>
<path d="M75.2158 114.672L79.7737 120.43L123.182 97.4421" fill="#F37423"/>
<path d="M54.3373 87.3124C54.0526 91.3018 50.6023 94.3036 46.6306 94.0176C42.6589 93.7316 39.6696 90.2662 39.9543 86.2767C40.239 82.2872 43.6898 79.285 47.6615 79.571C51.6333 79.857 54.622 83.3229 54.3373 87.3124Z" fill="white"/>
<path d="M108.773 97.7512C106.116 96.9834 103.544 95.954 101.056 94.7595C98.5695 93.557 96.1552 92.2092 93.8261 90.723L93.3876 90.4466L92.9534 90.1639L92.522 89.8803L92.3049 89.7387L92.0902 89.5948L91.2275 89.0189L90.3749 88.4286C90.0907 88.2318 89.8117 88.0279 89.5299 87.8278C89.2481 87.6276 88.9696 87.4222 88.6912 87.2168C88.1319 86.8099 87.5797 86.3928 87.0281 85.9748L86.2066 85.3399C85.9334 85.1268 85.6646 84.908 85.3918 84.6944C85.1191 84.4809 84.8512 84.2625 84.5824 84.0437C84.3135 83.8249 84.0427 83.6118 83.7777 83.3862L82.9787 82.7206L82.1884 82.041C82.0556 81.9292 81.9257 81.8145 81.7949 81.7008L81.4024 81.3601L81.0094 81.0188L80.6207 80.6728C76.4602 76.9675 72.5449 72.9951 68.8995 68.7808C68.4394 68.2529 67.9927 67.7163 67.5379 67.1841C67.0917 66.6447 66.6407 66.1087 66.2026 65.5616C65.7646 65.0145 65.3275 64.4659 64.8923 63.9155C64.4648 63.3593 64.0325 62.805 63.6136 62.2411C63.1947 61.6772 62.7749 61.1119 62.3574 60.5446C61.9481 59.9721 61.5345 59.4015 61.1343 58.8208C60.7341 58.2401 60.3354 57.6575 59.939 57.0725C59.5498 56.4832 59.1582 55.8939 58.7796 55.2969C58.0171 54.1033 57.2738 52.8944 56.5611 51.6625C56.4719 51.509 56.3809 51.3563 56.2927 51.2013L56.0295 50.7368C55.8551 50.4263 55.6763 50.1177 55.5071 49.8039L54.9938 48.8647L54.4954 47.9149C53.8378 46.6445 53.2076 45.3551 52.6047 44.0469L52.1628 43.0602L52.0525 42.8131L51.9461 42.564L51.7328 42.0654C51.6619 41.8993 51.5891 41.7333 51.521 41.5663L51.3173 41.0624C51.1822 40.7264 51.0437 40.3905 50.9152 40.0512L50.7197 39.542C50.654 39.3726 50.5888 39.2027 50.5279 39.0309C50.4038 38.6878 50.2754 38.3466 50.1546 38.0015L49.7999 36.9621L49.4616 35.9125L49.1414 34.8534C49.0392 34.4976 48.9388 34.141 48.8404 33.7836C48.7446 33.4247 48.654 33.0638 48.561 32.7029L48.3027 31.6121C47.9659 30.1327 47.7047 28.6372 47.52 27.1312C47.3265 25.5808 47.2305 24.0198 47.2325 22.4574L47.2416 21.8585L47.2473 21.5585L47.2603 21.2571L47.289 20.6529L47.3369 20.0454L47.3614 19.7416C47.3705 19.6399 47.3829 19.5376 47.3935 19.4359L47.4611 18.8235C47.4879 18.6186 47.5181 18.4132 47.5469 18.2083L47.5914 17.9002L47.6451 17.5907C47.9284 15.886 48.4005 14.2183 49.0527 12.6184L49.3154 12.0002L49.6029 11.3869L49.6763 11.2338L49.7554 11.0817L49.915 10.7784L50.077 10.4761L50.2509 10.1771L50.4268 9.87906L50.5155 9.73029L50.6113 9.58344C50.7379 9.38764 50.8634 9.19183 50.9948 8.99795L51.4041 8.42206C51.4712 8.32608 51.5478 8.23394 51.6183 8.14084L51.8378 7.86154C52.4366 7.11543 53.0937 6.41817 53.8028 5.77634C54.5191 5.13299 55.2869 4.5497 56.0986 4.03237C56.3008 3.90327 56.5036 3.77321 56.712 3.65756L57.0236 3.47951C57.1276 3.42049 57.2311 3.3605 57.3375 3.30771L57.9735 2.98377C58.1876 2.88395 58.4026 2.78589 58.6186 2.68959C59.4744 2.32147 60.3544 2.01217 61.2522 1.76385C62.1234 1.53178 63.0076 1.35182 63.9002 1.22492L64.5587 1.14334C64.669 1.12894 64.7778 1.11982 64.8866 1.1107L65.2134 1.08287L65.5408 1.05599C65.6496 1.04735 65.7569 1.04447 65.8652 1.03871L66.5137 1.00896L67.1554 1.00128C67.2623 1.00128 67.3702 0.9984 67.4761 1.00128L67.7934 1.00848C68.0047 1.0152 68.218 1.01808 68.4279 1.02816L69.0553 1.06511C69.2657 1.07519 69.4713 1.09535 69.6783 1.1131C69.8854 1.13086 70.0924 1.14909 70.2976 1.17261L70.9091 1.24843L71.2149 1.28826L71.5164 1.33625L72.1198 1.43223C72.3191 1.46679 72.5166 1.5047 72.7155 1.54117C73.1143 1.61076 73.503 1.70003 73.894 1.78449C74.0905 1.82576 74.2827 1.87375 74.4754 1.92126L75.0534 2.06523C75.4368 2.16697 75.815 2.26967 76.1922 2.37861L76.7534 2.5485C76.9403 2.60512 77.1282 2.66079 77.3118 2.72318L77.8653 2.90555L78.1414 2.99769L78.4146 3.09367C78.7779 3.22372 79.1431 3.35186 79.4996 3.49199L80.0374 3.69883C80.2166 3.76794 80.3921 3.8428 80.5689 3.91383C81.9831 4.49292 83.357 5.12639 84.6907 5.81426C87.3602 7.18343 89.8822 8.73496 92.2867 10.4089C92.5853 10.6205 92.8872 10.8278 93.1825 11.0428C93.4777 11.2578 93.7753 11.4699 94.0677 11.6883L94.9409 12.3458L95.8036 13.0143C96.3744 13.464 96.9424 13.9165 97.5012 14.3777C97.7816 14.6076 98.0572 14.8422 98.3328 15.0764L98.7464 15.4282L99.1557 15.7838C99.7025 16.2565 100.24 16.7384 100.776 17.2235L101.57 17.9568L102.353 18.6997C102.872 19.1979 103.39 19.6975 103.897 20.2052L104.278 20.5862L104.654 20.9702C104.904 21.2283 105.157 21.4822 105.403 21.7433L106.144 22.5222L106.876 23.3087C107.119 23.5717 107.355 23.8395 107.595 24.1044C107.834 24.3693 108.071 24.6386 108.308 24.9063C108.545 25.1741 108.781 25.4424 109.013 25.714C109.245 25.9857 109.481 26.2539 109.711 26.5299L110.398 27.3515L111.076 28.1803C112.876 30.3952 114.583 32.6754 116.196 35.0208C117.008 36.1884 117.786 37.3796 118.547 38.5789C119.309 39.7781 120.047 40.9904 120.761 42.2175C120.85 42.3706 120.941 42.5232 121.029 42.6768L121.291 43.1399C121.466 43.4489 121.643 43.7561 121.812 44.0675L122.325 44.9995L122.828 45.9368C123.49 47.1903 124.129 48.4553 124.745 49.7319C125.36 51.0084 125.946 52.2976 126.502 53.5994C126.783 54.2483 127.051 54.9038 127.319 55.5584L127.71 56.5451C127.841 56.8738 127.964 57.2054 128.091 57.5351C128.218 57.8648 128.34 58.1974 128.461 58.5295L128.644 59.0272C128.704 59.1932 128.761 59.3631 128.82 59.5272C128.935 59.8632 129.055 60.1933 129.167 60.5288L129.503 61.5366C129.717 62.2085 129.934 62.8837 130.129 63.5632L130.28 64.071L130.424 64.5816L130.568 65.0917L130.639 65.347L130.707 65.6038C130.796 65.946 130.888 66.2867 130.975 66.6298L131.226 67.6602L131.463 68.6944C131.504 68.8662 131.539 69.0399 131.575 69.2132L131.684 69.7324C131.759 70.078 131.819 70.4273 131.886 70.7743C131.953 71.1213 132.01 71.4716 132.07 71.82C132.1 71.9947 132.131 72.1684 132.159 72.3431L132.238 72.8686L132.316 73.3936L132.384 73.9215L132.452 74.4494L132.509 74.9773L132.565 75.5052L132.613 76.0331L132.661 76.561L132.695 77.0922C132.706 77.2689 132.72 77.4455 132.728 77.6226L132.75 78.1543C132.756 78.3319 132.767 78.508 132.768 78.686L132.777 79.2182C132.78 79.3958 132.784 79.5729 132.78 79.7505L132.777 80.2832C132.777 80.3719 132.777 80.4602 132.774 80.549L132.765 80.8158L132.748 81.3481C132.743 81.5256 132.728 81.7032 132.718 81.8808C132.709 82.0583 132.698 82.2354 132.685 82.4125C132.578 83.8337 132.367 85.2452 132.055 86.6357L131.924 87.1554L131.858 87.4146C131.835 87.5009 131.81 87.5864 131.784 87.6723L131.634 88.1867C131.58 88.3571 131.523 88.5265 131.467 88.6964L131.383 88.9507L131.29 89.2027L131.102 89.7047C130.96 90.0343 130.831 90.3674 130.67 90.6894L130.555 90.9323L130.498 91.0537L130.436 91.1727L130.185 91.6483C130.1 91.8057 130.005 91.9588 129.916 92.1138L129.78 92.3456L129.636 92.5716L129.49 92.7976C129.442 92.873 129.394 92.9488 129.34 93.0208L129.027 93.4585C128.977 93.5324 128.918 93.6001 128.863 93.6711L128.696 93.8818C128.64 93.9518 128.586 94.0233 128.528 94.0915L128.35 94.2935L128.173 94.4951C128.143 94.5287 128.114 94.5628 128.083 94.5954L127.99 94.6914L127.615 95.0753L127.221 95.44L127.122 95.5312C127.089 95.561 127.053 95.5888 127.019 95.6176L126.814 95.7894C126.267 96.2481 125.681 96.6584 125.063 97.0155C124.986 97.0602 124.911 97.1087 124.833 97.1504L124.598 97.2752L124.362 97.3999C124.323 97.4201 124.284 97.4422 124.244 97.4614L124.123 97.517L123.641 97.7412L123.149 97.9403C122.492 98.1975 121.817 98.406 121.13 98.5642L120.874 98.6256L120.615 98.676C120.443 98.7086 120.271 98.7456 120.098 98.772C119.751 98.82 119.406 98.8829 119.057 98.9121C118.363 98.9859 117.665 99.0244 116.967 99.0273L116.445 99.0191L116.184 99.0148L115.924 99.0019L115.403 98.9755C115.23 98.9664 115.057 98.9472 114.884 98.9332C114.711 98.9193 114.538 98.9059 114.365 98.8853L113.849 98.8224L113.59 98.7907C113.505 98.7806 113.419 98.7653 113.334 98.7528L112.82 98.6741C111.454 98.4487 110.103 98.1412 108.775 97.7532L108.773 97.7512ZM108.936 97.1883C110.242 97.5679 111.571 97.8657 112.914 98.08C114.252 98.2943 115.606 98.3984 116.961 98.3914C117.636 98.3821 118.31 98.3371 118.98 98.2566C119.316 98.2235 119.647 98.1606 119.98 98.1083C120.145 98.0785 120.309 98.0401 120.474 98.007L120.721 97.9552L120.965 97.8923C121.127 97.8491 121.291 97.8098 121.452 97.7637L121.932 97.614C122.093 97.566 122.249 97.5036 122.407 97.4475C122.565 97.3913 122.723 97.3347 122.876 97.2656L123.338 97.0683L123.79 96.8481L123.903 96.7929C123.94 96.7741 123.976 96.7525 124.013 96.7329L124.233 96.611L124.453 96.4891C124.526 96.4488 124.597 96.4013 124.667 96.3581C125.24 96.0103 125.781 95.6134 126.285 95.1718L126.477 95.0062C126.508 94.9783 126.54 94.9515 126.573 94.9227L126.663 94.8349L127.022 94.4836L127.363 94.114L127.449 94.0219C127.477 93.9907 127.503 93.9576 127.53 93.9259L127.691 93.7339L127.852 93.542C127.905 93.4767 127.953 93.4081 128.004 93.3414L128.156 93.1403C128.204 93.0722 128.259 93.0074 128.304 92.9368L128.586 92.5188C128.634 92.4502 128.677 92.3777 128.721 92.3057L128.852 92.0903L128.983 91.8748L129.104 91.6531C129.183 91.5043 129.268 91.3589 129.344 91.2077L129.565 90.7533L129.62 90.6395L129.671 90.5234L129.771 90.2911C129.912 89.9844 130.023 89.6672 130.147 89.3505L130.31 88.8706L130.391 88.6306L130.462 88.3873C130.51 88.2246 130.558 88.0629 130.606 87.8997L130.73 87.4074C130.751 87.3248 130.773 87.2432 130.792 87.1607L130.845 86.9116L130.951 86.4144C131.202 85.0774 131.35 83.7232 131.396 82.3635C131.439 81.0001 131.4 79.6354 131.279 78.2767C131.161 76.9166 130.973 75.5618 130.729 74.2171C130.485 72.8724 130.185 71.5369 129.839 70.2133C129.493 68.8897 129.103 67.5767 128.67 66.2781C128.237 64.9794 127.769 63.6919 127.269 62.4167L126.886 61.4632C126.758 61.1459 126.622 60.8316 126.491 60.5154C126.424 60.3575 126.359 60.1991 126.291 60.0422L126.085 59.5719C125.948 59.258 125.812 58.9437 125.668 58.6327C125.524 58.3217 125.387 58.0088 125.24 57.6988L124.802 56.7692C124.503 56.1535 124.204 55.5373 123.892 54.9273C123.271 53.7064 122.626 52.498 121.957 51.3021C121.288 50.1062 120.593 48.9256 119.874 47.7604C119.155 46.5928 118.415 45.442 117.655 44.3022C116.896 43.1624 116.112 42.039 115.307 40.9299C114.502 39.8209 113.685 38.7224 112.841 37.6445C109.478 33.3229 105.808 29.2492 101.861 25.4549C99.8875 23.5626 97.8468 21.7414 95.726 20.018C94.6671 19.1542 93.5902 18.3158 92.4952 17.5028C91.4002 16.6899 90.2856 15.9051 89.1513 15.1484C86.8838 13.6367 84.5378 12.245 82.1059 11.0303C79.6741 9.81571 77.1603 8.78055 74.5674 8.0247C73.2751 7.64538 71.9598 7.34947 70.6297 7.13879C69.3079 6.92747 67.9705 6.83018 66.6321 6.84798C65.9664 6.86717 65.3021 6.90844 64.644 6.99195C63.9881 7.07857 63.3377 7.20339 62.6963 7.36579C62.0598 7.53386 61.4353 7.74454 60.8271 7.99639L60.3756 8.19363L59.9342 8.41151C59.8594 8.44606 59.7904 8.48685 59.7166 8.52668L59.5014 8.6457C59.3576 8.72201 59.2177 8.81031 59.0782 8.89621C58.5204 9.24001 57.9914 9.62874 57.4966 10.0585C57.0026 10.4916 56.5425 10.9618 56.1201 11.4651L55.9639 11.6571C55.9121 11.7209 55.8575 11.7828 55.81 11.8491L55.5138 12.245C55.418 12.3803 55.3284 12.5176 55.2354 12.6539L55.1659 12.7561L55.1002 12.8617L54.9703 13.0724L54.84 13.2835L54.7192 13.5004L54.5979 13.7169L54.5376 13.8253L54.4815 13.9367L54.2572 14.3806L54.0506 14.8341C53.5173 16.0607 53.1175 17.3413 52.8582 18.6537L52.8064 18.8998L52.7633 19.1484L52.6765 19.6451L52.6056 20.1447C52.5941 20.2282 52.5807 20.3112 52.5706 20.3948L52.5423 20.6462L52.4868 21.1487L52.4455 21.6531L52.4244 21.905L52.411 22.1584L52.3837 22.6642C52.3343 24.0189 52.3637 25.3754 52.4719 26.7266C52.5778 28.0804 52.7532 29.4314 52.9881 30.7732C53.4582 33.4573 54.1498 36.1064 54.9948 38.7056C55.4178 40.0055 55.8752 41.2942 56.367 42.5717C56.8587 43.8492 57.3838 45.1129 57.9423 46.3629L58.3627 47.2997L58.7969 48.2302C58.9407 48.5412 59.0926 48.8479 59.2407 49.1565L59.4645 49.6186C59.5398 49.7722 59.6179 49.9248 59.6941 50.0779C60.3028 51.3045 60.944 52.5153 61.6059 53.7146C64.2573 58.5103 67.2892 63.0958 70.6225 67.4466C71.0366 67.9928 71.4632 68.5288 71.8859 69.0682C72.3086 69.6076 72.7424 70.1379 73.1799 70.6644C73.6175 71.1908 74.0589 71.7159 74.5003 72.2399C74.9417 72.764 75.3942 73.2785 75.8514 73.7886C76.3086 74.2987 76.7673 74.8079 77.2274 75.3152C77.6875 75.8224 78.1586 76.3206 78.6341 76.8139L78.9883 77.1858L79.3468 77.5539C79.5864 77.7982 79.826 78.0453 80.0657 78.2877L80.7932 79.0128C81.0357 79.2528 81.284 79.4928 81.5289 79.7303C83.4955 81.6375 85.538 83.4611 87.6564 85.2012C89.7772 86.9318 91.9699 88.5788 94.2493 90.0862C96.5224 91.605 98.8903 92.9767 101.338 94.1927C103.785 95.4002 106.323 96.4334 108.938 97.1907" fill="#F37423"/>
<path d="M53.561 9.42363C47.7815 10.8072 42.0282 12.1658 36.3297 13.6742C33.4808 14.4281 30.6464 15.2171 27.8374 16.0708C26.4331 16.4965 25.0365 16.9428 23.6432 17.3934C22.25 17.8441 20.8635 18.3105 19.4851 18.7933C18.7959 19.0361 18.1081 19.2819 17.4242 19.5367C16.7402 19.7915 16.0597 20.0545 15.3815 20.3242C14.029 20.8689 12.6918 21.4525 11.3935 22.1109C10.7445 22.4396 10.1052 22.7871 9.48114 23.1581C8.85713 23.529 8.24557 23.9216 7.6599 24.3463C6.48567 25.1914 5.39293 26.1551 4.49668 27.2737C4.04914 27.8291 3.66013 28.4293 3.33588 29.0647C3.01747 29.6956 2.78349 30.3657 2.63997 31.0578C2.49849 31.7465 2.45893 32.4523 2.52255 33.1526C2.58677 33.855 2.74142 34.5462 2.98265 35.209C3.10145 35.5432 3.23874 35.8705 3.39388 36.1894C3.54916 36.509 3.71739 36.8234 3.90239 37.1286L3.97092 37.2438L4.04329 37.3566L4.18707 37.5826C4.2882 37.7304 4.38549 37.8801 4.49141 38.0251C4.69702 38.3183 4.91845 38.601 5.14466 38.8807C5.37088 39.1605 5.60812 39.4307 5.85303 39.6966C5.97381 39.8305 6.0989 39.9601 6.22447 40.0896C6.35004 40.2192 6.47849 40.3469 6.60789 40.4735C7.1212 40.9823 7.6623 41.4655 8.21538 41.9329C9.33344 42.8624 10.499 43.733 11.7074 44.5412C12.3113 44.9482 12.9209 45.3475 13.5406 45.7328C14.1603 46.1182 14.7824 46.5007 15.4098 46.8717C16.0372 47.2426 16.6717 47.6083 17.3096 47.9663C17.9475 48.3243 18.5869 48.6795 19.231 49.0279C20.5177 49.7266 21.819 50.4014 23.1347 51.0521C25.765 52.3546 28.4417 53.5716 31.1386 54.7445C33.8355 55.9174 36.5544 57.0562 39.2767 58.1859C44.7227 60.4468 50.2152 62.626 55.7274 64.7813L64.0078 68.0086C66.7694 69.0908 69.5353 70.1682 72.2878 71.2989L72.2 71.5825C70.7454 71.2682 69.2985 70.9255 67.8554 70.5699C66.4123 70.2143 64.9731 69.8414 63.5367 69.4594C60.6649 68.6915 57.8071 67.8711 54.9634 66.998C52.1197 66.1248 49.2905 65.2029 46.4759 64.2323C45.07 63.7437 43.6677 63.2422 42.2688 62.7278C41.571 62.4681 40.8722 62.2085 40.1773 61.9402C39.4823 61.672 38.7874 61.4042 38.0939 61.1277C35.3217 60.0284 32.5801 58.8474 29.869 57.5846C27.1579 56.3218 24.4848 54.9752 21.8498 53.5447C19.2167 52.1117 16.6152 50.6005 14.1335 48.8873C12.8907 48.0325 11.6753 47.1337 10.5006 46.1768C9.31977 45.2223 8.19105 44.2051 7.11928 43.1293C6.03694 42.0493 5.04517 40.8819 4.15401 39.639C3.70875 39.0101 3.30482 38.3528 2.94479 37.6714C2.57984 36.9852 2.27793 36.2671 2.0428 35.5262C1.80479 34.7788 1.65755 34.0053 1.60426 33.2227C1.55142 32.4368 1.60722 31.6474 1.77009 30.8769C1.93373 30.1115 2.19029 29.369 2.53405 28.6659C2.87694 27.9716 3.2825 27.3101 3.74566 26.6897C4.66683 25.4544 5.75862 24.3741 6.91942 23.3894C7.5003 22.897 8.09988 22.4296 8.71191 21.9804C9.32395 21.5312 9.95036 21.1031 10.5873 20.6928C11.2243 20.2825 11.8694 19.8861 12.5241 19.5069C12.8509 19.315 13.1807 19.1317 13.5109 18.9479C13.8411 18.764 14.1752 18.5874 14.5102 18.4128C15.1788 18.061 15.8565 17.7294 16.537 17.405C17.2176 17.0805 17.9068 16.7753 18.5979 16.4816C19.9837 15.8923 21.3868 15.3548 22.8074 14.8691C24.2261 14.3796 25.66 13.9424 27.0993 13.5312C29.9788 12.7134 32.8819 12.0095 35.8087 11.4196C38.7355 10.8296 41.675 10.3356 44.6273 9.93762C45.3659 9.84163 46.1045 9.74565 46.8445 9.66503L47.9545 9.54265L49.0664 9.43275C49.4364 9.39628 49.8078 9.36605 50.1788 9.33677C50.5497 9.3075 50.9212 9.27774 51.2926 9.25135C52.036 9.19952 52.7784 9.15537 53.5261 9.13281L53.561 9.42363Z" fill="#F37423"/>
<path d="M148.587 84.4737C148.587 84.4737 154.162 87.7544 153.827 93.2829L148.587 84.4737ZM131.175 79.5033C130.829 79.5062 130.132 79.666 129.806 79.5355C133.798 81.1278 137.07 84.1181 139.495 87.6339C140.69 89.3673 141.733 91.2481 142.526 93.2008C143.293 95.0878 143.586 97.5545 145.459 98.7197C146.855 99.5888 148.674 99.8355 150.278 99.5644C151.718 99.3206 153.01 98.5474 154.036 97.52C157.001 94.5493 156.105 89.1547 153.619 86.1352C151.538 83.6075 148.372 82.187 145.311 81.2684C141.908 80.2482 138.347 79.7807 134.81 79.5888C133.744 79.5305 132.677 79.5006 131.608 79.499C131.463 79.499 131.32 79.499 131.176 79.499" fill="#F89520"/>
<path d="M127.844 77.9518C126.162 85.1849 119.307 87.4333 119.307 87.4333L127.844 77.9518ZM118.336 70.5075C114.612 71.8267 112.26 75.5781 109.134 77.706C106.087 79.7797 102.725 81.4402 99.1207 82.2575C97.794 82.5584 93.412 83.5887 92.1592 82.4298C92.3509 82.607 92.5439 82.783 92.7381 82.9577C99.8199 89.2751 109.01 92.6071 118.354 90.0123C125.359 88.0667 131.913 83.4971 129.129 75.3305C128 72.0192 124.476 70.0559 121.062 70.0559C120.135 70.0514 119.213 70.2049 118.337 70.5099" fill="#F89520"/>
<path d="M101.974 70.316C102.603 73.0375 100.332 75.5186 100.332 75.5186L101.974 70.316ZM99.8084 67.6981C98.9852 67.8183 98.2302 68.2241 97.6752 68.8446C96.9179 69.7084 96.9955 70.9912 96.8072 72.0518C96.6051 73.16 96.3003 74.2469 95.8966 75.2984C95.0885 77.4253 93.8481 79.415 92.1582 80.8125C92.2967 80.6982 92.6293 80.6738 92.788 80.6234C93.3434 80.4463 93.8961 80.2481 94.4448 80.0336C96.0471 79.4063 97.6378 78.638 99.1072 77.6163C100.43 76.6963 101.756 75.509 102.492 73.9297C103.37 72.0431 103.316 69.204 101.704 68.1593C101.24 67.8588 100.708 67.6746 100.151 67.6746C100.036 67.6746 99.9212 67.6824 99.8075 67.6981" fill="#F89520"/>
<path d="M133.36 54.578C133.36 54.578 139.173 51.7432 143.564 55.0924L133.36 54.578ZM137.53 51.2988C134.282 51.6347 131.347 53.4886 128.887 55.5363C126.156 57.8106 123.789 60.5274 121.666 63.3751C120.939 64.35 120.242 65.3461 119.574 66.3635C119.382 66.6515 119.13 67.3233 118.841 67.5244C122.376 65.0735 126.668 64.0014 130.926 63.928C133.025 63.892 135.162 64.0652 137.22 64.488C139.208 64.896 141.413 66.0204 143.419 65.1033C144.914 64.4194 146.128 63.0397 146.794 61.5472C147.392 60.2082 147.47 58.6989 147.188 57.2722C146.437 53.4612 142.145 51.2532 138.436 51.2532C138.133 51.2528 137.831 51.268 137.53 51.2988Z" fill="#F89520"/>
<path d="M138.133 70.0535C138.134 69.8477 138.196 69.6467 138.31 69.4759C138.425 69.3051 138.588 69.1721 138.778 69.0938C138.968 69.0155 139.177 68.9954 139.378 69.0359C139.58 69.0765 139.765 69.1759 139.91 69.3217C140.055 69.4675 140.154 69.6531 140.194 69.855C140.234 70.0569 140.213 70.2661 140.134 70.4562C140.055 70.6463 139.922 70.8087 139.751 70.923C139.58 71.0373 139.379 71.0983 139.174 71.0983C139.037 71.0981 138.901 71.0709 138.775 71.0183C138.649 70.9657 138.534 70.8887 138.437 70.7917C138.341 70.6947 138.264 70.5795 138.212 70.4529C138.16 70.3262 138.133 70.1905 138.133 70.0535ZM134.491 68.4291C133.797 69.636 134.491 71.3416 136.037 72.239C137.582 73.1365 139.401 72.8855 140.095 71.6785C140.789 70.4715 140.095 68.7655 138.549 67.8681C137.968 67.524 137.307 67.3385 136.632 67.3301C135.716 67.3301 134.907 67.7097 134.491 68.4291" fill="#F89520"/>
<path d="M108.24 67.5243C108.241 67.3185 108.303 67.1175 108.417 66.9467C108.532 66.7758 108.695 66.6429 108.885 66.5646C109.075 66.4863 109.284 66.4661 109.485 66.5067C109.687 66.5473 109.872 66.6467 110.017 66.7925C110.162 66.9383 110.261 67.1238 110.301 67.3257C110.341 67.5277 110.32 67.7369 110.241 67.927C110.162 68.1171 110.029 68.2795 109.858 68.3938C109.687 68.5081 109.486 68.5691 109.28 68.5691C109.144 68.5689 109.008 68.5417 108.882 68.4891C108.756 68.4365 108.641 68.3595 108.544 68.2624C108.448 68.1654 108.371 68.0503 108.319 67.9236C108.267 67.797 108.24 67.6613 108.24 67.5243ZM104.858 66.0496C104.164 67.2565 104.858 68.9626 106.404 69.86C107.949 70.7574 109.768 70.5065 110.462 69.2995C111.156 68.0925 110.462 66.3865 108.916 65.489C108.335 65.145 107.674 64.9595 106.999 64.951C106.083 64.951 105.274 65.3307 104.859 66.0496" fill="#F89520"/>
<path d="M147.561 104.976V101.916H146.423V101.507H149.16V101.916H148.017V104.976H147.561Z" fill="#F37423"/>
<path d="M149.614 104.976V101.507H150.302L151.12 103.963C151.195 104.192 151.25 104.363 151.285 104.477C151.324 104.35 151.385 104.165 151.468 103.921L152.295 101.507H152.91V104.976H152.47V102.072L151.466 104.976H151.054L150.055 102.023V104.976H149.614Z" fill="#F37423"/>
<path d="M208.453 67.3514C204.373 67.3514 201.11 66.0621 198.665 63.4838C196.22 60.9054 194.998 57.4704 195 53.1786C195 48.8379 196.229 45.3902 198.686 42.8355C201.144 40.2808 204.461 39.0043 208.639 39.0059C212.791 39.0059 216.099 40.2824 218.563 42.8355C221.026 45.3887 222.258 48.8178 222.258 53.123C222.258 57.5252 221.026 60.9977 218.563 63.5406C216.099 66.0835 212.729 67.3537 208.453 67.3514ZM208.526 63.6294C210.923 63.6294 212.821 62.6823 214.219 60.7882C215.617 58.8941 216.316 56.3315 216.316 53.1005C216.316 49.9633 215.614 47.4461 214.209 45.5489C212.805 43.6516 210.947 42.7045 208.635 42.7077C206.298 42.7077 204.431 43.6547 203.032 45.5489C201.634 47.443 200.935 49.9783 200.935 53.1549C200.935 56.3055 201.631 58.8381 203.023 60.7527C204.415 62.6674 206.249 63.6259 208.525 63.6282L208.526 63.6294Z" fill="#F37423"/>
<path d="M230.213 66.6764V39.6853H240.274C245.734 39.6853 248.464 41.9164 248.464 46.3786C248.477 48.0025 247.992 49.5914 247.074 50.9304C246.148 52.2974 244.874 53.3462 243.252 54.077L252.041 66.6812H245.231L238.567 55.6456H235.48V66.6812L230.213 66.6764ZM235.48 51.9378H236.769C240.824 51.9378 242.852 50.29 242.852 46.9942C242.852 44.5863 241.042 43.3828 237.422 43.3836H235.48V51.9378Z" fill="#F37423"/>
<path d="M255.908 66.6764L266.369 39.6853H271.962L282.422 66.6764H276.683L273.887 59.4705H262.774L259.978 66.6764H255.908ZM264.153 55.8776H272.507L268.33 45.1155L264.153 55.8776Z" fill="#F37423"/>
<path d="M289.161 66.6765V39.6854H294.082L306.539 58.1258V39.6807H311.025V66.6718H306.013L293.647 48.2385V66.6801L289.161 66.6765Z" fill="#F37423"/>
<path d="M342.185 66.0373C338.818 66.9134 335.913 67.3514 333.468 67.3514C328.831 67.3514 325.269 66.1261 322.781 63.6756C320.294 61.2251 319.05 57.7131 319.049 53.1396C319.049 48.6039 320.293 45.114 322.781 42.6698C325.27 40.2257 328.814 39.0024 333.413 39C336.36 39.0007 339.297 39.3497 342.162 40.0394V44.4349C338.808 43.2795 336.054 42.7018 333.899 42.7018C331.053 42.7018 328.856 43.6142 327.307 45.4388C325.758 47.2635 324.983 49.8474 324.983 53.1905C324.983 56.4263 325.81 58.9648 327.465 60.806C329.121 62.6473 331.409 63.5683 334.331 63.569C335.087 63.555 335.84 63.4634 336.577 63.2956V54.4169H342.17L342.185 66.0373Z" fill="#F37423"/>
<path d="M351.425 66.6765V39.6853H368.222V43.3848H357.018V50.9174H366.207V54.5293H357.018V62.8468H369.077V66.6776L351.425 66.6765Z" fill="#F37423"/>
<path d="M413.533 65.5992C410.932 66.768 407.827 67.3521 404.218 67.3513C399.811 67.3513 396.378 66.1047 393.921 63.6115C391.463 61.1184 390.234 57.6408 390.234 53.1785C390.234 48.6303 391.472 45.1309 393.948 42.6804C396.424 40.2298 399.956 39.0066 404.544 39.0105C407.487 39.0116 410.419 39.3605 413.279 40.0499V44.4455C409.999 43.29 407.251 42.7123 405.035 42.7123C402.202 42.7123 400.017 43.6156 398.479 45.4221C396.942 47.2286 396.173 49.7912 396.173 53.1099C396.173 56.3693 397 58.9106 398.656 60.7337C400.311 62.5568 402.608 63.4691 405.547 63.4707C408.186 63.4707 410.849 62.8019 413.537 61.4641L413.533 65.5992Z" fill="#F37423"/>
<path d="M421.302 66.6764V39.6853H426.895V62.8503H439.007V66.6812L421.302 66.6764Z" fill="#F37423"/>
<path d="M445.55 66.6765V39.6853H462.349V43.3848H451.143V50.9174H460.333V54.5293H451.143V62.8468H463.202V66.6776L445.55 66.6765Z" fill="#F37423"/>
<path d="M467.937 66.6764L478.396 39.6853H483.989L494.45 66.6764H488.711L485.914 59.4705H474.801L472.004 66.6764H467.937ZM476.18 55.8776H484.534L480.357 45.1155L476.18 55.8776Z" fill="#F37423"/>
<path d="M501.188 66.6765V39.6854H506.11L518.568 58.1258V39.6807H523.053V66.6718H518.04L505.674 48.2385V66.6801L501.188 66.6765Z" fill="#F37423"/>
<path d="M532.765 66.6764V39.6853H538.358V66.6764H532.765Z" fill="#F37423"/>
<path d="M548.05 66.6765V39.6854H552.97L565.429 58.1258V39.6807H569.915V66.6718H564.905L552.535 48.2385V66.6801L548.05 66.6765Z" fill="#F37423"/>
<path d="M601.09 66.0373C597.724 66.9134 594.818 67.3514 592.373 67.3514C587.736 67.3514 584.174 66.1261 581.686 63.6756C579.199 61.2251 577.955 57.7131 577.954 53.1396C577.954 48.6039 579.198 45.114 581.686 42.6698C584.175 40.2257 587.719 39.0024 592.319 39C595.266 39.0007 598.202 39.3497 601.067 40.0394V44.4349C597.713 43.2795 594.959 42.7018 592.805 42.7018C589.958 42.7018 587.761 43.6142 586.212 45.4388C584.663 47.2635 583.889 49.8474 583.888 53.1905C583.888 56.4263 584.715 58.9648 586.371 60.806C588.026 62.6473 590.314 63.5683 593.236 63.569C593.992 63.555 594.745 63.4634 595.482 63.2956V54.4169H601.076L601.09 66.0373Z" fill="#F37423"/>
<path d="M208.643 94.7804C207.234 95.1893 206.204 95.4319 205.554 95.5085C204.883 95.587 204.208 95.6265 203.532 95.6269C201.601 95.6269 200.081 95.2765 198.972 94.5756C197.864 93.8748 197.022 92.8642 196.445 91.5439C195.868 90.2243 195.579 88.7509 195.578 87.1235C195.578 84.6351 196.233 82.5958 197.544 81.0055C198.855 79.4152 200.849 78.6197 203.526 78.6189C205.246 78.6336 206.956 78.8805 208.61 79.3529V81.4754C206.978 80.9143 205.855 80.5844 205.241 80.4858C204.667 80.39 204.087 80.3405 203.505 80.3378C201.567 80.3378 200.166 81 199.303 82.3243C198.44 83.6486 198.009 85.2519 198.009 87.1342C198 88.2466 198.185 89.352 198.557 90.4003C198.915 91.3997 199.557 92.2728 200.403 92.9124C201.27 93.5761 202.431 93.9079 203.885 93.9079C204.234 93.9092 204.582 93.889 204.929 93.8476C205.412 93.7717 205.889 93.6565 206.354 93.5031V88.228H208.643V94.7804Z" fill="#F37423"/>
<path d="M218.975 81.1771V79.0178H221.12V81.1748L218.975 81.1771ZM218.975 95.2184V83.3329H221.12V95.2184H218.975Z" fill="#F37423"/>
<path d="M234.108 95.2184L229.706 83.3329H231.861L235.297 92.5808L238.934 83.3329H240.93L236.256 95.2184H234.108Z" fill="#F37423"/>
<path d="M258.27 94.8348C256.811 95.2728 255.562 95.4919 254.522 95.4919C252.658 95.4919 251.191 94.8699 250.122 93.6261C249.052 92.3823 248.518 90.914 248.519 89.2211C248.516 88.1196 248.758 87.0314 249.228 86.0354C249.701 85.0292 250.318 84.2814 251.081 83.7921C251.843 83.3028 252.74 83.0585 253.773 83.0593C255.158 83.0593 256.262 83.5518 257.083 84.5367C257.904 85.5217 258.317 86.9956 258.321 88.9583L258.31 89.6141H250.705C250.824 90.6654 251.054 91.4755 251.394 92.0445C251.721 92.6006 252.191 93.0594 252.753 93.374C253.319 93.6897 254.039 93.8475 254.913 93.8475C255.358 93.8465 255.802 93.8069 256.24 93.7291C256.681 93.6502 257.357 93.4478 258.266 93.1218L258.27 94.8348ZM250.806 87.9947H256.178C256.178 86.8061 255.942 85.9561 255.469 85.4447C255.238 85.1938 254.956 84.9955 254.641 84.8634C254.327 84.7312 253.988 84.6682 253.647 84.6788C252.803 84.6788 252.143 84.955 251.668 85.5074C251.193 86.0599 250.906 86.889 250.806 87.9947Z" fill="#F37423"/>
<path d="M284.776 95.2184V88.454L279.395 79.0178H282.01L286.193 86.3291L290.693 79.0178H292.829L287.065 88.4079V95.216L284.776 95.2184Z" fill="#F37423"/>
<path d="M306.174 95.4919C305.048 95.4919 304.068 95.2598 303.235 94.7958C302.402 94.3317 301.742 93.6017 301.256 92.6057C300.759 91.5648 300.509 90.4232 300.525 89.2697C300.515 88.1626 300.742 87.0662 301.191 86.0544C301.634 85.0663 302.28 84.3197 303.126 83.8146C303.973 83.3095 304.989 83.0578 306.174 83.0593C307.302 83.0593 308.284 83.2894 309.119 83.7495C309.954 84.2096 310.614 84.9397 311.098 85.9396C311.591 86.9797 311.839 88.1187 311.824 89.2697C311.835 90.3848 311.604 91.4891 311.148 92.5063C310.697 93.496 310.051 94.241 309.211 94.7413C308.371 95.2417 307.359 95.4919 306.174 95.4919ZM306.174 93.8724C307.245 93.8724 308.076 93.4723 308.666 92.672C309.257 91.8717 309.552 90.7376 309.552 89.2697C309.552 87.7946 309.255 86.6605 308.66 85.8673C308.066 85.0742 307.238 84.6796 306.178 84.6835C305.114 84.6835 304.286 85.0781 303.695 85.8673C303.104 86.6566 302.805 87.7907 302.797 89.2697C302.797 90.7376 303.093 91.8717 303.683 92.672C304.273 93.4723 305.102 93.8724 306.169 93.8724H306.174Z" fill="#F37423"/>
<path d="M328.842 95.2184V92.9868C328.346 93.7347 327.696 94.3672 326.935 94.8419C326.261 95.2628 325.483 95.4882 324.689 95.493C323.695 95.493 322.883 95.1738 322.254 94.5353C321.625 93.8968 321.31 93.0085 321.309 91.8705V83.334H323.456V91.1697C323.456 91.9944 323.528 92.5382 323.673 92.801C323.814 93.0592 324.027 93.2715 324.284 93.413C324.543 93.5589 324.836 93.6344 325.133 93.6321C325.657 93.6321 326.226 93.4679 326.839 93.1396C327.452 92.8113 328.119 92.1108 328.838 91.0383V83.334H330.984V95.2195L328.842 95.2184Z" fill="#F37423"/>
<path d="M354.747 95.2184V79.0178H357.921L362.401 91.5497L367.012 79.0178H369.836V95.216H367.704V82.0413L363.242 94.134H361.045L356.72 82.0081V95.2184H354.747Z" fill="#F37423"/>
<path d="M384.95 95.4918C383.822 95.4918 382.842 95.2597 382.009 94.7957C381.177 94.3316 380.517 93.6016 380.03 92.6056C379.533 91.5648 379.283 90.4231 379.3 89.2696C379.29 88.1626 379.517 87.0664 379.965 86.0544C380.359 85.1227 381.036 84.339 381.901 83.8146C382.749 83.3119 383.765 83.0601 384.95 83.0593C386.077 83.0593 387.058 83.2894 387.893 83.7495C388.729 84.2096 389.389 84.9396 389.874 85.9396C390.366 86.9797 390.614 88.1188 390.598 89.2696C390.61 90.3848 390.379 91.4892 389.922 92.5062C389.472 93.4959 388.827 94.2409 387.987 94.7412C387.147 95.2416 386.134 95.4918 384.95 95.4918ZM384.95 93.8723C386.021 93.8723 386.851 93.4722 387.442 92.6719C388.032 91.8717 388.327 90.7376 388.327 89.2696C388.327 87.7946 388.03 86.6605 387.436 85.8673C386.842 85.0742 386.014 84.6796 384.953 84.6835C383.889 84.6835 383.062 85.0781 382.47 85.8673C381.879 86.6565 381.584 87.7907 381.585 89.2696C381.585 90.7376 381.88 91.8717 382.47 92.6719C383.061 93.4722 383.885 93.8723 384.944 93.8723H384.95Z" fill="#F37423"/>
<path d="M400.147 95.2183V83.3328H402.293V85.5548C402.654 84.8131 403.2 84.1776 403.879 83.7104C404.503 83.2841 405.242 83.0571 405.998 83.0593C406.228 83.0601 406.457 83.0783 406.684 83.1138V85.1263C406.37 85.0111 406.039 84.9483 405.704 84.9404C405.033 84.9393 404.378 85.152 403.835 85.5477C403.265 85.9542 402.753 86.5622 402.298 87.372V95.2171L400.147 95.2183Z" fill="#F37423"/>
<path d="M424.297 94.8348C422.836 95.2728 421.586 95.4919 420.548 95.4919C418.683 95.4919 417.216 94.8699 416.147 93.6261C415.078 92.3823 414.544 90.914 414.544 89.2211C414.541 88.1196 414.784 87.0314 415.253 86.0354C415.726 85.0292 416.343 84.2814 417.105 83.7921C417.866 83.3028 418.764 83.0585 419.797 83.0593C421.182 83.0593 422.288 83.5518 423.114 84.5367C423.94 85.5217 424.353 86.9956 424.352 88.9583L424.341 89.6141H416.736C416.854 90.6654 417.083 91.4755 417.424 92.0445C417.752 92.6006 418.222 93.0594 418.785 93.374C419.351 93.6897 420.07 93.8475 420.944 93.8475C421.389 93.8465 421.833 93.8069 422.271 93.7291C422.711 93.6502 423.387 93.4478 424.298 93.1218L424.297 94.8348ZM416.833 87.9947H422.206C422.206 86.8061 421.97 85.9561 421.497 85.4447C421.266 85.1939 420.983 84.9957 420.669 84.8636C420.355 84.7314 420.016 84.6684 419.675 84.6788C418.829 84.6788 418.169 84.955 417.695 85.5074C417.22 86.0599 416.933 86.889 416.833 87.9947Z" fill="#F37423"/>
<path d="M447.316 95.2184V79.0178H456.468V80.7367H449.604V86.1646H455.378V87.861H449.604V95.216L447.316 95.2184Z" fill="#F37423"/>
<path d="M465.548 95.2183V83.3328H467.695V85.5548C468.055 84.8131 468.601 84.1776 469.28 83.7104C469.905 83.2841 470.643 83.0571 471.399 83.0593C471.629 83.0601 471.858 83.0783 472.086 83.1138V85.1263C471.771 85.0112 471.44 84.9484 471.106 84.9404C470.434 84.9389 469.779 85.1516 469.237 85.5477C468.667 85.9542 468.154 86.5622 467.7 87.372V95.2171L465.548 95.2183Z" fill="#F37423"/>
<path d="M489.697 94.8348C488.238 95.2728 486.988 95.4919 485.949 95.4919C484.085 95.4919 482.618 94.8699 481.548 93.6261C480.479 92.3823 479.945 90.914 479.945 89.2211C479.943 88.1196 480.185 87.0314 480.655 86.0354C481.128 85.0292 481.745 84.2814 482.506 83.7921C483.268 83.3028 484.165 83.0585 485.198 83.0593C486.584 83.0593 487.687 83.5518 488.508 84.5367C489.33 85.5217 489.743 86.9956 489.747 88.9583L489.736 89.6141H482.135C482.254 90.6654 482.484 91.4755 482.824 92.0445C483.152 92.6006 483.621 93.0594 484.184 93.374C484.75 93.6897 485.47 93.8475 486.344 93.8475C486.789 93.8465 487.232 93.8069 487.67 93.7291C488.111 93.6502 488.786 93.4478 489.697 93.1218V94.8348ZM482.233 87.9947H487.605C487.605 86.8061 487.369 85.9561 486.896 85.4447C486.664 85.1939 486.382 84.9957 486.067 84.8636C485.753 84.7314 485.414 84.6684 485.073 84.6788C484.229 84.6788 483.569 84.955 483.094 85.5074C482.618 86.0599 482.332 86.889 482.233 87.9947Z" fill="#F37423"/>
<path d="M508.333 94.8348C506.874 95.2728 505.625 95.4919 504.585 95.4919C502.719 95.4919 501.252 94.8699 500.184 93.6261C499.116 92.3823 498.582 90.914 498.58 89.2211C498.577 88.1196 498.82 87.0314 499.289 86.0354C499.762 85.0292 500.38 84.2814 501.142 83.7921C501.904 83.3028 502.802 83.0585 503.834 83.0593C505.22 83.0593 506.325 83.5518 507.15 84.5367C507.976 85.5217 508.39 86.9967 508.393 88.9619L508.382 89.6177H500.777C500.896 90.6689 501.126 91.479 501.466 92.0481C501.793 92.6041 502.263 93.0629 502.826 93.3775C503.392 93.6932 504.112 93.851 504.986 93.851C505.43 93.8499 505.874 93.8103 506.312 93.7326C506.753 93.6537 507.428 93.4513 508.339 93.1254L508.333 94.8348ZM500.869 87.9947H506.241C506.241 86.8061 506.005 85.9561 505.532 85.4447C505.301 85.1938 505.018 84.9955 504.704 84.8634C504.39 84.7312 504.051 84.6682 503.71 84.6788C502.865 84.6788 502.205 84.955 501.731 85.5074C501.256 86.0599 500.969 86.889 500.869 87.9947Z" fill="#F37423"/>
<path d="M535.178 95.2184V80.7391H529.457V79.0178H543.187V80.7367H537.466V95.216L535.178 95.2184Z" fill="#F37423"/>
<path d="M551.731 81.1771V79.0178H553.879V81.1748L551.731 81.1771ZM551.731 95.2184V83.3329H553.879V95.2184H551.731Z" fill="#F37423"/>
<path d="M564.387 95.2184V83.3329H566.533V85.5537C566.969 84.8605 567.537 84.2602 568.205 83.7874C568.893 83.2993 569.718 83.0442 570.561 83.0594C571.022 83.0494 571.481 83.1348 571.908 83.3103C572.297 83.481 572.651 83.7218 572.952 84.0206C573.267 84.3268 573.547 84.8375 573.789 85.5525C574.214 84.8498 574.777 84.2411 575.444 83.7637C576.117 83.2852 576.925 83.0339 577.75 83.0463C578.577 83.0415 579.38 83.3202 580.027 83.836C580.702 84.3616 581.039 85.2692 581.04 86.5588V95.2125H578.893V86.8973C578.893 86.1081 578.728 85.5711 578.397 85.2862C578.093 85.0115 577.698 84.8592 577.289 84.8588C576.727 84.873 576.178 85.0364 575.7 85.3323C575.148 85.648 574.509 86.2822 573.783 87.2347V95.2078H571.645V86.8926C571.645 86.0963 571.478 85.5557 571.145 85.2707C570.832 84.9939 570.428 84.8418 570.011 84.8434C569.456 84.8551 568.916 85.0189 568.448 85.3169C567.921 85.6326 567.283 86.2723 566.535 87.2359V95.209L564.387 95.2184Z" fill="#F37423"/>
<path d="M600.492 94.8348C599.032 95.2728 597.782 95.4919 596.743 95.4919C594.879 95.4919 593.412 94.8699 592.342 93.6261C591.273 92.3823 590.738 90.914 590.739 89.2211C590.737 88.1196 590.979 87.0314 591.449 86.0354C591.922 85.0292 592.539 84.2814 593.3 83.7921C594.061 83.3028 594.959 83.0585 595.992 83.0593C597.378 83.0593 598.483 83.5518 599.308 84.5367C600.134 85.5217 600.547 86.9956 600.547 88.9583L600.536 89.6141H592.925C593.044 90.6654 593.273 91.4755 593.613 92.0445C593.941 92.6006 594.41 93.0594 594.973 93.374C595.539 93.6897 596.259 93.8475 597.133 93.8475C597.578 93.8465 598.022 93.8069 598.459 93.7291C598.9 93.6502 599.576 93.4478 600.487 93.1218L600.492 94.8348ZM593.028 87.9947H598.399C598.399 86.8061 598.163 85.9561 597.69 85.4447C597.458 85.1939 597.176 84.9957 596.861 84.8636C596.547 84.7314 596.208 84.6684 595.867 84.6788C595.023 84.6788 594.363 84.955 593.888 85.5074C593.412 86.0599 593.125 86.889 593.027 87.9947H593.028Z" fill="#F37423"/>
</svg>
